%TF.GenerationSoftware,KiCad,Pcbnew,8.0.8*%
%TF.CreationDate,2025-08-11T17:01:41-07:00*%
%TF.ProjectId,bellamu,62656c6c-616d-4752-9e6b-696361645f70,rev?*%
%TF.SameCoordinates,Original*%
%TF.FileFunction,Soldermask,Top*%
%TF.FilePolarity,Negative*%
%FSLAX46Y46*%
G04 Gerber Fmt 4.6, Leading zero omitted, Abs format (unit mm)*
G04 Created by KiCad (PCBNEW 8.0.8) date 2025-08-11 17:01:41*
%MOMM*%
%LPD*%
G01*
G04 APERTURE LIST*
G04 Aperture macros list*
%AMRoundRect*
0 Rectangle with rounded corners*
0 $1 Rounding radius*
0 $2 $3 $4 $5 $6 $7 $8 $9 X,Y pos of 4 corners*
0 Add a 4 corners polygon primitive as box body*
4,1,4,$2,$3,$4,$5,$6,$7,$8,$9,$2,$3,0*
0 Add four circle primitives for the rounded corners*
1,1,$1+$1,$2,$3*
1,1,$1+$1,$4,$5*
1,1,$1+$1,$6,$7*
1,1,$1+$1,$8,$9*
0 Add four rect primitives between the rounded corners*
20,1,$1+$1,$2,$3,$4,$5,0*
20,1,$1+$1,$4,$5,$6,$7,0*
20,1,$1+$1,$6,$7,$8,$9,0*
20,1,$1+$1,$8,$9,$2,$3,0*%
G04 Aperture macros list end*
%ADD10C,0.000000*%
%ADD11RoundRect,0.250000X-0.450000X0.262500X-0.450000X-0.262500X0.450000X-0.262500X0.450000X0.262500X0*%
%ADD12RoundRect,0.250000X0.450000X-0.262500X0.450000X0.262500X-0.450000X0.262500X-0.450000X-0.262500X0*%
%ADD13R,1.700000X1.700000*%
%ADD14O,1.700000X1.700000*%
%ADD15R,1.500000X1.000000*%
%ADD16C,3.000000*%
%ADD17RoundRect,0.225000X-0.250000X0.225000X-0.250000X-0.225000X0.250000X-0.225000X0.250000X0.225000X0*%
%ADD18C,2.500000*%
%ADD19RoundRect,0.250000X-0.250000X-0.475000X0.250000X-0.475000X0.250000X0.475000X-0.250000X0.475000X0*%
%ADD20RoundRect,0.225000X0.250000X-0.225000X0.250000X0.225000X-0.250000X0.225000X-0.250000X-0.225000X0*%
%ADD21C,1.300000*%
%ADD22R,1.300000X1.300000*%
%ADD23R,0.650001X0.900001*%
%ADD24O,0.349999X1.200000*%
%ADD25RoundRect,0.150000X0.512500X0.150000X-0.512500X0.150000X-0.512500X-0.150000X0.512500X-0.150000X0*%
%ADD26R,0.355600X1.079500*%
%ADD27R,0.304800X1.079500*%
%ADD28R,0.457200X1.219200*%
%ADD29O,0.457200X1.219200*%
%ADD30RoundRect,0.150000X-0.150000X0.512500X-0.150000X-0.512500X0.150000X-0.512500X0.150000X0.512500X0*%
%ADD31C,1.440000*%
%ADD32RoundRect,0.250000X0.262500X0.450000X-0.262500X0.450000X-0.262500X-0.450000X0.262500X-0.450000X0*%
%ADD33RoundRect,0.250000X-0.262500X-0.450000X0.262500X-0.450000X0.262500X0.450000X-0.262500X0.450000X0*%
%ADD34RoundRect,0.225000X0.225000X0.250000X-0.225000X0.250000X-0.225000X-0.250000X0.225000X-0.250000X0*%
%ADD35RoundRect,0.250000X0.250000X0.475000X-0.250000X0.475000X-0.250000X-0.475000X0.250000X-0.475000X0*%
%ADD36RoundRect,0.225000X-0.225000X-0.250000X0.225000X-0.250000X0.225000X0.250000X-0.225000X0.250000X0*%
%ADD37RoundRect,0.250000X0.475000X-0.250000X0.475000X0.250000X-0.475000X0.250000X-0.475000X-0.250000X0*%
%ADD38RoundRect,0.250000X-0.475000X0.337500X-0.475000X-0.337500X0.475000X-0.337500X0.475000X0.337500X0*%
%ADD39RoundRect,0.243750X0.456250X-0.243750X0.456250X0.243750X-0.456250X0.243750X-0.456250X-0.243750X0*%
%ADD40RoundRect,0.243750X-0.456250X0.243750X-0.456250X-0.243750X0.456250X-0.243750X0.456250X0.243750X0*%
%ADD41R,0.838200X1.600200*%
%ADD42O,2.413000X1.270000*%
%ADD43O,2.921000X1.270000*%
%ADD44R,2.387600X0.304800*%
%ADD45C,1.303000*%
%ADD46C,1.778000*%
%ADD47C,1.650000*%
%ADD48R,1.650000X1.650000*%
%ADD49R,2.159000X5.511800*%
%ADD50RoundRect,0.102000X1.155000X-0.735000X1.155000X0.735000X-1.155000X0.735000X-1.155000X-0.735000X0*%
%ADD51RoundRect,0.102000X-0.685000X-1.405000X0.685000X-1.405000X0.685000X1.405000X-0.685000X1.405000X0*%
%ADD52RoundRect,0.102000X0.685000X1.405000X-0.685000X1.405000X-0.685000X-1.405000X0.685000X-1.405000X0*%
G04 APERTURE END LIST*
D10*
%TO.C,U4*%
G36*
X194965200Y-130401100D02*
G01*
X191764800Y-130401100D01*
X191764800Y-128089700D01*
X194965200Y-128089700D01*
X194965200Y-130401100D01*
G37*
%TD*%
D11*
%TO.C,R23*%
X172400000Y-60375000D03*
X172400000Y-62200000D03*
%TD*%
D12*
%TO.C,R8*%
X183000000Y-100750000D03*
X183000000Y-98925000D03*
%TD*%
D13*
%TO.C,P6*%
X186190000Y-115145000D03*
D14*
X183650000Y-115145000D03*
%TD*%
D15*
%TO.C,JP1*%
X164850000Y-79545000D03*
X164850000Y-78245000D03*
X164850000Y-76945000D03*
%TD*%
D13*
%TO.C,P5*%
X119010000Y-121445000D03*
D14*
X121550000Y-121445000D03*
X124090000Y-121445000D03*
X126630000Y-121445000D03*
%TD*%
%TO.C,P4*%
X181970000Y-121145000D03*
X179430000Y-121145000D03*
X176890000Y-121145000D03*
D13*
X174350000Y-121145000D03*
%TD*%
%TO.C,P1*%
X149850000Y-118605000D03*
D14*
X149850000Y-121145000D03*
X149850000Y-123685000D03*
X149850000Y-126225000D03*
%TD*%
D16*
%TO.C,TP5*%
X170650000Y-83845000D03*
%TD*%
%TO.C,TP3*%
X134750000Y-83945000D03*
%TD*%
%TO.C,TP2*%
X101150000Y-83945000D03*
%TD*%
D17*
%TO.C,C61*%
X193600000Y-70775000D03*
X193600000Y-69225000D03*
%TD*%
D18*
%TO.C,TP1*%
X137925000Y-148270000D03*
%TD*%
%TO.C,H4*%
X82600000Y-149200000D03*
%TD*%
%TO.C,H3*%
X197600000Y-149200000D03*
%TD*%
%TO.C,H2*%
X197600000Y-54200000D03*
%TD*%
%TO.C,H1*%
X82600000Y-54200000D03*
%TD*%
D19*
%TO.C,C60*%
X128975000Y-65895000D03*
X130875000Y-65895000D03*
%TD*%
%TO.C,C59*%
X130825000Y-96695000D03*
X128925000Y-96695000D03*
%TD*%
D20*
%TO.C,C58*%
X91625000Y-69645000D03*
X91625000Y-68095000D03*
%TD*%
%TO.C,C57*%
X91825000Y-99795000D03*
X91825000Y-98245000D03*
%TD*%
D21*
%TO.C,J6*%
X86200000Y-73445000D03*
X81120000Y-73445000D03*
X81120000Y-68365000D03*
X86200000Y-68365000D03*
D22*
X83660000Y-70905000D03*
%TD*%
%TO.C,J1*%
X83660000Y-100905000D03*
D21*
X86200000Y-98365000D03*
X81120000Y-98365000D03*
X81120000Y-103445000D03*
X86200000Y-103445000D03*
%TD*%
D23*
%TO.C,U16*%
X178210002Y-72115001D03*
X180110001Y-72115001D03*
X180110001Y-74515001D03*
X179160003Y-74515001D03*
X178210002Y-74515001D03*
%TD*%
D24*
%TO.C,U15*%
X152900001Y-71924999D03*
X152250000Y-71924999D03*
X151600001Y-71924999D03*
X150950000Y-71924999D03*
X150950000Y-75325000D03*
X151600001Y-75325000D03*
X152250000Y-75325000D03*
X152900001Y-75325000D03*
%TD*%
D25*
%TO.C,U11*%
X177150000Y-66150000D03*
X177150000Y-65200000D03*
X177150000Y-64250000D03*
X174875000Y-64250000D03*
X174875000Y-65200000D03*
X174875000Y-66150000D03*
%TD*%
D26*
%TO.C,U10*%
X151200000Y-65044650D03*
X151849999Y-65044650D03*
X152499998Y-65044650D03*
X152499998Y-67470350D03*
X151849999Y-67470350D03*
X151200000Y-67470350D03*
%TD*%
D27*
%TO.C,U9*%
X125124998Y-70229300D03*
X124474999Y-70229300D03*
X123825000Y-70229300D03*
X123825000Y-72655000D03*
X125124998Y-72655000D03*
%TD*%
D28*
%TO.C,U8*%
X109700000Y-70155000D03*
D29*
X108749999Y-70155000D03*
X107799998Y-70155000D03*
X107799998Y-72775000D03*
X109700000Y-72775000D03*
%TD*%
D30*
%TO.C,U7*%
X96375000Y-70065000D03*
X95425000Y-70065000D03*
X94475000Y-70065000D03*
X94475000Y-72340000D03*
X96375000Y-72340000D03*
%TD*%
D31*
%TO.C,RV3*%
X163510000Y-62405000D03*
X166050000Y-64945000D03*
X168590000Y-62405000D03*
%TD*%
%TO.C,RV2*%
X142552500Y-73855000D03*
X140012500Y-76395000D03*
X137472500Y-73855000D03*
%TD*%
D11*
%TO.C,R33*%
X147050000Y-72099999D03*
X147050000Y-73924999D03*
%TD*%
D32*
%TO.C,R30*%
X155047498Y-62274650D03*
X153222498Y-62274650D03*
%TD*%
D33*
%TO.C,R27*%
X165324997Y-58945000D03*
X163499997Y-58945000D03*
%TD*%
%TO.C,R25*%
X139200000Y-80695000D03*
X141025000Y-80695000D03*
%TD*%
D12*
%TO.C,R22*%
X131524998Y-76355000D03*
X131524998Y-74530000D03*
%TD*%
D33*
%TO.C,R21*%
X114999998Y-67255000D03*
X116824998Y-67255000D03*
%TD*%
D12*
%TO.C,R20*%
X114624998Y-71655000D03*
X114624998Y-69830000D03*
%TD*%
D11*
%TO.C,R19*%
X103525000Y-66040000D03*
X103525000Y-67865000D03*
%TD*%
D33*
%TO.C,R18*%
X100825000Y-71240000D03*
X102650000Y-71240000D03*
%TD*%
D11*
%TO.C,R17*%
X91765000Y-72727500D03*
X91765000Y-74552500D03*
%TD*%
%TO.C,R16*%
X184000000Y-64375000D03*
X184000000Y-66200000D03*
%TD*%
%TO.C,R15*%
X133150000Y-62532500D03*
X133150000Y-64357500D03*
%TD*%
D13*
%TO.C,P3*%
X183400000Y-58600000D03*
D14*
X183400000Y-56060000D03*
%TD*%
D21*
%TO.C,J10*%
X193520000Y-64780000D03*
X193520000Y-59700000D03*
X198600000Y-59700000D03*
X198600000Y-64780000D03*
D22*
X196060000Y-62240000D03*
%TD*%
%TO.C,J8*%
X139735700Y-64104998D03*
D21*
X137195700Y-66644998D03*
X142275700Y-66644998D03*
X142275700Y-61564998D03*
X137195700Y-61564998D03*
%TD*%
D34*
%TO.C,C56*%
X178225000Y-79495000D03*
X176675000Y-79495000D03*
%TD*%
%TO.C,C55*%
X178175000Y-77395000D03*
X176625000Y-77395000D03*
%TD*%
D35*
%TO.C,C54*%
X152900000Y-78324999D03*
X151000000Y-78324999D03*
%TD*%
D20*
%TO.C,C53*%
X155700001Y-75074999D03*
X155700001Y-73524999D03*
%TD*%
D17*
%TO.C,C51*%
X179225000Y-66945000D03*
X179225000Y-68495000D03*
%TD*%
%TO.C,C50*%
X172425000Y-66295000D03*
X172425000Y-67845000D03*
%TD*%
D34*
%TO.C,C49*%
X150599998Y-60355000D03*
X149049998Y-60355000D03*
%TD*%
%TO.C,C48*%
X150549998Y-62544650D03*
X148999998Y-62544650D03*
%TD*%
%TO.C,C47*%
X124450000Y-67045000D03*
X122900000Y-67045000D03*
%TD*%
D36*
%TO.C,C46*%
X122890002Y-65245000D03*
X124440002Y-65245000D03*
%TD*%
D37*
%TO.C,C45*%
X129124998Y-71730000D03*
X129124998Y-69830000D03*
%TD*%
D36*
%TO.C,C44*%
X125157502Y-77230000D03*
X126707502Y-77230000D03*
%TD*%
D34*
%TO.C,C43*%
X126707502Y-75230000D03*
X125157502Y-75230000D03*
%TD*%
D37*
%TO.C,C42*%
X117724998Y-77230000D03*
X117724998Y-75330000D03*
%TD*%
D34*
%TO.C,C41*%
X108715000Y-66830000D03*
X107165000Y-66830000D03*
%TD*%
D36*
%TO.C,C39*%
X107165000Y-64930000D03*
X108715000Y-64930000D03*
%TD*%
D37*
%TO.C,C38*%
X117024998Y-71655000D03*
X117024998Y-69755000D03*
%TD*%
D34*
%TO.C,C37*%
X111190000Y-74930000D03*
X109640000Y-74930000D03*
%TD*%
D36*
%TO.C,C36*%
X109665000Y-77355000D03*
X111215000Y-77355000D03*
%TD*%
D38*
%TO.C,C35*%
X100925000Y-65765000D03*
X100925000Y-67840000D03*
%TD*%
D34*
%TO.C,C33*%
X95490000Y-66630000D03*
X93940000Y-66630000D03*
%TD*%
%TO.C,C32*%
X97925000Y-74940000D03*
X96375000Y-74940000D03*
%TD*%
D36*
%TO.C,C31*%
X93940000Y-64730000D03*
X95490000Y-64730000D03*
%TD*%
%TO.C,C30*%
X96400000Y-77140000D03*
X97950000Y-77140000D03*
%TD*%
D20*
%TO.C,C25*%
X181582191Y-106592809D03*
X181582191Y-108142809D03*
%TD*%
D34*
%TO.C,C24*%
X173344691Y-105532809D03*
X171794691Y-105532809D03*
%TD*%
D17*
%TO.C,C21*%
X149220000Y-97955000D03*
X149220000Y-96405000D03*
%TD*%
D39*
%TO.C,D3*%
X146460000Y-132245000D03*
X146460000Y-130370000D03*
%TD*%
D40*
%TO.C,D2*%
X152850000Y-132545000D03*
X152850000Y-130670000D03*
%TD*%
D25*
%TO.C,U5*%
X178957191Y-105317809D03*
X178957191Y-104367809D03*
X178957191Y-103417809D03*
X176682191Y-103417809D03*
X176682191Y-104367809D03*
X176682191Y-105317809D03*
%TD*%
D11*
%TO.C,R9*%
X194240000Y-110240000D03*
X194240000Y-108415000D03*
%TD*%
D30*
%TO.C,U1*%
X96385000Y-100330000D03*
X95435000Y-100330000D03*
X94485000Y-100330000D03*
X94485000Y-102605000D03*
X96385000Y-102605000D03*
%TD*%
D34*
%TO.C,C29*%
X93950000Y-96895000D03*
X95500000Y-96895000D03*
%TD*%
%TO.C,C28*%
X96385000Y-105205000D03*
X97935000Y-105205000D03*
%TD*%
D36*
%TO.C,C27*%
X95500000Y-94995000D03*
X93950000Y-94995000D03*
%TD*%
%TO.C,C26*%
X97960000Y-107405000D03*
X96410000Y-107405000D03*
%TD*%
D13*
%TO.C,P2*%
X186825000Y-97350000D03*
D14*
X186825000Y-99890000D03*
%TD*%
D41*
%TO.C,U4*%
X195665000Y-122844600D03*
X193365000Y-122844600D03*
X191065000Y-122844600D03*
%TD*%
D33*
%TO.C,R14*%
X149312500Y-110295000D03*
X151137500Y-110295000D03*
%TD*%
%TO.C,R10*%
X139210000Y-110960000D03*
X141035000Y-110960000D03*
%TD*%
D34*
%TO.C,C23*%
X178125000Y-97995000D03*
X176575000Y-97995000D03*
%TD*%
%TO.C,C22*%
X178125000Y-95945000D03*
X176575000Y-95945000D03*
%TD*%
D19*
%TO.C,C20*%
X190015000Y-118745000D03*
X191915000Y-118745000D03*
%TD*%
D35*
%TO.C,C13*%
X195915000Y-118745000D03*
X194015000Y-118745000D03*
%TD*%
D42*
%TO.C,J5*%
X195943802Y-73178400D03*
X195943802Y-89678400D03*
D43*
X189163744Y-73178400D03*
X189163744Y-89678400D03*
D44*
X186563800Y-85428400D03*
X186563800Y-84928401D03*
X186563800Y-84428399D03*
X186563800Y-83928400D03*
X186563800Y-83428401D03*
X186563800Y-82928400D03*
X186563800Y-82428401D03*
X186563800Y-81928399D03*
X186563800Y-81428400D03*
X186563800Y-80928401D03*
X186563800Y-80428399D03*
X186563800Y-79928400D03*
X186563800Y-79428399D03*
X186563800Y-78928400D03*
X186563800Y-78428401D03*
X186563800Y-77928399D03*
X186563800Y-77428400D03*
X186563800Y-76928399D03*
X186563800Y-76428400D03*
X186563800Y-75928401D03*
%TD*%
D26*
%TO.C,U12*%
X153409998Y-104969300D03*
X152759999Y-104969300D03*
X152110000Y-104969300D03*
X152110000Y-107395000D03*
X152759999Y-107395000D03*
X153409998Y-107395000D03*
%TD*%
D36*
%TO.C,C19*%
X155075000Y-109895000D03*
X153525000Y-109895000D03*
%TD*%
%TO.C,C18*%
X153475000Y-111995000D03*
X155025000Y-111995000D03*
%TD*%
%TO.C,C11*%
X125167502Y-107495000D03*
X126717502Y-107495000D03*
%TD*%
D34*
%TO.C,C10*%
X125167502Y-105495000D03*
X126717502Y-105495000D03*
%TD*%
D36*
%TO.C,C7*%
X107175000Y-95195000D03*
X108725000Y-95195000D03*
%TD*%
D34*
%TO.C,C3*%
X109650000Y-105195000D03*
X111200000Y-105195000D03*
%TD*%
D36*
%TO.C,C2*%
X111225000Y-107620000D03*
X109675000Y-107620000D03*
%TD*%
D31*
%TO.C,RV5*%
X94515000Y-127595000D03*
X91975000Y-125055000D03*
X94515000Y-122515000D03*
%TD*%
%TO.C,RV6*%
X96835000Y-142775000D03*
X94295000Y-145315000D03*
X96835000Y-147855000D03*
%TD*%
D33*
%TO.C,R7*%
X115009998Y-97520000D03*
X116834998Y-97520000D03*
%TD*%
D31*
%TO.C,RV4*%
X167970000Y-110250000D03*
X165430000Y-107710000D03*
X162890000Y-110250000D03*
%TD*%
D45*
%TO.C,U3*%
X176820000Y-126800000D03*
X176820000Y-129340000D03*
X176820000Y-131880000D03*
X176820000Y-134420000D03*
X176820000Y-139500000D03*
X176820000Y-142040000D03*
X176820000Y-144580000D03*
%TD*%
D29*
%TO.C,U2*%
X109710000Y-103040000D03*
X107809998Y-103040000D03*
X107809998Y-100420000D03*
X108759999Y-100420000D03*
D28*
X109710000Y-100420000D03*
%TD*%
D46*
%TO.C,S1*%
X111410000Y-142895000D03*
X108870000Y-142895000D03*
X106330000Y-142895000D03*
X106330000Y-150515000D03*
X111410000Y-150515000D03*
%TD*%
D21*
%TO.C,J3*%
X137682500Y-98500000D03*
X137682500Y-93420000D03*
X142762500Y-93420000D03*
X142762500Y-98500000D03*
D22*
X140222500Y-95960000D03*
%TD*%
D47*
%TO.C,J7*%
X81620000Y-134980000D03*
X81620000Y-137520000D03*
X81620000Y-140060000D03*
D48*
X81620000Y-142600000D03*
%TD*%
D23*
%TO.C,U14*%
X178147501Y-90645000D03*
X180047500Y-90645000D03*
X180047500Y-93045000D03*
X179097502Y-93045000D03*
X178147501Y-93045000D03*
%TD*%
D33*
%TO.C,R3*%
X100835000Y-101505000D03*
X102660000Y-101505000D03*
%TD*%
D16*
%TO.C,J2*%
X149350000Y-144779925D03*
X149350000Y-150779925D03*
X154050000Y-147779925D03*
%TD*%
D46*
%TO.C,S2*%
X191520000Y-142885000D03*
X188980000Y-142885000D03*
X186440000Y-142885000D03*
X186440000Y-150505000D03*
X191520000Y-150505000D03*
%TD*%
D11*
%TO.C,R11*%
X106505000Y-121426000D03*
X106505000Y-123251000D03*
%TD*%
D45*
%TO.C,PS1*%
X121440000Y-144506000D03*
X121440000Y-141966000D03*
X121440000Y-139426000D03*
X121440000Y-134346000D03*
X121440000Y-131806000D03*
X121440000Y-129266000D03*
X121440000Y-126726000D03*
%TD*%
D33*
%TO.C,R24*%
X189930000Y-137890000D03*
X188105000Y-137890000D03*
%TD*%
D37*
%TO.C,C5*%
X117034998Y-100020000D03*
X117034998Y-101920000D03*
%TD*%
D11*
%TO.C,R12*%
X156050000Y-129145000D03*
X156050000Y-127320000D03*
%TD*%
D49*
%TO.C,L2*%
X137580075Y-134110075D03*
X133730075Y-134110075D03*
%TD*%
%TO.C,L1*%
X161605000Y-134345000D03*
X165455000Y-134345000D03*
%TD*%
D11*
%TO.C,R4*%
X103535000Y-96305000D03*
X103535000Y-98130000D03*
%TD*%
D37*
%TO.C,C34*%
X92395000Y-133945000D03*
X92395000Y-135845000D03*
%TD*%
%TO.C,C12*%
X129134998Y-100095000D03*
X129134998Y-101995000D03*
%TD*%
D11*
%TO.C,R2*%
X91775000Y-102992500D03*
X91775000Y-104817500D03*
%TD*%
D50*
%TO.C,C16*%
X135680075Y-128010075D03*
X135680075Y-123926075D03*
%TD*%
D12*
%TO.C,R26*%
X98054250Y-133959999D03*
X98054250Y-135784999D03*
%TD*%
D37*
%TO.C,C9*%
X117734998Y-107495000D03*
X117734998Y-105595000D03*
%TD*%
D12*
%TO.C,R1*%
X133325000Y-94995000D03*
X133325000Y-93170000D03*
%TD*%
D51*
%TO.C,C14*%
X137020075Y-140910075D03*
X134180075Y-140910075D03*
%TD*%
D33*
%TO.C,R31*%
X171210000Y-112120000D03*
X173035000Y-112120000D03*
%TD*%
D12*
%TO.C,R6*%
X131534998Y-106620000D03*
X131534998Y-104795000D03*
%TD*%
D38*
%TO.C,C1*%
X100935000Y-98105000D03*
X100935000Y-96030000D03*
%TD*%
D32*
%TO.C,R28*%
X110150000Y-137395000D03*
X108325000Y-137395000D03*
%TD*%
D12*
%TO.C,R5*%
X114634998Y-100095000D03*
X114634998Y-101920000D03*
%TD*%
D37*
%TO.C,C40*%
X91385000Y-117137500D03*
X91385000Y-115237500D03*
%TD*%
D34*
%TO.C,C6*%
X122900000Y-97745000D03*
X124450000Y-97745000D03*
%TD*%
D36*
%TO.C,C4*%
X122890002Y-95945000D03*
X124440002Y-95945000D03*
%TD*%
D34*
%TO.C,C8*%
X107175000Y-97095000D03*
X108725000Y-97095000D03*
%TD*%
D12*
%TO.C,R32*%
X157870001Y-97555000D03*
X157870001Y-99380000D03*
%TD*%
D19*
%TO.C,C52*%
X153920001Y-93155000D03*
X152020001Y-93155000D03*
%TD*%
D24*
%TO.C,U13*%
X152020000Y-99555000D03*
X152670001Y-99555000D03*
X153320000Y-99555000D03*
X153970001Y-99555000D03*
X153970001Y-96154999D03*
X153320000Y-96154999D03*
X152670001Y-96154999D03*
X152020000Y-96154999D03*
%TD*%
D31*
%TO.C,RV1*%
X137482500Y-104120000D03*
X140022500Y-106660000D03*
X142562500Y-104120000D03*
%TD*%
D50*
%TO.C,C17*%
X164115000Y-127675000D03*
X164115000Y-123591000D03*
%TD*%
D39*
%TO.C,D1*%
X109705000Y-123266000D03*
X109705000Y-121391000D03*
%TD*%
D52*
%TO.C,C15*%
X165235000Y-141145000D03*
X162395000Y-141145000D03*
%TD*%
D27*
%TO.C,U6*%
X125134998Y-100494300D03*
X124484999Y-100494300D03*
X123835000Y-100494300D03*
X123835000Y-102920000D03*
X125134998Y-102920000D03*
%TD*%
D12*
%TO.C,R29*%
X96635000Y-117150000D03*
X96635000Y-115325000D03*
%TD*%
D11*
%TO.C,R13*%
X144157500Y-129015183D03*
X144157500Y-127190183D03*
%TD*%
D48*
%TO.C,J9*%
X80930000Y-124401000D03*
D47*
X80930000Y-121861000D03*
X80930000Y-119321000D03*
X80930000Y-116781000D03*
%TD*%
D15*
%TO.C,JP2*%
X164650000Y-98245000D03*
X164650000Y-96945000D03*
X164650000Y-95645000D03*
%TD*%
D21*
%TO.C,J4*%
X193520000Y-100120000D03*
X198600000Y-100120000D03*
X198600000Y-105200000D03*
X193520000Y-105200000D03*
D22*
X196060000Y-102660000D03*
%TD*%
M02*
