M48
; DRILL file {KiCad 8.0.8} date 2025-08-11T17:05:28-0700
; FORMAT={-:-/ absolute / metric / decimal}
; #@! TF.CreationDate,2025-08-11T17:05:28-07:00
; #@! TF.GenerationSoftware,Kicad,Pcbnew,8.0.8
; #@! TF.FileFunction,Plated,1,2,PTH
FMAT,2
METRIC
; #@! TA.AperFunction,Plated,PTH,ViaDrill
T1C0.300
; #@! TA.AperFunction,Plated,PTH,ComponentDrill
T2C0.660
; #@! TA.AperFunction,Plated,PTH,ComponentDrill
T3C0.760
; #@! TA.AperFunction,Plated,PTH,ComponentDrill
T4C0.800
; #@! TA.AperFunction,Plated,PTH,ComponentDrill
T5C1.000
; #@! TA.AperFunction,Plated,PTH,ComponentDrill
T6C1.100
; #@! TA.AperFunction,Plated,PTH,ComponentDrill
T7C1.143
; #@! TA.AperFunction,Plated,PTH,ComponentDrill
T8C1.200
; #@! TA.AperFunction,Plated,PTH,ComponentDrill
T9C1.500
; #@! TA.AperFunction,Plated,PTH,ComponentDrill
T10C1.900
%
G90
G05
T1
X89.308Y-115.237
X91.625Y-66.095
X91.745Y-75.67
X91.755Y-105.935
X91.825Y-96.295
X92.715Y-64.73
X92.715Y-66.63
X92.725Y-94.995
X92.725Y-96.895
X94.198Y-133.673
X94.745Y-115.345
X99.115Y-74.94
X99.125Y-105.205
X99.215Y-77.14
X99.225Y-107.405
X99.836Y-133.835
X100.915Y-64.13
X100.925Y-94.395
X103.515Y-64.33
X103.525Y-94.595
X105.815Y-66.815
X105.825Y-97.08
X105.915Y-64.915
X105.925Y-95.18
X109.705Y-125.546
X112.515Y-74.93
X112.525Y-105.195
X112.615Y-77.33
X112.625Y-107.595
X117.715Y-79.63
X117.725Y-109.895
X121.24Y-65.245
X121.24Y-95.945
X121.34Y-67.045
X121.34Y-97.745
X128.115Y-75.23
X128.125Y-105.495
X128.215Y-77.23
X128.225Y-107.495
X131.525Y-77.895
X131.525Y-108.395
X134.18Y-144.21
X135.65Y-129.545
X135.68Y-122.675
X146.46Y-126.345
X147.17Y-62.555
X147.27Y-60.355
X149.25Y-99.945
X149.25Y-111.945
X150.32Y-69.255
X150.565Y-99.555
X152.76Y-102.395
X152.85Y-126.345
X154.27Y-73.555
X155.425Y-99.555
X155.445Y-71.815
X156.195Y-62.305
X156.29Y-109.895
X156.34Y-111.995
X159.325Y-94.495
X159.35Y-63.545
X159.425Y-82.595
X159.625Y-107.495
X159.75Y-75.145
X160.0Y-99.38
X160.15Y-62.845
X160.15Y-64.245
X160.225Y-95.395
X160.225Y-93.895
X160.325Y-106.895
X160.325Y-108.195
X160.325Y-81.695
X160.95Y-63.545
X161.125Y-94.495
X161.125Y-107.595
X161.225Y-82.595
X164.15Y-129.345
X165.235Y-144.745
X167.05Y-58.945
X169.745Y-105.513
X170.805Y-66.345
X172.4Y-58.6
X172.425Y-69.195
X172.831Y-65.295
X173.035Y-113.545
X174.06Y-104.353
X174.927Y-95.945
X174.927Y-97.995
X175.225Y-77.395
X175.225Y-79.495
X178.225Y-86.2
X178.885Y-65.2
X179.125Y-75.895
X179.125Y-94.525
X179.225Y-69.895
X182.39Y-104.343
X182.725Y-86.195
X183.0Y-102.0
X183.93Y-106.593
X184.1Y-68.275
X184.25Y-79.345
X184.292Y-81.028
X193.65Y-72.845
X194.25Y-111.5
X196.85Y-69.2
T3
X121.44Y-126.726
X121.44Y-129.266
X121.44Y-131.806
X121.44Y-134.346
X121.44Y-139.426
X121.44Y-141.966
X121.44Y-144.506
X176.82Y-126.8
X176.82Y-129.34
X176.82Y-131.88
X176.82Y-134.42
X176.82Y-139.5
X176.82Y-142.04
X176.82Y-144.58
T4
X81.12Y-68.365
X81.12Y-73.445
X81.12Y-98.365
X81.12Y-103.445
X83.66Y-70.905
X83.66Y-100.905
X86.2Y-68.365
X86.2Y-73.445
X86.2Y-98.365
X86.2Y-103.445
X91.975Y-125.055
X94.295Y-145.315
X94.515Y-122.515
X94.515Y-127.595
X96.835Y-142.775
X96.835Y-147.855
X137.196Y-61.565
X137.196Y-66.645
X137.472Y-73.855
X137.482Y-104.12
X137.683Y-93.42
X137.683Y-98.5
X139.736Y-64.105
X140.012Y-76.395
X140.022Y-106.66
X140.222Y-95.96
X142.276Y-61.565
X142.276Y-66.645
X142.552Y-73.855
X142.562Y-104.12
X142.762Y-93.42
X142.762Y-98.5
X162.89Y-110.25
X163.51Y-62.405
X165.43Y-107.71
X166.05Y-64.945
X167.97Y-110.25
X168.59Y-62.405
X193.52Y-59.7
X193.52Y-64.78
X193.52Y-100.12
X193.52Y-105.2
X196.06Y-62.24
X196.06Y-102.66
X198.6Y-59.7
X198.6Y-64.78
X198.6Y-100.12
X198.6Y-105.2
T5
X119.01Y-121.445
X121.55Y-121.445
X124.09Y-121.445
X126.63Y-121.445
X149.85Y-118.605
X149.85Y-121.145
X149.85Y-123.685
X149.85Y-126.225
X174.35Y-121.145
X176.89Y-121.145
X179.43Y-121.145
X181.97Y-121.145
X183.4Y-56.06
X183.4Y-58.6
X183.65Y-115.145
X186.19Y-115.145
X186.825Y-97.35
X186.825Y-99.89
T6
X80.93Y-116.781
X80.93Y-119.321
X80.93Y-121.861
X80.93Y-124.401
X81.62Y-134.98
X81.62Y-137.52
X81.62Y-140.06
X81.62Y-142.6
T7
X106.33Y-142.895
X106.33Y-150.515
X108.87Y-142.895
X111.41Y-142.895
X111.41Y-150.515
X186.44Y-142.885
X186.44Y-150.505
X188.98Y-142.885
X191.52Y-142.885
X191.52Y-150.505
T8
X137.925Y-148.27
T9
X101.15Y-83.945
X134.75Y-83.945
X170.65Y-83.845
T10
X149.35Y-144.78
X149.35Y-150.78
X154.05Y-147.78
T2
G00X189.989Y-73.178
M15
G01X188.338Y-73.178
M16
G05
G00X189.989Y-89.678
M15
G01X188.338Y-89.678
M16
G05
G00X196.515Y-73.178
M15
G01X195.372Y-73.178
M16
G05
G00X196.515Y-89.678
M15
G01X195.372Y-89.678
M16
G05
M30
