%TF.GenerationSoftware,KiCad,Pcbnew,8.0.8*%
%TF.CreationDate,2025-08-11T17:01:40-07:00*%
%TF.ProjectId,bellamu,62656c6c-616d-4752-9e6b-696361645f70,rev?*%
%TF.SameCoordinates,Original*%
%TF.FileFunction,Copper,L2,Bot*%
%TF.FilePolarity,Positive*%
%FSLAX46Y46*%
G04 Gerber Fmt 4.6, Leading zero omitted, Abs format (unit mm)*
G04 Created by KiCad (PCBNEW 8.0.8) date 2025-08-11 17:01:40*
%MOMM*%
%LPD*%
G01*
G04 APERTURE LIST*
%TA.AperFunction,ComponentPad*%
%ADD10R,1.700000X1.700000*%
%TD*%
%TA.AperFunction,ComponentPad*%
%ADD11O,1.700000X1.700000*%
%TD*%
%TA.AperFunction,ComponentPad*%
%ADD12C,3.000000*%
%TD*%
%TA.AperFunction,ComponentPad*%
%ADD13C,2.500000*%
%TD*%
%TA.AperFunction,ComponentPad*%
%ADD14C,1.300000*%
%TD*%
%TA.AperFunction,ComponentPad*%
%ADD15R,1.300000X1.300000*%
%TD*%
%TA.AperFunction,ComponentPad*%
%ADD16C,1.440000*%
%TD*%
%TA.AperFunction,ComponentPad*%
%ADD17O,2.413000X1.270000*%
%TD*%
%TA.AperFunction,ComponentPad*%
%ADD18O,2.921000X1.270000*%
%TD*%
%TA.AperFunction,ComponentPad*%
%ADD19C,1.303000*%
%TD*%
%TA.AperFunction,ComponentPad*%
%ADD20C,1.778000*%
%TD*%
%TA.AperFunction,ComponentPad*%
%ADD21C,1.650000*%
%TD*%
%TA.AperFunction,ComponentPad*%
%ADD22R,1.650000X1.650000*%
%TD*%
%TA.AperFunction,ViaPad*%
%ADD23C,0.600000*%
%TD*%
%TA.AperFunction,ViaPad*%
%ADD24C,0.500000*%
%TD*%
%TA.AperFunction,Conductor*%
%ADD25C,0.800000*%
%TD*%
%TA.AperFunction,Conductor*%
%ADD26C,0.400000*%
%TD*%
G04 APERTURE END LIST*
D10*
%TO.P,P6,1,1*%
%TO.N,+3.3V*%
X186190000Y-115145000D03*
D11*
%TO.P,P6,2,2*%
%TO.N,GND*%
X183650000Y-115145000D03*
%TD*%
D10*
%TO.P,P5,1,1*%
%TO.N,+15V*%
X119010000Y-121445000D03*
D11*
%TO.P,P5,2,2*%
X121550000Y-121445000D03*
%TO.P,P5,3,3*%
%TO.N,GND*%
X124090000Y-121445000D03*
%TO.P,P5,4,4*%
X126630000Y-121445000D03*
%TD*%
%TO.P,P4,4,4*%
%TO.N,GND*%
X181970000Y-121145000D03*
%TO.P,P4,3,3*%
X179430000Y-121145000D03*
%TO.P,P4,2,2*%
%TO.N,+5V*%
X176890000Y-121145000D03*
D10*
%TO.P,P4,1,1*%
X174350000Y-121145000D03*
%TD*%
%TO.P,P1,1,1*%
%TO.N,-5V*%
X149850000Y-118605000D03*
D11*
%TO.P,P1,2,2*%
X149850000Y-121145000D03*
%TO.P,P1,3,3*%
%TO.N,GND*%
X149850000Y-123685000D03*
%TO.P,P1,4,4*%
X149850000Y-126225000D03*
%TD*%
D12*
%TO.P,TP5,1,1*%
%TO.N,GND*%
X170650000Y-83845000D03*
%TD*%
%TO.P,TP3,1,1*%
%TO.N,GND*%
X134750000Y-83945000D03*
%TD*%
%TO.P,TP2,1,1*%
%TO.N,GND*%
X101150000Y-83945000D03*
%TD*%
D13*
%TO.P,TP1,1,1*%
%TO.N,/power2/GND_RAW*%
X137925000Y-148270000D03*
%TD*%
D14*
%TO.P,J6,5*%
%TO.N,N/C*%
X86200000Y-73445000D03*
%TO.P,J6,4*%
X81120000Y-73445000D03*
%TO.P,J6,3*%
X81120000Y-68365000D03*
%TO.P,J6,2,Ext*%
%TO.N,GND*%
X86200000Y-68365000D03*
D15*
%TO.P,J6,1,In*%
%TO.N,/ch1/AMP_IN*%
X83660000Y-70905000D03*
%TD*%
%TO.P,J1,1,In*%
%TO.N,/ch0/AMP_IN*%
X83660000Y-100905000D03*
D14*
%TO.P,J1,2,Ext*%
%TO.N,GND*%
X86200000Y-98365000D03*
%TO.P,J1,3*%
%TO.N,N/C*%
X81120000Y-98365000D03*
%TO.P,J1,4*%
X81120000Y-103445000D03*
%TO.P,J1,5*%
X86200000Y-103445000D03*
%TD*%
D16*
%TO.P,RV3,3,3*%
%TO.N,Net-(R27-Pad1)*%
X163510000Y-62405000D03*
%TO.P,RV3,2,2*%
%TO.N,Net-(U10-VN)*%
X166050000Y-64945000D03*
%TO.P,RV3,1,1*%
%TO.N,+5V*%
X168590000Y-62405000D03*
%TD*%
%TO.P,RV2,1,1*%
%TO.N,Net-(R25-Pad2)*%
X142552500Y-73855000D03*
%TO.P,RV2,2,2*%
%TO.N,Net-(U9-VOUT)*%
X140012500Y-76395000D03*
%TO.P,RV2,3,3*%
%TO.N,unconnected-(RV2-Pad3)*%
X137472500Y-73855000D03*
%TD*%
D10*
%TO.P,P3,1,1*%
%TO.N,/jumper1/LEVEL_IN*%
X183400000Y-58600000D03*
D11*
%TO.P,P3,2,2*%
%TO.N,GND*%
X183400000Y-56060000D03*
%TD*%
D14*
%TO.P,J10,5*%
%TO.N,N/C*%
X193520000Y-64780000D03*
%TO.P,J10,4*%
X193520000Y-59700000D03*
%TO.P,J10,3*%
X198600000Y-59700000D03*
%TO.P,J10,2,Ext*%
%TO.N,GND*%
X198600000Y-64780000D03*
D15*
%TO.P,J10,1,In*%
%TO.N,/jumper1/LEVEL_OUT*%
X196060000Y-62240000D03*
%TD*%
%TO.P,J8,1,In*%
%TO.N,Net-(J8-In)*%
X139735700Y-64104998D03*
D14*
%TO.P,J8,2,Ext*%
%TO.N,GND*%
X137195700Y-66644998D03*
%TO.P,J8,3*%
%TO.N,N/C*%
X142275700Y-66644998D03*
%TO.P,J8,4*%
X142275700Y-61564998D03*
%TO.P,J8,5*%
X137195700Y-61564998D03*
%TD*%
D10*
%TO.P,P2,1,1*%
%TO.N,/jumper/LEVEL_IN*%
X186825000Y-97350000D03*
D11*
%TO.P,P2,2,2*%
%TO.N,GND*%
X186825000Y-99890000D03*
%TD*%
D17*
%TO.P,J5,24,SHIELD*%
%TO.N,Net-(C61-Pad2)*%
X195943802Y-73178400D03*
%TO.P,J5,23,SHIELD*%
X195943802Y-89678400D03*
D18*
%TO.P,J5,22,SHIELD*%
X189163744Y-73178400D03*
%TO.P,J5,21,SHIELD*%
X189163744Y-89678400D03*
%TD*%
D16*
%TO.P,RV5,1,1*%
%TO.N,Net-(J9-Pin_2)*%
X94515000Y-127595000D03*
%TO.P,RV5,2,2*%
%TO.N,Net-(J9-Pin_3)*%
X91975000Y-125055000D03*
%TO.P,RV5,3,3*%
%TO.N,Net-(R29-Pad1)*%
X94515000Y-122515000D03*
%TD*%
%TO.P,RV6,3,3*%
%TO.N,Net-(R26-Pad1)*%
X96835000Y-142775000D03*
%TO.P,RV6,2,2*%
%TO.N,Net-(J7-Pin_3)*%
X94295000Y-145315000D03*
%TO.P,RV6,1,1*%
%TO.N,Net-(J7-Pin_2)*%
X96835000Y-147855000D03*
%TD*%
%TO.P,RV4,3,3*%
%TO.N,Net-(R31-Pad1)*%
X167970000Y-110250000D03*
%TO.P,RV4,2,2*%
%TO.N,Net-(U12-VN)*%
X165430000Y-107710000D03*
%TO.P,RV4,1,1*%
%TO.N,+5V*%
X162890000Y-110250000D03*
%TD*%
D19*
%TO.P,U3,8,-VOUT*%
%TO.N,-5V*%
X176820000Y-126800000D03*
%TO.P,U3,7,COMMON*%
%TO.N,GND*%
X176820000Y-129340000D03*
%TO.P,U3,6,+VOUT*%
%TO.N,+5V*%
X176820000Y-131880000D03*
%TO.P,U3,5*%
%TO.N,N/C*%
X176820000Y-134420000D03*
%TO.P,U3,3,REMOTE*%
%TO.N,Net-(U3-REMOTE)*%
X176820000Y-139500000D03*
%TO.P,U3,2,+VIN(VCC)*%
%TO.N,Net-(S2-NO)*%
X176820000Y-142040000D03*
%TO.P,U3,1,-VIN(GND)*%
%TO.N,/power2/GND_RAW*%
X176820000Y-144580000D03*
%TD*%
D20*
%TO.P,S1,5*%
%TO.N,N/C*%
X111410000Y-142895000D03*
%TO.P,S1,4*%
X108870000Y-142895000D03*
%TO.P,S1,3,NC*%
%TO.N,unconnected-(S1-NC-Pad3)*%
X106330000Y-142895000D03*
%TO.P,S1,2,COM*%
%TO.N,Net-(S1-COM)*%
X106330000Y-150515000D03*
%TO.P,S1,1,NO*%
%TO.N,Net-(PS1-+VIN(VCC))*%
X111410000Y-150515000D03*
%TD*%
D14*
%TO.P,J3,5*%
%TO.N,N/C*%
X137682500Y-98500000D03*
%TO.P,J3,4*%
X137682500Y-93420000D03*
%TO.P,J3,3*%
X142762500Y-93420000D03*
%TO.P,J3,2,Ext*%
%TO.N,GND*%
X142762500Y-98500000D03*
D15*
%TO.P,J3,1,In*%
%TO.N,Net-(J3-In)*%
X140222500Y-95960000D03*
%TD*%
D21*
%TO.P,J7,4,Pin_4*%
%TO.N,GND*%
X81620000Y-134980000D03*
%TO.P,J7,3,Pin_3*%
%TO.N,Net-(J7-Pin_3)*%
X81620000Y-137520000D03*
%TO.P,J7,2,Pin_2*%
%TO.N,Net-(J7-Pin_2)*%
X81620000Y-140060000D03*
D22*
%TO.P,J7,1,Pin_1*%
%TO.N,+15V*%
X81620000Y-142600000D03*
%TD*%
D12*
%TO.P,J2,1*%
%TO.N,/power2/VIN_24_RAW*%
X149350000Y-144779925D03*
%TO.P,J2,2*%
%TO.N,/power2/GND_RAW*%
X149350000Y-150779925D03*
%TO.P,J2,3*%
%TO.N,unconnected-(J2-Pad3)*%
X154050000Y-147779925D03*
%TD*%
D20*
%TO.P,S2,5*%
%TO.N,N/C*%
X191520000Y-142885000D03*
%TO.P,S2,4*%
X188980000Y-142885000D03*
%TO.P,S2,3,NC*%
%TO.N,unconnected-(S2-NC-Pad3)*%
X186440000Y-142885000D03*
%TO.P,S2,2,COM*%
%TO.N,Net-(S2-COM)*%
X186440000Y-150505000D03*
%TO.P,S2,1,NO*%
%TO.N,Net-(S2-NO)*%
X191520000Y-150505000D03*
%TD*%
D19*
%TO.P,PS1,1,-VIN(GND)*%
%TO.N,/power2/GND_RAW*%
X121440000Y-144506000D03*
%TO.P,PS1,2,+VIN(VCC)*%
%TO.N,Net-(PS1-+VIN(VCC))*%
X121440000Y-141966000D03*
%TO.P,PS1,3,REMOTE*%
%TO.N,Net-(PS1-REMOTE)*%
X121440000Y-139426000D03*
%TO.P,PS1,5*%
%TO.N,N/C*%
X121440000Y-134346000D03*
%TO.P,PS1,6,+VOUT*%
%TO.N,+15V*%
X121440000Y-131806000D03*
%TO.P,PS1,7,-VOUT*%
%TO.N,GND*%
X121440000Y-129266000D03*
%TO.P,PS1,8,NC*%
%TO.N,unconnected-(PS1-NC-Pad8)*%
X121440000Y-126726000D03*
%TD*%
D16*
%TO.P,RV1,3,3*%
%TO.N,unconnected-(RV1-Pad3)*%
X137482500Y-104120000D03*
%TO.P,RV1,2,2*%
%TO.N,Net-(U6-VOUT)*%
X140022500Y-106660000D03*
%TO.P,RV1,1,1*%
%TO.N,Net-(R10-Pad2)*%
X142562500Y-104120000D03*
%TD*%
D22*
%TO.P,J9,1,Pin_1*%
%TO.N,+15V*%
X80930000Y-124401000D03*
D21*
%TO.P,J9,2,Pin_2*%
%TO.N,Net-(J9-Pin_2)*%
X80930000Y-121861000D03*
%TO.P,J9,3,Pin_3*%
%TO.N,Net-(J9-Pin_3)*%
X80930000Y-119321000D03*
%TO.P,J9,4,Pin_4*%
%TO.N,GND*%
X80930000Y-116781000D03*
%TD*%
D14*
%TO.P,J4,5*%
%TO.N,N/C*%
X193520000Y-100120000D03*
%TO.P,J4,4*%
X198600000Y-100120000D03*
%TO.P,J4,3*%
X198600000Y-105200000D03*
%TO.P,J4,2,Ext*%
%TO.N,GND*%
X193520000Y-105200000D03*
D15*
%TO.P,J4,1,In*%
%TO.N,/jumper/LEVEL_OUT*%
X196060000Y-102660000D03*
%TD*%
D23*
%TO.N,GND*%
X172400000Y-58600000D03*
X183000000Y-101999994D03*
%TO.N,+5V*%
X170805321Y-66345010D03*
%TO.N,/power2/GND_RAW*%
X135650000Y-129545000D03*
X164150000Y-129345000D03*
%TO.N,GND*%
X196850002Y-69200000D03*
%TO.N,Net-(C61-Pad2)*%
X193650000Y-72845000D03*
%TO.N,GND*%
X152850000Y-126345006D03*
X146460000Y-126344992D03*
X150320000Y-69255000D03*
X91625000Y-66095000D03*
X91825000Y-96295000D03*
D24*
X184249996Y-79345000D03*
X184291589Y-81028399D03*
D23*
%TO.N,+3.3V*%
X178225000Y-86200002D03*
X182725000Y-86195000D03*
%TO.N,+5V*%
X159750000Y-75145000D03*
X160150000Y-62845000D03*
X159350000Y-63545000D03*
X160950000Y-63545000D03*
X160150000Y-64245000D03*
X161225000Y-82595000D03*
X159425000Y-82595000D03*
X160325002Y-81695000D03*
%TO.N,GND*%
X175225000Y-79495000D03*
X175225000Y-77395000D03*
X179125000Y-75895000D03*
X184100000Y-68275000D03*
X179225000Y-69895000D03*
X172425000Y-69195000D03*
X167050002Y-58944995D03*
X147170000Y-62555000D03*
X147270000Y-60355000D03*
X131525000Y-77895000D03*
X128214986Y-77230000D03*
X128114996Y-75230000D03*
X100915000Y-64130000D03*
X105915000Y-64915000D03*
X105815000Y-66815000D03*
X103515000Y-64330000D03*
X99115000Y-74940000D03*
X99215000Y-77140000D03*
X112615002Y-77330000D03*
X112515000Y-74930000D03*
X121240002Y-65245000D03*
X121340002Y-67045000D03*
X117715000Y-79630000D03*
X91745000Y-75670000D03*
X92715000Y-64730000D03*
X92715000Y-66630000D03*
%TO.N,+5V*%
X160325000Y-106895000D03*
X160325000Y-108195000D03*
X161125000Y-107595000D03*
X160225000Y-93895000D03*
X159325000Y-94495000D03*
X161125000Y-94495000D03*
%TO.N,GND*%
X92725000Y-96895000D03*
X92725000Y-94995000D03*
X91755000Y-105935000D03*
X178884998Y-65199997D03*
X156195000Y-62304996D03*
X172831023Y-65295351D03*
X155445001Y-71814999D03*
X150564978Y-99555000D03*
X149250000Y-99945000D03*
X174059691Y-104352809D03*
X194250000Y-111500000D03*
X173035003Y-113545000D03*
X183929693Y-106592807D03*
%TO.N,+5V*%
X160224998Y-95395000D03*
X159999979Y-99380005D03*
X159625000Y-107495000D03*
%TO.N,GND*%
X149250000Y-111945000D03*
X179125000Y-94525000D03*
X174927500Y-97995000D03*
X174927500Y-95945000D03*
X182389691Y-104342809D03*
X156290000Y-109895000D03*
X156340000Y-111995000D03*
X155425000Y-99555000D03*
X152760007Y-102395405D03*
X131525000Y-108395000D03*
X117725000Y-109895000D03*
X128225000Y-107495000D03*
X128125000Y-105495000D03*
X121340002Y-97745000D03*
X121240002Y-95945000D03*
X112525000Y-105195000D03*
X112625002Y-107595000D03*
X99225000Y-107405000D03*
X99125000Y-105205000D03*
X103525000Y-94595000D03*
X105825000Y-97080000D03*
X105925000Y-95180000D03*
X100925000Y-94395000D03*
X135680075Y-122675000D03*
X109705000Y-125546000D03*
X94745000Y-115345000D03*
X89307516Y-115237500D03*
X94198149Y-133672506D03*
X99835745Y-133835004D03*
%TO.N,/power2/GND_RAW*%
X165235000Y-144745000D03*
X134180077Y-144210075D03*
%TO.N,GND*%
X154270000Y-73555000D03*
X169744690Y-105512810D03*
%TD*%
D25*
%TO.N,+3.3V*%
X178274998Y-86250000D02*
X178225000Y-86200002D01*
X182800000Y-86250000D02*
X178274998Y-86250000D01*
D26*
%TO.N,+5V*%
X170805321Y-66345010D02*
X169400331Y-67750000D01*
X169400331Y-67750000D02*
X160000000Y-67750000D01*
%TD*%
%TA.AperFunction,Conductor*%
%TO.N,+5V*%
G36*
X161700641Y-92418164D02*
G01*
X161769882Y-92473383D01*
X161808309Y-92553175D01*
X161813298Y-92597768D01*
X161787323Y-109204334D01*
X161767481Y-109290646D01*
X161712154Y-109359801D01*
X161632301Y-109398103D01*
X161587999Y-109403023D01*
X158985688Y-109398780D01*
X158899377Y-109378932D01*
X158830225Y-109323601D01*
X158791929Y-109243745D01*
X158787012Y-109199780D01*
X158787012Y-92597457D01*
X158806719Y-92511114D01*
X158861938Y-92441873D01*
X158941730Y-92403446D01*
X158986012Y-92398457D01*
X161614298Y-92398457D01*
X161700641Y-92418164D01*
G37*
%TD.AperFunction*%
%TD*%
%TA.AperFunction,Conductor*%
%TO.N,GND*%
G36*
X201342539Y-49720185D02*
G01*
X201388294Y-49772989D01*
X201399500Y-49824500D01*
X201399500Y-69828165D01*
X201379815Y-69895204D01*
X201327011Y-69940959D01*
X201261618Y-69951385D01*
X201200508Y-69944500D01*
X201200500Y-69944500D01*
X184454513Y-69944500D01*
X184451016Y-69944563D01*
X184430829Y-69944927D01*
X184416475Y-69945447D01*
X184410471Y-69945690D01*
X184248559Y-69973644D01*
X184248555Y-69973645D01*
X184163862Y-69999530D01*
X184163841Y-69999538D01*
X184044606Y-70049299D01*
X184044599Y-70049302D01*
X183910844Y-70144741D01*
X183845773Y-70204807D01*
X183845767Y-70204814D01*
X183759908Y-70301405D01*
X183680815Y-70445418D01*
X183648246Y-70527775D01*
X183612799Y-70652054D01*
X183604021Y-70816123D01*
X183604021Y-70816132D01*
X183610411Y-70904462D01*
X183610411Y-70904468D01*
X183632396Y-71031810D01*
X183632397Y-71031813D01*
X183632398Y-71031817D01*
X183667323Y-71115503D01*
X183695679Y-71183450D01*
X183695681Y-71183453D01*
X183739764Y-71260263D01*
X183826622Y-71378589D01*
X185663935Y-73369012D01*
X192605657Y-80889211D01*
X192636664Y-80951823D01*
X192628898Y-81021259D01*
X192601414Y-81061799D01*
X192260020Y-81396987D01*
X184560356Y-88956658D01*
X182483019Y-90996224D01*
X182457765Y-91022435D01*
X182442904Y-91038741D01*
X182430470Y-91052785D01*
X182430466Y-91052790D01*
X182370402Y-91143518D01*
X182339761Y-91189803D01*
X182300518Y-91269189D01*
X182254945Y-91390125D01*
X182232674Y-91552908D01*
X182232673Y-91552918D01*
X182231760Y-91641468D01*
X182243173Y-91770205D01*
X182291159Y-91918560D01*
X182293741Y-91926543D01*
X182309851Y-91960896D01*
X182331338Y-92006719D01*
X182331341Y-92006724D01*
X182331343Y-92006728D01*
X182397476Y-92117752D01*
X182510867Y-92236668D01*
X182579535Y-92292597D01*
X182579544Y-92292603D01*
X182579553Y-92292610D01*
X182687294Y-92363934D01*
X182687299Y-92363937D01*
X182687303Y-92363938D01*
X182687306Y-92363940D01*
X182742399Y-92384700D01*
X182841056Y-92421876D01*
X182841065Y-92421878D01*
X182841071Y-92421880D01*
X182889199Y-92433387D01*
X182927192Y-92442472D01*
X182927197Y-92442472D01*
X182927199Y-92442473D01*
X182945117Y-92444678D01*
X183072875Y-92460409D01*
X188071169Y-92511937D01*
X201191671Y-92647201D01*
X201191676Y-92647200D01*
X201191692Y-92647201D01*
X201268473Y-92643485D01*
X201268491Y-92643483D01*
X201269504Y-92643434D01*
X201337417Y-92659854D01*
X201385672Y-92710384D01*
X201399500Y-92767289D01*
X201399500Y-153575500D01*
X201379815Y-153642539D01*
X201327011Y-153688294D01*
X201275500Y-153699500D01*
X194152010Y-153699500D01*
X194084971Y-153679815D01*
X194039216Y-153627011D01*
X194028656Y-153562862D01*
X194035928Y-153491878D01*
X194035929Y-153491869D01*
X194011634Y-151086791D01*
X194011308Y-151071715D01*
X194011005Y-151062566D01*
X193985744Y-150902794D01*
X193961226Y-150817692D01*
X193961223Y-150817686D01*
X193961221Y-150817678D01*
X193913384Y-150697645D01*
X193913383Y-150697642D01*
X193820112Y-150562368D01*
X193820108Y-150562363D01*
X193817701Y-150559302D01*
X193818969Y-150558304D01*
X193791807Y-150501144D01*
X193800697Y-150431842D01*
X193816536Y-150405306D01*
X193841699Y-150373092D01*
X193910824Y-150263896D01*
X193965614Y-150108988D01*
X193984448Y-150022450D01*
X193999409Y-149876430D01*
X193991383Y-149081902D01*
X196099500Y-149081902D01*
X196099500Y-149318097D01*
X196136446Y-149551368D01*
X196209433Y-149775996D01*
X196316657Y-149986433D01*
X196455483Y-150177510D01*
X196622490Y-150344517D01*
X196813567Y-150483343D01*
X196912991Y-150534002D01*
X197024003Y-150590566D01*
X197024005Y-150590566D01*
X197024008Y-150590568D01*
X197144412Y-150629689D01*
X197248631Y-150663553D01*
X197481903Y-150700500D01*
X197481908Y-150700500D01*
X197718097Y-150700500D01*
X197951368Y-150663553D01*
X198175992Y-150590568D01*
X198386433Y-150483343D01*
X198577510Y-150344517D01*
X198744517Y-150177510D01*
X198883343Y-149986433D01*
X198990568Y-149775992D01*
X199063553Y-149551368D01*
X199100500Y-149318097D01*
X199100500Y-149081902D01*
X199063553Y-148848631D01*
X198990566Y-148624003D01*
X198900580Y-148447397D01*
X198883343Y-148413567D01*
X198744517Y-148222490D01*
X198577510Y-148055483D01*
X198386433Y-147916657D01*
X198175996Y-147809433D01*
X197951368Y-147736446D01*
X197718097Y-147699500D01*
X197718092Y-147699500D01*
X197481908Y-147699500D01*
X197481903Y-147699500D01*
X197248631Y-147736446D01*
X197024003Y-147809433D01*
X196813566Y-147916657D01*
X196704550Y-147995862D01*
X196622490Y-148055483D01*
X196622488Y-148055485D01*
X196622487Y-148055485D01*
X196455485Y-148222487D01*
X196455485Y-148222488D01*
X196455483Y-148222490D01*
X196430686Y-148256620D01*
X196316657Y-148413566D01*
X196209433Y-148624003D01*
X196136446Y-148848631D01*
X196099500Y-149081902D01*
X193991383Y-149081902D01*
X193936497Y-143648188D01*
X193936169Y-143633064D01*
X193935865Y-143623905D01*
X193935865Y-143623901D01*
X193910598Y-143464153D01*
X193910598Y-143464151D01*
X193886076Y-143379050D01*
X193881431Y-143367397D01*
X193867205Y-143331706D01*
X193838224Y-143258997D01*
X193754472Y-143137543D01*
X193744952Y-143123737D01*
X193744948Y-143123732D01*
X193744946Y-143123729D01*
X193718690Y-143094352D01*
X193685936Y-143057704D01*
X193685933Y-143057701D01*
X193685928Y-143057696D01*
X193590733Y-142970301D01*
X193590729Y-142970298D01*
X193590725Y-142970295D01*
X193585106Y-142966193D01*
X193585868Y-142965148D01*
X193542474Y-142920120D01*
X193528887Y-142851584D01*
X193554509Y-142786582D01*
X193586770Y-142757497D01*
X193591774Y-142754377D01*
X193708351Y-142638583D01*
X193762867Y-142568788D01*
X193831992Y-142459592D01*
X193886782Y-142304684D01*
X193905616Y-142218146D01*
X193920577Y-142072126D01*
X193855623Y-135641534D01*
X193855623Y-135641532D01*
X193851569Y-135240312D01*
X193847103Y-135170269D01*
X193842125Y-135127999D01*
X193833883Y-135076054D01*
X193781706Y-134920247D01*
X193743279Y-134840455D01*
X193676010Y-134730128D01*
X193561400Y-134612387D01*
X193492159Y-134557168D01*
X193465474Y-134539895D01*
X193383665Y-134486940D01*
X193383663Y-134486939D01*
X193229320Y-134430588D01*
X193229314Y-134430587D01*
X193142977Y-134410881D01*
X193142959Y-134410878D01*
X192997119Y-134394447D01*
X192997113Y-134394447D01*
X180465464Y-134394447D01*
X180398425Y-134374762D01*
X180388464Y-134367643D01*
X178651610Y-132991681D01*
X178633050Y-132977509D01*
X178621486Y-132969002D01*
X178616857Y-132965629D01*
X178616854Y-132965627D01*
X178616851Y-132965625D01*
X178616848Y-132965623D01*
X178472626Y-132886893D01*
X178411733Y-132862992D01*
X178390183Y-132854534D01*
X178265826Y-132819407D01*
X178101734Y-132811047D01*
X178013405Y-132817663D01*
X177886113Y-132839973D01*
X177886112Y-132839974D01*
X177734646Y-132903639D01*
X177734635Y-132903645D01*
X177657938Y-132947923D01*
X177657933Y-132947927D01*
X177552942Y-133023245D01*
X177552940Y-133023247D01*
X177444091Y-133146331D01*
X177394197Y-133219506D01*
X177332270Y-133332944D01*
X177329396Y-133343118D01*
X177292228Y-133402281D01*
X177228973Y-133431958D01*
X177174071Y-133428069D01*
X177026226Y-133383221D01*
X176973719Y-133378050D01*
X176908932Y-133351889D01*
X176868574Y-133294854D01*
X176863340Y-133246509D01*
X176862165Y-133246435D01*
X176870537Y-133114406D01*
X176870537Y-133114405D01*
X176870537Y-133114404D01*
X176862563Y-133065326D01*
X176871241Y-132996001D01*
X176916023Y-132942369D01*
X176972804Y-132922039D01*
X177026228Y-132916778D01*
X177224531Y-132856624D01*
X177407288Y-132758938D01*
X177567476Y-132627476D01*
X177698938Y-132467288D01*
X177796624Y-132284531D01*
X177856778Y-132086228D01*
X177877090Y-131880000D01*
X177856778Y-131673772D01*
X177796624Y-131475469D01*
X177796622Y-131475466D01*
X177796622Y-131475464D01*
X177698941Y-131292717D01*
X177698937Y-131292711D01*
X177567476Y-131132523D01*
X177407288Y-131001062D01*
X177407282Y-131001058D01*
X177224535Y-130903377D01*
X177125379Y-130873299D01*
X177026228Y-130843222D01*
X177026226Y-130843221D01*
X177026228Y-130843221D01*
X176820000Y-130822910D01*
X176613773Y-130843221D01*
X176415464Y-130903377D01*
X176232715Y-131001059D01*
X176227655Y-131004441D01*
X176226762Y-131003105D01*
X176169611Y-131027368D01*
X176100746Y-131015565D01*
X176058580Y-130981824D01*
X176006947Y-130917504D01*
X175932184Y-130843221D01*
X175902827Y-130814052D01*
X175902822Y-130814048D01*
X175902820Y-130814046D01*
X174521825Y-129720000D01*
X174042158Y-129340000D01*
X175913534Y-129340000D01*
X175933343Y-129528468D01*
X175991900Y-129708690D01*
X176028576Y-129772213D01*
X176440000Y-129360789D01*
X176440000Y-129390028D01*
X176465896Y-129486675D01*
X176515924Y-129573325D01*
X176586675Y-129644076D01*
X176673325Y-129694104D01*
X176769972Y-129720000D01*
X176799210Y-129720000D01*
X176385738Y-130133469D01*
X176539888Y-130202100D01*
X176725249Y-130241500D01*
X176914751Y-130241500D01*
X177100110Y-130202100D01*
X177254260Y-130133469D01*
X176840791Y-129720000D01*
X176870028Y-129720000D01*
X176966675Y-129694104D01*
X177053325Y-129644076D01*
X177124076Y-129573325D01*
X177174104Y-129486675D01*
X177200000Y-129390028D01*
X177200000Y-129360790D01*
X177611422Y-129772212D01*
X177648098Y-129708691D01*
X177706656Y-129528468D01*
X177726465Y-129340000D01*
X177706656Y-129151531D01*
X177648098Y-128971306D01*
X177611423Y-128907786D01*
X177611423Y-128907785D01*
X177200000Y-129319208D01*
X177200000Y-129289972D01*
X177174104Y-129193325D01*
X177124076Y-129106675D01*
X177053325Y-129035924D01*
X176966675Y-128985896D01*
X176870028Y-128960000D01*
X176840791Y-128960000D01*
X177254260Y-128546529D01*
X177100116Y-128477901D01*
X177100111Y-128477899D01*
X176914751Y-128438500D01*
X176725249Y-128438500D01*
X176539888Y-128477899D01*
X176539883Y-128477901D01*
X176385738Y-128546529D01*
X176799210Y-128960000D01*
X176769972Y-128960000D01*
X176673325Y-128985896D01*
X176586675Y-129035924D01*
X176515924Y-129106675D01*
X176465896Y-129193325D01*
X176440000Y-129289972D01*
X176440000Y-129319209D01*
X176028576Y-128907785D01*
X175991902Y-128971306D01*
X175991899Y-128971313D01*
X175933343Y-129151531D01*
X175913534Y-129340000D01*
X174042158Y-129340000D01*
X172261580Y-127929398D01*
X172201664Y-127887160D01*
X172163972Y-127863628D01*
X172115551Y-127836184D01*
X171968963Y-127783090D01*
X171961059Y-127780227D01*
X171961051Y-127780225D01*
X171961044Y-127780223D01*
X171874675Y-127760742D01*
X171874653Y-127760738D01*
X171728781Y-127744681D01*
X171728767Y-127744680D01*
X171728763Y-127744680D01*
X162004740Y-127769570D01*
X132832661Y-127844243D01*
X132728992Y-127852765D01*
X132728980Y-127852766D01*
X132705409Y-127856604D01*
X132666832Y-127862887D01*
X132582625Y-127882374D01*
X132432542Y-127949228D01*
X132432524Y-127949237D01*
X132356795Y-127995120D01*
X132240545Y-128084772D01*
X125964878Y-134159543D01*
X125903018Y-134192026D01*
X125878634Y-134194447D01*
X122768380Y-134194447D01*
X122725777Y-134196973D01*
X122690912Y-134199040D01*
X122644254Y-134204592D01*
X122644231Y-134204595D01*
X122610853Y-134210125D01*
X122541498Y-134201661D01*
X122487729Y-134157044D01*
X122471930Y-134123793D01*
X122416624Y-133941469D01*
X122318938Y-133758712D01*
X122295362Y-133729985D01*
X122187476Y-133598523D01*
X122027288Y-133467062D01*
X122027282Y-133467058D01*
X121844535Y-133369377D01*
X121717302Y-133330782D01*
X121646228Y-133309222D01*
X121646226Y-133309221D01*
X121646228Y-133309221D01*
X121440000Y-133288910D01*
X121233773Y-133309221D01*
X121035464Y-133369377D01*
X120852717Y-133467058D01*
X120852711Y-133467062D01*
X120692523Y-133598523D01*
X120561062Y-133758711D01*
X120561058Y-133758717D01*
X120463376Y-133941467D01*
X120407165Y-134126769D01*
X120368868Y-134185207D01*
X120305056Y-134213664D01*
X120260921Y-134211666D01*
X120257485Y-134210882D01*
X120257481Y-134210881D01*
X120257479Y-134210880D01*
X120257466Y-134210878D01*
X120111626Y-134194447D01*
X120111620Y-134194447D01*
X100989094Y-134194447D01*
X100952387Y-134196320D01*
X100922345Y-134197853D01*
X100882038Y-134201979D01*
X100833319Y-134208821D01*
X100676481Y-134257807D01*
X100595922Y-134294596D01*
X100484227Y-134359610D01*
X100364181Y-134471787D01*
X100364172Y-134471796D01*
X100307562Y-134539884D01*
X100235134Y-134646926D01*
X100175643Y-134800094D01*
X100154178Y-134886018D01*
X100134771Y-135031508D01*
X100134770Y-135031514D01*
X100045360Y-139412624D01*
X100045087Y-139425999D01*
X99993250Y-141966000D01*
X99974564Y-142881624D01*
X99974291Y-142894999D01*
X99963506Y-143423462D01*
X99935823Y-144779924D01*
X99874598Y-147779924D01*
X99864870Y-148256620D01*
X99819054Y-150501624D01*
X99818781Y-150514999D01*
X99780309Y-152400147D01*
X99758207Y-153483052D01*
X99759654Y-153518497D01*
X99761479Y-153563184D01*
X99761479Y-153563193D01*
X99761480Y-153563194D01*
X99761616Y-153565100D01*
X99761034Y-153565141D01*
X99748676Y-153631598D01*
X99700792Y-153682479D01*
X99638091Y-153699500D01*
X77524500Y-153699500D01*
X77457461Y-153679815D01*
X77411706Y-153627011D01*
X77400500Y-153575500D01*
X77400500Y-149081902D01*
X81099500Y-149081902D01*
X81099500Y-149318097D01*
X81136446Y-149551368D01*
X81209433Y-149775996D01*
X81316657Y-149986433D01*
X81455483Y-150177510D01*
X81622490Y-150344517D01*
X81813567Y-150483343D01*
X81912991Y-150534002D01*
X82024003Y-150590566D01*
X82024005Y-150590566D01*
X82024008Y-150590568D01*
X82144412Y-150629689D01*
X82248631Y-150663553D01*
X82481903Y-150700500D01*
X82481908Y-150700500D01*
X82718097Y-150700500D01*
X82951368Y-150663553D01*
X83175992Y-150590568D01*
X83386433Y-150483343D01*
X83577510Y-150344517D01*
X83744517Y-150177510D01*
X83883343Y-149986433D01*
X83990568Y-149775992D01*
X84063553Y-149551368D01*
X84100500Y-149318097D01*
X84100500Y-149081902D01*
X84063553Y-148848631D01*
X83990566Y-148624003D01*
X83900580Y-148447397D01*
X83883343Y-148413567D01*
X83744517Y-148222490D01*
X83577510Y-148055483D01*
X83386433Y-147916657D01*
X83265423Y-147854999D01*
X95709700Y-147854999D01*
X95709700Y-147855000D01*
X95728859Y-148061772D01*
X95785688Y-148261502D01*
X95785693Y-148261515D01*
X95878252Y-148447397D01*
X96003390Y-148613107D01*
X96003392Y-148613110D01*
X96156850Y-148753005D01*
X96156852Y-148753006D01*
X96156855Y-148753009D01*
X96256609Y-148814774D01*
X96333407Y-148862325D01*
X96333409Y-148862326D01*
X96333411Y-148862327D01*
X96527047Y-148937342D01*
X96731170Y-148975500D01*
X96731172Y-148975500D01*
X96938828Y-148975500D01*
X96938830Y-148975500D01*
X97142953Y-148937342D01*
X97336589Y-148862327D01*
X97513145Y-148753009D01*
X97666607Y-148613110D01*
X97791749Y-148447394D01*
X97884311Y-148261505D01*
X97941140Y-148061773D01*
X97960300Y-147855000D01*
X97941140Y-147648227D01*
X97884311Y-147448495D01*
X97791749Y-147262606D01*
X97791748Y-147262605D01*
X97791747Y-147262602D01*
X97666609Y-147096892D01*
X97666607Y-147096889D01*
X97513149Y-146956994D01*
X97513143Y-146956990D01*
X97336592Y-146847674D01*
X97336583Y-146847670D01*
X97246389Y-146812729D01*
X97142953Y-146772658D01*
X96938830Y-146734500D01*
X96731170Y-146734500D01*
X96527047Y-146772658D01*
X96333416Y-146847670D01*
X96333407Y-146847674D01*
X96156856Y-146956990D01*
X96156850Y-146956994D01*
X96003392Y-147096889D01*
X96003390Y-147096892D01*
X95878252Y-147262602D01*
X95785693Y-147448484D01*
X95785688Y-147448497D01*
X95728859Y-147648227D01*
X95709700Y-147854999D01*
X83265423Y-147854999D01*
X83175996Y-147809433D01*
X82951368Y-147736446D01*
X82718097Y-147699500D01*
X82718092Y-147699500D01*
X82481908Y-147699500D01*
X82481903Y-147699500D01*
X82248631Y-147736446D01*
X82024003Y-147809433D01*
X81813566Y-147916657D01*
X81704550Y-147995862D01*
X81622490Y-148055483D01*
X81622488Y-148055485D01*
X81622487Y-148055485D01*
X81455485Y-148222487D01*
X81455485Y-148222488D01*
X81455483Y-148222490D01*
X81430686Y-148256620D01*
X81316657Y-148413566D01*
X81209433Y-148624003D01*
X81136446Y-148848631D01*
X81099500Y-149081902D01*
X77400500Y-149081902D01*
X77400500Y-145314999D01*
X93169700Y-145314999D01*
X93169700Y-145315000D01*
X93188859Y-145521772D01*
X93245688Y-145721502D01*
X93245693Y-145721515D01*
X93338252Y-145907397D01*
X93463390Y-146073107D01*
X93463392Y-146073110D01*
X93616850Y-146213005D01*
X93616852Y-146213006D01*
X93616855Y-146213009D01*
X93716609Y-146274774D01*
X93793407Y-146322325D01*
X93793409Y-146322326D01*
X93793411Y-146322327D01*
X93987047Y-146397342D01*
X94191170Y-146435500D01*
X94191172Y-146435500D01*
X94398828Y-146435500D01*
X94398830Y-146435500D01*
X94602953Y-146397342D01*
X94796589Y-146322327D01*
X94973145Y-146213009D01*
X95126607Y-146073110D01*
X95251749Y-145907394D01*
X95344311Y-145721505D01*
X95401140Y-145521773D01*
X95420300Y-145315000D01*
X95401140Y-145108227D01*
X95344311Y-144908495D01*
X95251749Y-144722606D01*
X95251748Y-144722605D01*
X95251747Y-144722602D01*
X95126609Y-144556892D01*
X95126607Y-144556889D01*
X94973149Y-144416994D01*
X94973143Y-144416990D01*
X94796592Y-144307674D01*
X94796583Y-144307670D01*
X94706389Y-144272729D01*
X94602953Y-144232658D01*
X94398830Y-144194500D01*
X94191170Y-144194500D01*
X93987047Y-144232658D01*
X93793416Y-144307670D01*
X93793407Y-144307674D01*
X93616856Y-144416990D01*
X93616850Y-144416994D01*
X93463392Y-144556889D01*
X93463390Y-144556892D01*
X93338252Y-144722602D01*
X93245693Y-144908484D01*
X93245688Y-144908497D01*
X93188859Y-145108227D01*
X93169700Y-145314999D01*
X77400500Y-145314999D01*
X77400500Y-137519998D01*
X80389819Y-137519998D01*
X80389819Y-137520001D01*
X80408507Y-137733613D01*
X80408509Y-137733624D01*
X80464005Y-137940739D01*
X80464007Y-137940743D01*
X80464008Y-137940747D01*
X80509320Y-138037919D01*
X80554631Y-138135090D01*
X80677627Y-138310745D01*
X80829254Y-138462372D01*
X81004909Y-138585368D01*
X81202740Y-138677618D01*
X81255179Y-138723790D01*
X81274331Y-138790984D01*
X81254115Y-138857865D01*
X81202740Y-138902382D01*
X81004910Y-138994631D01*
X81004908Y-138994632D01*
X80829259Y-139117623D01*
X80829253Y-139117628D01*
X80677628Y-139269253D01*
X80677623Y-139269259D01*
X80554632Y-139444908D01*
X80554631Y-139444910D01*
X80464009Y-139639251D01*
X80464005Y-139639260D01*
X80408509Y-139846375D01*
X80408507Y-139846386D01*
X80389819Y-140059998D01*
X80389819Y-140060001D01*
X80408507Y-140273613D01*
X80408509Y-140273624D01*
X80464005Y-140480739D01*
X80464007Y-140480743D01*
X80464008Y-140480747D01*
X80509320Y-140577919D01*
X80554631Y-140675090D01*
X80554632Y-140675091D01*
X80677627Y-140850745D01*
X80829255Y-141002373D01*
X81004909Y-141125368D01*
X81032252Y-141138118D01*
X81084691Y-141184289D01*
X81103844Y-141251482D01*
X81083629Y-141318364D01*
X81030464Y-141363699D01*
X80979849Y-141374500D01*
X80763482Y-141374500D01*
X80682519Y-141387323D01*
X80669696Y-141389354D01*
X80556658Y-141446950D01*
X80556657Y-141446951D01*
X80556652Y-141446954D01*
X80466954Y-141536652D01*
X80466951Y-141536657D01*
X80409352Y-141649698D01*
X80394500Y-141743475D01*
X80394500Y-143456517D01*
X80405292Y-143524657D01*
X80409354Y-143550304D01*
X80466950Y-143663342D01*
X80466952Y-143663344D01*
X80466954Y-143663347D01*
X80556652Y-143753045D01*
X80556654Y-143753046D01*
X80556658Y-143753050D01*
X80669694Y-143810645D01*
X80669698Y-143810647D01*
X80763475Y-143825499D01*
X80763481Y-143825500D01*
X82476518Y-143825499D01*
X82570304Y-143810646D01*
X82683342Y-143753050D01*
X82773050Y-143663342D01*
X82830646Y-143550304D01*
X82830646Y-143550302D01*
X82830647Y-143550301D01*
X82845499Y-143456524D01*
X82845500Y-143456519D01*
X82845500Y-142774999D01*
X95709700Y-142774999D01*
X95709700Y-142775000D01*
X95728859Y-142981772D01*
X95785688Y-143181502D01*
X95785693Y-143181515D01*
X95878252Y-143367397D01*
X96003390Y-143533107D01*
X96003392Y-143533110D01*
X96156850Y-143673005D01*
X96156852Y-143673006D01*
X96156855Y-143673009D01*
X96256609Y-143734774D01*
X96333407Y-143782325D01*
X96333409Y-143782326D01*
X96333411Y-143782327D01*
X96527047Y-143857342D01*
X96731170Y-143895500D01*
X96731172Y-143895500D01*
X96938828Y-143895500D01*
X96938830Y-143895500D01*
X97142953Y-143857342D01*
X97336589Y-143782327D01*
X97513145Y-143673009D01*
X97666607Y-143533110D01*
X97782947Y-143379050D01*
X97791747Y-143367397D01*
X97791747Y-143367395D01*
X97791749Y-143367394D01*
X97884311Y-143181505D01*
X97941140Y-142981773D01*
X97960300Y-142775000D01*
X97941140Y-142568227D01*
X97884311Y-142368495D01*
X97852539Y-142304689D01*
X97791747Y-142182602D01*
X97666609Y-142016892D01*
X97666607Y-142016889D01*
X97513149Y-141876994D01*
X97513143Y-141876990D01*
X97336592Y-141767674D01*
X97336583Y-141767670D01*
X97246389Y-141732729D01*
X97142953Y-141692658D01*
X96938830Y-141654500D01*
X96731170Y-141654500D01*
X96527047Y-141692658D01*
X96333416Y-141767670D01*
X96333407Y-141767674D01*
X96156856Y-141876990D01*
X96156850Y-141876994D01*
X96003392Y-142016889D01*
X96003390Y-142016892D01*
X95878252Y-142182602D01*
X95785693Y-142368484D01*
X95785688Y-142368497D01*
X95728859Y-142568227D01*
X95709700Y-142774999D01*
X82845500Y-142774999D01*
X82845499Y-141743482D01*
X82830646Y-141649696D01*
X82773050Y-141536658D01*
X82773046Y-141536654D01*
X82773045Y-141536652D01*
X82683347Y-141446954D01*
X82683344Y-141446952D01*
X82683342Y-141446950D01*
X82606517Y-141407805D01*
X82570301Y-141389352D01*
X82476524Y-141374500D01*
X82260152Y-141374500D01*
X82193113Y-141354815D01*
X82147358Y-141302011D01*
X82137414Y-141232853D01*
X82166439Y-141169297D01*
X82207746Y-141138119D01*
X82235091Y-141125368D01*
X82410745Y-141002373D01*
X82562373Y-140850745D01*
X82685368Y-140675091D01*
X82775992Y-140480747D01*
X82831492Y-140273619D01*
X82850181Y-140060000D01*
X82831492Y-139846381D01*
X82775992Y-139639253D01*
X82685368Y-139444910D01*
X82672126Y-139425999D01*
X82562376Y-139269259D01*
X82562371Y-139269253D01*
X82410745Y-139117627D01*
X82410739Y-139117623D01*
X82235091Y-138994632D01*
X82040747Y-138904008D01*
X82040744Y-138904007D01*
X82037259Y-138902382D01*
X81984820Y-138856210D01*
X81965668Y-138789016D01*
X81985884Y-138722135D01*
X82037259Y-138677618D01*
X82040744Y-138675992D01*
X82040747Y-138675992D01*
X82235091Y-138585368D01*
X82410745Y-138462373D01*
X82562373Y-138310745D01*
X82685368Y-138135091D01*
X82775992Y-137940747D01*
X82831492Y-137733619D01*
X82850181Y-137520000D01*
X82831492Y-137306381D01*
X82775992Y-137099253D01*
X82685368Y-136904910D01*
X82562373Y-136729255D01*
X82410745Y-136577627D01*
X82235091Y-136454632D01*
X82235092Y-136454632D01*
X82235090Y-136454631D01*
X82137919Y-136409320D01*
X82040747Y-136364008D01*
X82040743Y-136364007D01*
X82040739Y-136364005D01*
X81833624Y-136308509D01*
X81833614Y-136308507D01*
X81734632Y-136299847D01*
X81669563Y-136274394D01*
X81628585Y-136217803D01*
X81624707Y-136148041D01*
X81659162Y-136087257D01*
X81721009Y-136054750D01*
X81722655Y-136054430D01*
X81915445Y-136018391D01*
X81915446Y-136018391D01*
X82101226Y-135946419D01*
X82179032Y-135898243D01*
X82179032Y-135898242D01*
X81785773Y-135504982D01*
X81832292Y-135492518D01*
X81957708Y-135420110D01*
X82060110Y-135317708D01*
X82132518Y-135192292D01*
X82144982Y-135145772D01*
X82541105Y-135541895D01*
X82541106Y-135541895D01*
X82626700Y-135369999D01*
X82626703Y-135369993D01*
X82681222Y-135178378D01*
X82681223Y-135178376D01*
X82699605Y-134980000D01*
X82699605Y-134979999D01*
X82681223Y-134781623D01*
X82681222Y-134781621D01*
X82626703Y-134590006D01*
X82626697Y-134589991D01*
X82541106Y-134418103D01*
X82541105Y-134418103D01*
X82144982Y-134814226D01*
X82132518Y-134767708D01*
X82060110Y-134642292D01*
X81957708Y-134539890D01*
X81832292Y-134467482D01*
X81785773Y-134455017D01*
X82179033Y-134061756D01*
X82179032Y-134061755D01*
X82101224Y-134013578D01*
X82101215Y-134013574D01*
X81915450Y-133941609D01*
X81915445Y-133941608D01*
X81719611Y-133905000D01*
X81520389Y-133905000D01*
X81324554Y-133941608D01*
X81324549Y-133941609D01*
X81138784Y-134013574D01*
X81138783Y-134013574D01*
X81060965Y-134061756D01*
X81454226Y-134455017D01*
X81407708Y-134467482D01*
X81282292Y-134539890D01*
X81179890Y-134642292D01*
X81107482Y-134767708D01*
X81095017Y-134814226D01*
X80698893Y-134418102D01*
X80613298Y-134590000D01*
X80613295Y-134590006D01*
X80558777Y-134781620D01*
X80558776Y-134781623D01*
X80540395Y-134979999D01*
X80540395Y-134980000D01*
X80558776Y-135178376D01*
X80558777Y-135178378D01*
X80613296Y-135369993D01*
X80613302Y-135370008D01*
X80698893Y-135541896D01*
X81095017Y-135145772D01*
X81107482Y-135192292D01*
X81179890Y-135317708D01*
X81282292Y-135420110D01*
X81407708Y-135492518D01*
X81454226Y-135504982D01*
X81060965Y-135898242D01*
X81138778Y-135946422D01*
X81138782Y-135946424D01*
X81324549Y-136018390D01*
X81324554Y-136018391D01*
X81517344Y-136054430D01*
X81579625Y-136086098D01*
X81614898Y-136146410D01*
X81611964Y-136216218D01*
X81571756Y-136273359D01*
X81507037Y-136299690D01*
X81505368Y-136299847D01*
X81406384Y-136308507D01*
X81406375Y-136308509D01*
X81199260Y-136364005D01*
X81199251Y-136364009D01*
X81004910Y-136454631D01*
X81004908Y-136454632D01*
X80829259Y-136577623D01*
X80829253Y-136577628D01*
X80677628Y-136729253D01*
X80677623Y-136729259D01*
X80554632Y-136904908D01*
X80554631Y-136904910D01*
X80464009Y-137099251D01*
X80464005Y-137099260D01*
X80408509Y-137306375D01*
X80408507Y-137306386D01*
X80389819Y-137519998D01*
X77400500Y-137519998D01*
X77400500Y-131806000D01*
X120382910Y-131806000D01*
X120403221Y-132012226D01*
X120463377Y-132210535D01*
X120561058Y-132393282D01*
X120561062Y-132393288D01*
X120692523Y-132553476D01*
X120782694Y-132627476D01*
X120852712Y-132684938D01*
X120852714Y-132684939D01*
X120852717Y-132684941D01*
X121035464Y-132782622D01*
X121035466Y-132782622D01*
X121035469Y-132782624D01*
X121233772Y-132842778D01*
X121233771Y-132842778D01*
X121252261Y-132844599D01*
X121440000Y-132863090D01*
X121646228Y-132842778D01*
X121844531Y-132782624D01*
X122027288Y-132684938D01*
X122187476Y-132553476D01*
X122318938Y-132393288D01*
X122416624Y-132210531D01*
X122476778Y-132012228D01*
X122497090Y-131806000D01*
X122476778Y-131599772D01*
X122416624Y-131401469D01*
X122416622Y-131401466D01*
X122416622Y-131401464D01*
X122318941Y-131218717D01*
X122318937Y-131218711D01*
X122187476Y-131058523D01*
X122027288Y-130927062D01*
X122027282Y-130927058D01*
X121844535Y-130829377D01*
X121745379Y-130799299D01*
X121646228Y-130769222D01*
X121646226Y-130769221D01*
X121646228Y-130769221D01*
X121440000Y-130748910D01*
X121233773Y-130769221D01*
X121035464Y-130829377D01*
X120852717Y-130927058D01*
X120852711Y-130927062D01*
X120692523Y-131058523D01*
X120561062Y-131218711D01*
X120561058Y-131218717D01*
X120463377Y-131401464D01*
X120403221Y-131599773D01*
X120382910Y-131806000D01*
X77400500Y-131806000D01*
X77400500Y-129266000D01*
X120533534Y-129266000D01*
X120553343Y-129454468D01*
X120611900Y-129634690D01*
X120648576Y-129698213D01*
X121060000Y-129286789D01*
X121060000Y-129316028D01*
X121085896Y-129412675D01*
X121135924Y-129499325D01*
X121206675Y-129570076D01*
X121293325Y-129620104D01*
X121389972Y-129646000D01*
X121419210Y-129646000D01*
X121005738Y-130059469D01*
X121159888Y-130128100D01*
X121345249Y-130167500D01*
X121534751Y-130167500D01*
X121720110Y-130128100D01*
X121874260Y-130059469D01*
X121460791Y-129646000D01*
X121490028Y-129646000D01*
X121586675Y-129620104D01*
X121673325Y-129570076D01*
X121744076Y-129499325D01*
X121794104Y-129412675D01*
X121820000Y-129316028D01*
X121820000Y-129286790D01*
X122231422Y-129698212D01*
X122268098Y-129634691D01*
X122326656Y-129454468D01*
X122346465Y-129266000D01*
X122326656Y-129077531D01*
X122268098Y-128897306D01*
X122231423Y-128833786D01*
X122231423Y-128833785D01*
X121820000Y-129245208D01*
X121820000Y-129215972D01*
X121794104Y-129119325D01*
X121744076Y-129032675D01*
X121673325Y-128961924D01*
X121586675Y-128911896D01*
X121490028Y-128886000D01*
X121460791Y-128886000D01*
X121874260Y-128472529D01*
X121720116Y-128403901D01*
X121720111Y-128403899D01*
X121534751Y-128364500D01*
X121345249Y-128364500D01*
X121159888Y-128403899D01*
X121159883Y-128403901D01*
X121005738Y-128472529D01*
X121419210Y-128886000D01*
X121389972Y-128886000D01*
X121293325Y-128911896D01*
X121206675Y-128961924D01*
X121135924Y-129032675D01*
X121085896Y-129119325D01*
X121060000Y-129215972D01*
X121060000Y-129245209D01*
X120648576Y-128833785D01*
X120611902Y-128897306D01*
X120611899Y-128897313D01*
X120553343Y-129077531D01*
X120533534Y-129266000D01*
X77400500Y-129266000D01*
X77400500Y-127594999D01*
X93389700Y-127594999D01*
X93389700Y-127595000D01*
X93408859Y-127801772D01*
X93465688Y-128001502D01*
X93465693Y-128001515D01*
X93558252Y-128187397D01*
X93683390Y-128353107D01*
X93683392Y-128353110D01*
X93836850Y-128493005D01*
X93836852Y-128493006D01*
X93836855Y-128493009D01*
X93936609Y-128554774D01*
X94013407Y-128602325D01*
X94013409Y-128602326D01*
X94013411Y-128602327D01*
X94207047Y-128677342D01*
X94411170Y-128715500D01*
X94411172Y-128715500D01*
X94618828Y-128715500D01*
X94618830Y-128715500D01*
X94822953Y-128677342D01*
X95016589Y-128602327D01*
X95193145Y-128493009D01*
X95346607Y-128353110D01*
X95471749Y-128187394D01*
X95564311Y-128001505D01*
X95621140Y-127801773D01*
X95640300Y-127595000D01*
X95621140Y-127388227D01*
X95564311Y-127188495D01*
X95535450Y-127130535D01*
X95471747Y-127002602D01*
X95346609Y-126836892D01*
X95346607Y-126836889D01*
X95224967Y-126726000D01*
X120382910Y-126726000D01*
X120403221Y-126932226D01*
X120463377Y-127130535D01*
X120561058Y-127313282D01*
X120561062Y-127313288D01*
X120692523Y-127473476D01*
X120782694Y-127547476D01*
X120852712Y-127604938D01*
X120852714Y-127604939D01*
X120852717Y-127604941D01*
X121035464Y-127702622D01*
X121035466Y-127702622D01*
X121035469Y-127702624D01*
X121233772Y-127762778D01*
X121233771Y-127762778D01*
X121252261Y-127764599D01*
X121440000Y-127783090D01*
X121646228Y-127762778D01*
X121844531Y-127702624D01*
X122027288Y-127604938D01*
X122187476Y-127473476D01*
X122318938Y-127313288D01*
X122385640Y-127188497D01*
X122416622Y-127130535D01*
X122416622Y-127130534D01*
X122416624Y-127130531D01*
X122476778Y-126932228D01*
X122497090Y-126726000D01*
X122476778Y-126519772D01*
X122416624Y-126321469D01*
X122416622Y-126321466D01*
X122416622Y-126321464D01*
X122318941Y-126138717D01*
X122318937Y-126138711D01*
X122187476Y-125978523D01*
X122178308Y-125970999D01*
X148778610Y-125970999D01*
X148778610Y-125971000D01*
X149419297Y-125971000D01*
X149384075Y-126032007D01*
X149350000Y-126159174D01*
X149350000Y-126290826D01*
X149384075Y-126417993D01*
X149419297Y-126479000D01*
X148778610Y-126479000D01*
X148819883Y-126624063D01*
X148819886Y-126624069D01*
X148910754Y-126806556D01*
X149033608Y-126969242D01*
X149184260Y-127106578D01*
X149357584Y-127213897D01*
X149547677Y-127287539D01*
X149596000Y-127296572D01*
X149596000Y-126655702D01*
X149657007Y-126690925D01*
X149784174Y-126725000D01*
X149915826Y-126725000D01*
X150042993Y-126690925D01*
X150104000Y-126655702D01*
X150104000Y-127296572D01*
X150152322Y-127287539D01*
X150342415Y-127213897D01*
X150515739Y-127106578D01*
X150666391Y-126969242D01*
X150789245Y-126806556D01*
X150792510Y-126800000D01*
X175762910Y-126800000D01*
X175783221Y-127006226D01*
X175843377Y-127204535D01*
X175941058Y-127387282D01*
X175941062Y-127387288D01*
X176072523Y-127547476D01*
X176203985Y-127655362D01*
X176232712Y-127678938D01*
X176232714Y-127678939D01*
X176232717Y-127678941D01*
X176415464Y-127776622D01*
X176415466Y-127776622D01*
X176415469Y-127776624D01*
X176613772Y-127836778D01*
X176613771Y-127836778D01*
X176632261Y-127838599D01*
X176820000Y-127857090D01*
X177026228Y-127836778D01*
X177224531Y-127776624D01*
X177407288Y-127678938D01*
X177567476Y-127547476D01*
X177698938Y-127387288D01*
X177796624Y-127204531D01*
X177856778Y-127006228D01*
X177877090Y-126800000D01*
X177856778Y-126593772D01*
X177796624Y-126395469D01*
X177796622Y-126395466D01*
X177796622Y-126395464D01*
X177698941Y-126212717D01*
X177698937Y-126212711D01*
X177567476Y-126052523D01*
X177407288Y-125921062D01*
X177407282Y-125921058D01*
X177224535Y-125823377D01*
X177125379Y-125793299D01*
X177026228Y-125763222D01*
X177026226Y-125763221D01*
X177026228Y-125763221D01*
X176820000Y-125742910D01*
X176613773Y-125763221D01*
X176415464Y-125823377D01*
X176232717Y-125921058D01*
X176232711Y-125921062D01*
X176072523Y-126052523D01*
X175941062Y-126212711D01*
X175941058Y-126212717D01*
X175843377Y-126395464D01*
X175783221Y-126593773D01*
X175762910Y-126800000D01*
X150792510Y-126800000D01*
X150880113Y-126624069D01*
X150880116Y-126624063D01*
X150921389Y-126479000D01*
X150280703Y-126479000D01*
X150315925Y-126417993D01*
X150350000Y-126290826D01*
X150350000Y-126159174D01*
X150315925Y-126032007D01*
X150280703Y-125971000D01*
X150921390Y-125971000D01*
X150921389Y-125970999D01*
X150880116Y-125825936D01*
X150880113Y-125825930D01*
X150789245Y-125643443D01*
X150666391Y-125480757D01*
X150515739Y-125343421D01*
X150342413Y-125236101D01*
X150152318Y-125162459D01*
X150152308Y-125162456D01*
X150104000Y-125153425D01*
X150104000Y-125794297D01*
X150042993Y-125759075D01*
X149915826Y-125725000D01*
X149784174Y-125725000D01*
X149657007Y-125759075D01*
X149596000Y-125794297D01*
X149596000Y-125153425D01*
X149547691Y-125162456D01*
X149547681Y-125162459D01*
X149357586Y-125236101D01*
X149184260Y-125343421D01*
X149033608Y-125480757D01*
X148910754Y-125643443D01*
X148819886Y-125825930D01*
X148819883Y-125825936D01*
X148778610Y-125970999D01*
X122178308Y-125970999D01*
X122027288Y-125847062D01*
X122027282Y-125847058D01*
X121844535Y-125749377D01*
X121745379Y-125719299D01*
X121646228Y-125689222D01*
X121646226Y-125689221D01*
X121646228Y-125689221D01*
X121440000Y-125668910D01*
X121233773Y-125689221D01*
X121035464Y-125749377D01*
X120852717Y-125847058D01*
X120852711Y-125847062D01*
X120692523Y-125978523D01*
X120561062Y-126138711D01*
X120561058Y-126138717D01*
X120463377Y-126321464D01*
X120403221Y-126519773D01*
X120382910Y-126726000D01*
X95224967Y-126726000D01*
X95193149Y-126696994D01*
X95193143Y-126696990D01*
X95016592Y-126587674D01*
X95016583Y-126587670D01*
X94926389Y-126552729D01*
X94822953Y-126512658D01*
X94618830Y-126474500D01*
X94411170Y-126474500D01*
X94207047Y-126512658D01*
X94013416Y-126587670D01*
X94013407Y-126587674D01*
X93836856Y-126696990D01*
X93836850Y-126696994D01*
X93683392Y-126836889D01*
X93683390Y-126836892D01*
X93558252Y-127002602D01*
X93465693Y-127188484D01*
X93465688Y-127188497D01*
X93408859Y-127388227D01*
X93389700Y-127594999D01*
X77400500Y-127594999D01*
X77400500Y-119320998D01*
X79699819Y-119320998D01*
X79699819Y-119321001D01*
X79718507Y-119534613D01*
X79718509Y-119534624D01*
X79774005Y-119741739D01*
X79774007Y-119741743D01*
X79774008Y-119741747D01*
X79793266Y-119783045D01*
X79864631Y-119936090D01*
X79907383Y-119997145D01*
X79987627Y-120111745D01*
X80139255Y-120263373D01*
X80274250Y-120357898D01*
X80314909Y-120386368D01*
X80512740Y-120478618D01*
X80565179Y-120524790D01*
X80584331Y-120591984D01*
X80564115Y-120658865D01*
X80512740Y-120703382D01*
X80314910Y-120795631D01*
X80314908Y-120795632D01*
X80139259Y-120918623D01*
X80139253Y-120918628D01*
X79987628Y-121070253D01*
X79987623Y-121070259D01*
X79864632Y-121245908D01*
X79864631Y-121245910D01*
X79774009Y-121440251D01*
X79774005Y-121440260D01*
X79718509Y-121647375D01*
X79718507Y-121647386D01*
X79699819Y-121860998D01*
X79699819Y-121861001D01*
X79718507Y-122074613D01*
X79718509Y-122074624D01*
X79774005Y-122281739D01*
X79774007Y-122281743D01*
X79774008Y-122281747D01*
X79786356Y-122308227D01*
X79864631Y-122476090D01*
X79904720Y-122533342D01*
X79987627Y-122651745D01*
X80139255Y-122803373D01*
X80314909Y-122926368D01*
X80342252Y-122939118D01*
X80394691Y-122985289D01*
X80413844Y-123052482D01*
X80393629Y-123119364D01*
X80340464Y-123164699D01*
X80289849Y-123175500D01*
X80073482Y-123175500D01*
X79992519Y-123188323D01*
X79979696Y-123190354D01*
X79866658Y-123247950D01*
X79866657Y-123247951D01*
X79866652Y-123247954D01*
X79776954Y-123337652D01*
X79776951Y-123337657D01*
X79719352Y-123450698D01*
X79704500Y-123544475D01*
X79704500Y-125257517D01*
X79715292Y-125325657D01*
X79719354Y-125351304D01*
X79776950Y-125464342D01*
X79776952Y-125464344D01*
X79776954Y-125464347D01*
X79866652Y-125554045D01*
X79866654Y-125554046D01*
X79866658Y-125554050D01*
X79979694Y-125611645D01*
X79979698Y-125611647D01*
X80073475Y-125626499D01*
X80073481Y-125626500D01*
X81786518Y-125626499D01*
X81880304Y-125611646D01*
X81993342Y-125554050D01*
X82083050Y-125464342D01*
X82140646Y-125351304D01*
X82140646Y-125351302D01*
X82140647Y-125351301D01*
X82155499Y-125257524D01*
X82155500Y-125257519D01*
X82155500Y-125054999D01*
X90849700Y-125054999D01*
X90849700Y-125055000D01*
X90868859Y-125261772D01*
X90925688Y-125461502D01*
X90925693Y-125461515D01*
X91018252Y-125647397D01*
X91143390Y-125813107D01*
X91143392Y-125813110D01*
X91296850Y-125953005D01*
X91296852Y-125953006D01*
X91296855Y-125953009D01*
X91396609Y-126014774D01*
X91473407Y-126062325D01*
X91473409Y-126062326D01*
X91473411Y-126062327D01*
X91667047Y-126137342D01*
X91871170Y-126175500D01*
X91871172Y-126175500D01*
X92078828Y-126175500D01*
X92078830Y-126175500D01*
X92282953Y-126137342D01*
X92476589Y-126062327D01*
X92653145Y-125953009D01*
X92806607Y-125813110D01*
X92931749Y-125647394D01*
X93024311Y-125461505D01*
X93081140Y-125261773D01*
X93100300Y-125055000D01*
X93081140Y-124848227D01*
X93024311Y-124648495D01*
X92931749Y-124462606D01*
X92931748Y-124462605D01*
X92931747Y-124462602D01*
X92806609Y-124296892D01*
X92806607Y-124296889D01*
X92653149Y-124156994D01*
X92653143Y-124156990D01*
X92476592Y-124047674D01*
X92476583Y-124047670D01*
X92386389Y-124012729D01*
X92282953Y-123972658D01*
X92078830Y-123934500D01*
X91871170Y-123934500D01*
X91667047Y-123972658D01*
X91473416Y-124047670D01*
X91473407Y-124047674D01*
X91296856Y-124156990D01*
X91296850Y-124156994D01*
X91143392Y-124296889D01*
X91143390Y-124296892D01*
X91018252Y-124462602D01*
X90925693Y-124648484D01*
X90925688Y-124648497D01*
X90868859Y-124848227D01*
X90849700Y-125054999D01*
X82155500Y-125054999D01*
X82155499Y-123544482D01*
X82140646Y-123450696D01*
X82083050Y-123337658D01*
X82083046Y-123337654D01*
X82083045Y-123337652D01*
X81993347Y-123247954D01*
X81993344Y-123247952D01*
X81993342Y-123247950D01*
X81916517Y-123208805D01*
X81880301Y-123190352D01*
X81786524Y-123175500D01*
X81570152Y-123175500D01*
X81503113Y-123155815D01*
X81457358Y-123103011D01*
X81447414Y-123033853D01*
X81476439Y-122970297D01*
X81517746Y-122939119D01*
X81545091Y-122926368D01*
X81720745Y-122803373D01*
X81872373Y-122651745D01*
X81968124Y-122514999D01*
X93389700Y-122514999D01*
X93389700Y-122515000D01*
X93408859Y-122721772D01*
X93465688Y-122921502D01*
X93465693Y-122921515D01*
X93558252Y-123107397D01*
X93683390Y-123273107D01*
X93683392Y-123273110D01*
X93836850Y-123413005D01*
X93836852Y-123413006D01*
X93836855Y-123413009D01*
X93936609Y-123474774D01*
X94013407Y-123522325D01*
X94013409Y-123522326D01*
X94013411Y-123522327D01*
X94207047Y-123597342D01*
X94411170Y-123635500D01*
X94411172Y-123635500D01*
X94618828Y-123635500D01*
X94618830Y-123635500D01*
X94822953Y-123597342D01*
X95016589Y-123522327D01*
X95193145Y-123413009D01*
X95346607Y-123273110D01*
X95428475Y-123164699D01*
X95471747Y-123107397D01*
X95471747Y-123107395D01*
X95471749Y-123107394D01*
X95564311Y-122921505D01*
X95621140Y-122721773D01*
X95640300Y-122515000D01*
X95627902Y-122381207D01*
X95621140Y-122308227D01*
X95605107Y-122251877D01*
X95564311Y-122108495D01*
X95563366Y-122106598D01*
X95471747Y-121922602D01*
X95346609Y-121756892D01*
X95346607Y-121756889D01*
X95193149Y-121616994D01*
X95193143Y-121616990D01*
X95016592Y-121507674D01*
X95016583Y-121507670D01*
X94926389Y-121472729D01*
X94822953Y-121432658D01*
X94618830Y-121394500D01*
X94411170Y-121394500D01*
X94207047Y-121432658D01*
X94013416Y-121507670D01*
X94013407Y-121507674D01*
X93836856Y-121616990D01*
X93836850Y-121616994D01*
X93683392Y-121756889D01*
X93683390Y-121756892D01*
X93558252Y-121922602D01*
X93465693Y-122108484D01*
X93465688Y-122108497D01*
X93408859Y-122308227D01*
X93389700Y-122514999D01*
X81968124Y-122514999D01*
X81995368Y-122476091D01*
X82085992Y-122281747D01*
X82141492Y-122074619D01*
X82159015Y-121874330D01*
X82160181Y-121861001D01*
X82160181Y-121860998D01*
X82153370Y-121783149D01*
X82141492Y-121647381D01*
X82099350Y-121490109D01*
X82085994Y-121440260D01*
X82085993Y-121440259D01*
X82085992Y-121440253D01*
X81995368Y-121245910D01*
X81982143Y-121227023D01*
X81872376Y-121070259D01*
X81872371Y-121070253D01*
X81720745Y-120918627D01*
X81681288Y-120890999D01*
X81545091Y-120795632D01*
X81350747Y-120705008D01*
X81350744Y-120705007D01*
X81347259Y-120703382D01*
X81294820Y-120657210D01*
X81275668Y-120590016D01*
X81283691Y-120563475D01*
X117759500Y-120563475D01*
X117759500Y-122326517D01*
X117766815Y-122372702D01*
X117774354Y-122420304D01*
X117831950Y-122533342D01*
X117831952Y-122533344D01*
X117831954Y-122533347D01*
X117921652Y-122623045D01*
X117921654Y-122623046D01*
X117921658Y-122623050D01*
X118034694Y-122680645D01*
X118034698Y-122680647D01*
X118128475Y-122695499D01*
X118128481Y-122695500D01*
X119891518Y-122695499D01*
X119985304Y-122680646D01*
X120098342Y-122623050D01*
X120188050Y-122533342D01*
X120245646Y-122420304D01*
X120245646Y-122420302D01*
X120245647Y-122420301D01*
X120256282Y-122353147D01*
X120260500Y-122326519D01*
X120260499Y-122176859D01*
X120280183Y-122109823D01*
X120332987Y-122064068D01*
X120402145Y-122054124D01*
X120465701Y-122083149D01*
X120486073Y-122105738D01*
X120575427Y-122233347D01*
X120588402Y-122251877D01*
X120743123Y-122406598D01*
X120922361Y-122532102D01*
X121120670Y-122624575D01*
X121332023Y-122681207D01*
X121514926Y-122697208D01*
X121549998Y-122700277D01*
X121550000Y-122700277D01*
X121550002Y-122700277D01*
X121578254Y-122697805D01*
X121767977Y-122681207D01*
X121979330Y-122624575D01*
X122177639Y-122532102D01*
X122356877Y-122406598D01*
X122511598Y-122251877D01*
X122637102Y-122072639D01*
X122729575Y-121874330D01*
X122777763Y-121694488D01*
X122814127Y-121634830D01*
X122876973Y-121604301D01*
X122946349Y-121612595D01*
X123000227Y-121657080D01*
X123016803Y-121692650D01*
X123059883Y-121844063D01*
X123059886Y-121844069D01*
X123150754Y-122026556D01*
X123273608Y-122189242D01*
X123424260Y-122326578D01*
X123597584Y-122433897D01*
X123787677Y-122507539D01*
X123836000Y-122516572D01*
X123836000Y-121875702D01*
X123897007Y-121910925D01*
X124024174Y-121945000D01*
X124155826Y-121945000D01*
X124282993Y-121910925D01*
X124344000Y-121875702D01*
X124344000Y-122516572D01*
X124392322Y-122507539D01*
X124582415Y-122433897D01*
X124755739Y-122326578D01*
X124906391Y-122189242D01*
X125029245Y-122026556D01*
X125120113Y-121844069D01*
X125120116Y-121844063D01*
X125161389Y-121699000D01*
X124520703Y-121699000D01*
X124555925Y-121637993D01*
X124590000Y-121510826D01*
X124590000Y-121379174D01*
X124555925Y-121252007D01*
X124520703Y-121191000D01*
X125161390Y-121191000D01*
X125161389Y-121190999D01*
X125558610Y-121190999D01*
X125558610Y-121191000D01*
X126199297Y-121191000D01*
X126164075Y-121252007D01*
X126130000Y-121379174D01*
X126130000Y-121510826D01*
X126164075Y-121637993D01*
X126199297Y-121699000D01*
X125558610Y-121699000D01*
X125599883Y-121844063D01*
X125599886Y-121844069D01*
X125690754Y-122026556D01*
X125813608Y-122189242D01*
X125964260Y-122326578D01*
X126137584Y-122433897D01*
X126327677Y-122507539D01*
X126376000Y-122516572D01*
X126376000Y-121875702D01*
X126437007Y-121910925D01*
X126564174Y-121945000D01*
X126695826Y-121945000D01*
X126822993Y-121910925D01*
X126884000Y-121875702D01*
X126884000Y-122516572D01*
X126932322Y-122507539D01*
X127122415Y-122433897D01*
X127295739Y-122326578D01*
X127446391Y-122189242D01*
X127569245Y-122026556D01*
X127660113Y-121844069D01*
X127660116Y-121844063D01*
X127701389Y-121699000D01*
X127060703Y-121699000D01*
X127095925Y-121637993D01*
X127130000Y-121510826D01*
X127130000Y-121379174D01*
X127095925Y-121252007D01*
X127060703Y-121191000D01*
X127701390Y-121191000D01*
X127701389Y-121190999D01*
X127688301Y-121144997D01*
X148594723Y-121144997D01*
X148594723Y-121145002D01*
X148613793Y-121362975D01*
X148613793Y-121362979D01*
X148670422Y-121574322D01*
X148670424Y-121574326D01*
X148670425Y-121574330D01*
X148704489Y-121647381D01*
X148762897Y-121772638D01*
X148762898Y-121772639D01*
X148888402Y-121951877D01*
X149043123Y-122106598D01*
X149222361Y-122232102D01*
X149420670Y-122324575D01*
X149420676Y-122324576D01*
X149420677Y-122324577D01*
X149428145Y-122326578D01*
X149600283Y-122372702D01*
X149659944Y-122409067D01*
X149690473Y-122471914D01*
X149682178Y-122541289D01*
X149637693Y-122595167D01*
X149590976Y-122614365D01*
X149547682Y-122622458D01*
X149357584Y-122696102D01*
X149184260Y-122803421D01*
X149033608Y-122940757D01*
X148910754Y-123103443D01*
X148819886Y-123285930D01*
X148819883Y-123285936D01*
X148778610Y-123430999D01*
X148778610Y-123431000D01*
X149419297Y-123431000D01*
X149384075Y-123492007D01*
X149350000Y-123619174D01*
X149350000Y-123750826D01*
X149384075Y-123877993D01*
X149419297Y-123939000D01*
X148778610Y-123939000D01*
X148819883Y-124084063D01*
X148819886Y-124084069D01*
X148910754Y-124266556D01*
X149033608Y-124429242D01*
X149184260Y-124566578D01*
X149357584Y-124673897D01*
X149547677Y-124747539D01*
X149596000Y-124756572D01*
X149596000Y-124115702D01*
X149657007Y-124150925D01*
X149784174Y-124185000D01*
X149915826Y-124185000D01*
X150042993Y-124150925D01*
X150104000Y-124115702D01*
X150104000Y-124756572D01*
X150152322Y-124747539D01*
X150342415Y-124673897D01*
X150515739Y-124566578D01*
X150666391Y-124429242D01*
X150789245Y-124266556D01*
X150880113Y-124084069D01*
X150880116Y-124084063D01*
X150921389Y-123939000D01*
X150280703Y-123939000D01*
X150315925Y-123877993D01*
X150350000Y-123750826D01*
X150350000Y-123619174D01*
X150315925Y-123492007D01*
X150280703Y-123431000D01*
X150921390Y-123431000D01*
X150921389Y-123430999D01*
X150880116Y-123285936D01*
X150880113Y-123285930D01*
X150789245Y-123103443D01*
X150666391Y-122940757D01*
X150515739Y-122803421D01*
X150342415Y-122696102D01*
X150152317Y-122622458D01*
X150109023Y-122614365D01*
X150046742Y-122582697D01*
X150011470Y-122522385D01*
X150014404Y-122452576D01*
X150054613Y-122395437D01*
X150099713Y-122372703D01*
X150279330Y-122324575D01*
X150477639Y-122232102D01*
X150656877Y-122106598D01*
X150811598Y-121951877D01*
X150937102Y-121772639D01*
X151029575Y-121574330D01*
X151086207Y-121362977D01*
X151105277Y-121145000D01*
X151086207Y-120927023D01*
X151037683Y-120745930D01*
X151029577Y-120715677D01*
X151029576Y-120715676D01*
X151029575Y-120715670D01*
X150937102Y-120517362D01*
X150937100Y-120517359D01*
X150937099Y-120517357D01*
X150811599Y-120338124D01*
X150736950Y-120263475D01*
X173099500Y-120263475D01*
X173099500Y-122026517D01*
X173108470Y-122083149D01*
X173114354Y-122120304D01*
X173171950Y-122233342D01*
X173171952Y-122233344D01*
X173171954Y-122233347D01*
X173261652Y-122323045D01*
X173261654Y-122323046D01*
X173261658Y-122323050D01*
X173374694Y-122380645D01*
X173374698Y-122380647D01*
X173462116Y-122394491D01*
X173468083Y-122395437D01*
X173468475Y-122395499D01*
X173468481Y-122395500D01*
X175231518Y-122395499D01*
X175325304Y-122380646D01*
X175438342Y-122323050D01*
X175528050Y-122233342D01*
X175585646Y-122120304D01*
X175585646Y-122120302D01*
X175585647Y-122120301D01*
X175596282Y-122053147D01*
X175600500Y-122026519D01*
X175600499Y-121876859D01*
X175620183Y-121809823D01*
X175672987Y-121764068D01*
X175742145Y-121754124D01*
X175805701Y-121783149D01*
X175826073Y-121805738D01*
X175884544Y-121889242D01*
X175928402Y-121951877D01*
X176083123Y-122106598D01*
X176262361Y-122232102D01*
X176460670Y-122324575D01*
X176460676Y-122324576D01*
X176460677Y-122324577D01*
X176468145Y-122326578D01*
X176672023Y-122381207D01*
X176854926Y-122397208D01*
X176889998Y-122400277D01*
X176890000Y-122400277D01*
X176890002Y-122400277D01*
X176918254Y-122397805D01*
X177107977Y-122381207D01*
X177319330Y-122324575D01*
X177517639Y-122232102D01*
X177696877Y-122106598D01*
X177851598Y-121951877D01*
X177977102Y-121772639D01*
X178069575Y-121574330D01*
X178117763Y-121394488D01*
X178154127Y-121334830D01*
X178216973Y-121304301D01*
X178286349Y-121312595D01*
X178340227Y-121357080D01*
X178356803Y-121392650D01*
X178399883Y-121544063D01*
X178399886Y-121544069D01*
X178490754Y-121726556D01*
X178613608Y-121889242D01*
X178764260Y-122026578D01*
X178937584Y-122133897D01*
X179127677Y-122207539D01*
X179176000Y-122216572D01*
X179176000Y-121575702D01*
X179237007Y-121610925D01*
X179364174Y-121645000D01*
X179495826Y-121645000D01*
X179622993Y-121610925D01*
X179684000Y-121575702D01*
X179684000Y-122216572D01*
X179732322Y-122207539D01*
X179922415Y-122133897D01*
X180095739Y-122026578D01*
X180246391Y-121889242D01*
X180369245Y-121726556D01*
X180460113Y-121544069D01*
X180460116Y-121544063D01*
X180501389Y-121399000D01*
X179860703Y-121399000D01*
X179895925Y-121337993D01*
X179930000Y-121210826D01*
X179930000Y-121079174D01*
X179895925Y-120952007D01*
X179860703Y-120891000D01*
X180501390Y-120891000D01*
X180501389Y-120890999D01*
X180898610Y-120890999D01*
X180898610Y-120891000D01*
X181539297Y-120891000D01*
X181504075Y-120952007D01*
X181470000Y-121079174D01*
X181470000Y-121210826D01*
X181504075Y-121337993D01*
X181539297Y-121399000D01*
X180898610Y-121399000D01*
X180939883Y-121544063D01*
X180939886Y-121544069D01*
X181030754Y-121726556D01*
X181153608Y-121889242D01*
X181304260Y-122026578D01*
X181477584Y-122133897D01*
X181667677Y-122207539D01*
X181716000Y-122216572D01*
X181716000Y-121575702D01*
X181777007Y-121610925D01*
X181904174Y-121645000D01*
X182035826Y-121645000D01*
X182162993Y-121610925D01*
X182224000Y-121575702D01*
X182224000Y-122216572D01*
X182272322Y-122207539D01*
X182462415Y-122133897D01*
X182635739Y-122026578D01*
X182786391Y-121889242D01*
X182909245Y-121726556D01*
X183000113Y-121544069D01*
X183000116Y-121544063D01*
X183041389Y-121399000D01*
X182400703Y-121399000D01*
X182435925Y-121337993D01*
X182470000Y-121210826D01*
X182470000Y-121079174D01*
X182435925Y-120952007D01*
X182400703Y-120891000D01*
X183041390Y-120891000D01*
X183041389Y-120890999D01*
X183000116Y-120745936D01*
X183000113Y-120745930D01*
X182909245Y-120563443D01*
X182786391Y-120400757D01*
X182635739Y-120263421D01*
X182462413Y-120156101D01*
X182272318Y-120082459D01*
X182272308Y-120082456D01*
X182224000Y-120073425D01*
X182224000Y-120714297D01*
X182162993Y-120679075D01*
X182035826Y-120645000D01*
X181904174Y-120645000D01*
X181777007Y-120679075D01*
X181716000Y-120714297D01*
X181716000Y-120073425D01*
X181667691Y-120082456D01*
X181667681Y-120082459D01*
X181477586Y-120156101D01*
X181304260Y-120263421D01*
X181153608Y-120400757D01*
X181030754Y-120563443D01*
X180939886Y-120745930D01*
X180939883Y-120745936D01*
X180898610Y-120890999D01*
X180501389Y-120890999D01*
X180460116Y-120745936D01*
X180460113Y-120745930D01*
X180369245Y-120563443D01*
X180246391Y-120400757D01*
X180095739Y-120263421D01*
X179922413Y-120156101D01*
X179732318Y-120082459D01*
X179732308Y-120082456D01*
X179684000Y-120073425D01*
X179684000Y-120714297D01*
X179622993Y-120679075D01*
X179495826Y-120645000D01*
X179364174Y-120645000D01*
X179237007Y-120679075D01*
X179176000Y-120714297D01*
X179176000Y-120073425D01*
X179127691Y-120082456D01*
X179127681Y-120082459D01*
X178937586Y-120156101D01*
X178764260Y-120263421D01*
X178613608Y-120400757D01*
X178490754Y-120563443D01*
X178399886Y-120745930D01*
X178399883Y-120745936D01*
X178356803Y-120897349D01*
X178319524Y-120956443D01*
X178256214Y-120986000D01*
X178186975Y-120976638D01*
X178133788Y-120931328D01*
X178117763Y-120895511D01*
X178069575Y-120715670D01*
X177977102Y-120517362D01*
X177977100Y-120517359D01*
X177977099Y-120517357D01*
X177851599Y-120338124D01*
X177776847Y-120263372D01*
X177696877Y-120183402D01*
X177517639Y-120057898D01*
X177517640Y-120057898D01*
X177517638Y-120057897D01*
X177418484Y-120011661D01*
X177319330Y-119965425D01*
X177319326Y-119965424D01*
X177319322Y-119965422D01*
X177107977Y-119908793D01*
X176890002Y-119889723D01*
X176889998Y-119889723D01*
X176744682Y-119902436D01*
X176672023Y-119908793D01*
X176672020Y-119908793D01*
X176460677Y-119965422D01*
X176460670Y-119965424D01*
X176460670Y-119965425D01*
X176457391Y-119966954D01*
X176262361Y-120057898D01*
X176262357Y-120057900D01*
X176083121Y-120183402D01*
X175928402Y-120338121D01*
X175826074Y-120484262D01*
X175771497Y-120527887D01*
X175701999Y-120535081D01*
X175639644Y-120503558D01*
X175604230Y-120443328D01*
X175600499Y-120413139D01*
X175600499Y-120263482D01*
X175600482Y-120263372D01*
X175585646Y-120169696D01*
X175528050Y-120056658D01*
X175528046Y-120056654D01*
X175528045Y-120056652D01*
X175438347Y-119966954D01*
X175438344Y-119966952D01*
X175438342Y-119966950D01*
X175361517Y-119927805D01*
X175325301Y-119909352D01*
X175231524Y-119894500D01*
X173468482Y-119894500D01*
X173387519Y-119907323D01*
X173374696Y-119909354D01*
X173261658Y-119966950D01*
X173261657Y-119966951D01*
X173261652Y-119966954D01*
X173171954Y-120056652D01*
X173171951Y-120056657D01*
X173171950Y-120056658D01*
X173158805Y-120082456D01*
X173114352Y-120169698D01*
X173099500Y-120263475D01*
X150736950Y-120263475D01*
X150736847Y-120263372D01*
X150656877Y-120183402D01*
X150510733Y-120081071D01*
X150467112Y-120026497D01*
X150459919Y-119956998D01*
X150491441Y-119894644D01*
X150551671Y-119859230D01*
X150581859Y-119855499D01*
X150731518Y-119855499D01*
X150825304Y-119840646D01*
X150938342Y-119783050D01*
X151028050Y-119693342D01*
X151085646Y-119580304D01*
X151085646Y-119580302D01*
X151085647Y-119580301D01*
X151100499Y-119486524D01*
X151100500Y-119486519D01*
X151100499Y-117723482D01*
X151085646Y-117629696D01*
X151028050Y-117516658D01*
X151028046Y-117516654D01*
X151028045Y-117516652D01*
X150938347Y-117426954D01*
X150938344Y-117426952D01*
X150938342Y-117426950D01*
X150861517Y-117387805D01*
X150825301Y-117369352D01*
X150731524Y-117354500D01*
X148968482Y-117354500D01*
X148887519Y-117367323D01*
X148874696Y-117369354D01*
X148761658Y-117426950D01*
X148761657Y-117426951D01*
X148761652Y-117426954D01*
X148671954Y-117516652D01*
X148671951Y-117516657D01*
X148614352Y-117629698D01*
X148599500Y-117723475D01*
X148599500Y-119486517D01*
X148610292Y-119554657D01*
X148614354Y-119580304D01*
X148671950Y-119693342D01*
X148671952Y-119693344D01*
X148671954Y-119693347D01*
X148761652Y-119783045D01*
X148761654Y-119783046D01*
X148761658Y-119783050D01*
X148874694Y-119840645D01*
X148874698Y-119840647D01*
X148968475Y-119855499D01*
X148968481Y-119855500D01*
X149118140Y-119855499D01*
X149185177Y-119875183D01*
X149230932Y-119927987D01*
X149240876Y-119997145D01*
X149211851Y-120060701D01*
X149189262Y-120081074D01*
X149043118Y-120183405D01*
X148888402Y-120338121D01*
X148762900Y-120517357D01*
X148762898Y-120517361D01*
X148670426Y-120715668D01*
X148670422Y-120715677D01*
X148613793Y-120927020D01*
X148613793Y-120927024D01*
X148594723Y-121144997D01*
X127688301Y-121144997D01*
X127660116Y-121045936D01*
X127660113Y-121045930D01*
X127569245Y-120863443D01*
X127446391Y-120700757D01*
X127295739Y-120563421D01*
X127122413Y-120456101D01*
X126932318Y-120382459D01*
X126932308Y-120382456D01*
X126884000Y-120373425D01*
X126884000Y-121014297D01*
X126822993Y-120979075D01*
X126695826Y-120945000D01*
X126564174Y-120945000D01*
X126437007Y-120979075D01*
X126376000Y-121014297D01*
X126376000Y-120373425D01*
X126327691Y-120382456D01*
X126327681Y-120382459D01*
X126137586Y-120456101D01*
X125964260Y-120563421D01*
X125813608Y-120700757D01*
X125690754Y-120863443D01*
X125599886Y-121045930D01*
X125599883Y-121045936D01*
X125558610Y-121190999D01*
X125161389Y-121190999D01*
X125120116Y-121045936D01*
X125120113Y-121045930D01*
X125029245Y-120863443D01*
X124906391Y-120700757D01*
X124755739Y-120563421D01*
X124582413Y-120456101D01*
X124392318Y-120382459D01*
X124392308Y-120382456D01*
X124344000Y-120373425D01*
X124344000Y-121014297D01*
X124282993Y-120979075D01*
X124155826Y-120945000D01*
X124024174Y-120945000D01*
X123897007Y-120979075D01*
X123836000Y-121014297D01*
X123836000Y-120373425D01*
X123787691Y-120382456D01*
X123787681Y-120382459D01*
X123597586Y-120456101D01*
X123424260Y-120563421D01*
X123273608Y-120700757D01*
X123150754Y-120863443D01*
X123059886Y-121045930D01*
X123059883Y-121045936D01*
X123016803Y-121197349D01*
X122979524Y-121256443D01*
X122916214Y-121286000D01*
X122846975Y-121276638D01*
X122793788Y-121231328D01*
X122777763Y-121195511D01*
X122729575Y-121015670D01*
X122637102Y-120817362D01*
X122637100Y-120817359D01*
X122637099Y-120817357D01*
X122511599Y-120638124D01*
X122436896Y-120563421D01*
X122356877Y-120483402D01*
X122177639Y-120357898D01*
X122177640Y-120357898D01*
X122177638Y-120357897D01*
X122078484Y-120311661D01*
X121979330Y-120265425D01*
X121979326Y-120265424D01*
X121979322Y-120265422D01*
X121767977Y-120208793D01*
X121550002Y-120189723D01*
X121549998Y-120189723D01*
X121404682Y-120202436D01*
X121332023Y-120208793D01*
X121332020Y-120208793D01*
X121120677Y-120265422D01*
X121120670Y-120265424D01*
X121120670Y-120265425D01*
X121117391Y-120266954D01*
X120922361Y-120357898D01*
X120922357Y-120357900D01*
X120743121Y-120483402D01*
X120588402Y-120638121D01*
X120486074Y-120784262D01*
X120431497Y-120827887D01*
X120361999Y-120835081D01*
X120299644Y-120803558D01*
X120264230Y-120743328D01*
X120260499Y-120713139D01*
X120260499Y-120563482D01*
X120255591Y-120532492D01*
X120245646Y-120469696D01*
X120188050Y-120356658D01*
X120188046Y-120356654D01*
X120188045Y-120356652D01*
X120098347Y-120266954D01*
X120098344Y-120266952D01*
X120098342Y-120266950D01*
X120021517Y-120227805D01*
X119985301Y-120209352D01*
X119891524Y-120194500D01*
X118128482Y-120194500D01*
X118047519Y-120207323D01*
X118034696Y-120209354D01*
X117921658Y-120266950D01*
X117921657Y-120266951D01*
X117921652Y-120266954D01*
X117831954Y-120356652D01*
X117831951Y-120356657D01*
X117831950Y-120356658D01*
X117816812Y-120386368D01*
X117774352Y-120469698D01*
X117759500Y-120563475D01*
X81283691Y-120563475D01*
X81295884Y-120523135D01*
X81347259Y-120478618D01*
X81350744Y-120476992D01*
X81350747Y-120476992D01*
X81545091Y-120386368D01*
X81720745Y-120263373D01*
X81872373Y-120111745D01*
X81995368Y-119936091D01*
X82085992Y-119741747D01*
X82141492Y-119534619D01*
X82160181Y-119321000D01*
X82141492Y-119107381D01*
X82085992Y-118900253D01*
X81995368Y-118705910D01*
X81872373Y-118530255D01*
X81720745Y-118378627D01*
X81545091Y-118255632D01*
X81545092Y-118255632D01*
X81545090Y-118255631D01*
X81447919Y-118210320D01*
X81350747Y-118165008D01*
X81350743Y-118165007D01*
X81350739Y-118165005D01*
X81143624Y-118109509D01*
X81143614Y-118109507D01*
X81044632Y-118100847D01*
X80979563Y-118075394D01*
X80938585Y-118018803D01*
X80934707Y-117949041D01*
X80969162Y-117888257D01*
X81031009Y-117855750D01*
X81032655Y-117855430D01*
X81225445Y-117819391D01*
X81225446Y-117819391D01*
X81411226Y-117747419D01*
X81489032Y-117699243D01*
X81489032Y-117699242D01*
X81095773Y-117305982D01*
X81142292Y-117293518D01*
X81267708Y-117221110D01*
X81370110Y-117118708D01*
X81442518Y-116993292D01*
X81454982Y-116946772D01*
X81851105Y-117342895D01*
X81851106Y-117342895D01*
X81936700Y-117170999D01*
X81936703Y-117170993D01*
X81991222Y-116979378D01*
X81991223Y-116979376D01*
X82009605Y-116781000D01*
X82009605Y-116780999D01*
X81991223Y-116582623D01*
X81991222Y-116582621D01*
X81936703Y-116391006D01*
X81936697Y-116390991D01*
X81851106Y-116219103D01*
X81851105Y-116219103D01*
X81454982Y-116615226D01*
X81442518Y-116568708D01*
X81370110Y-116443292D01*
X81267708Y-116340890D01*
X81142292Y-116268482D01*
X81095773Y-116256017D01*
X81489033Y-115862756D01*
X81489032Y-115862755D01*
X81411224Y-115814578D01*
X81411215Y-115814574D01*
X81225450Y-115742609D01*
X81225445Y-115742608D01*
X81029611Y-115706000D01*
X80830389Y-115706000D01*
X80634554Y-115742608D01*
X80634549Y-115742609D01*
X80448784Y-115814574D01*
X80448783Y-115814574D01*
X80370965Y-115862756D01*
X80764226Y-116256017D01*
X80717708Y-116268482D01*
X80592292Y-116340890D01*
X80489890Y-116443292D01*
X80417482Y-116568708D01*
X80405017Y-116615226D01*
X80008893Y-116219102D01*
X79923298Y-116391000D01*
X79923295Y-116391006D01*
X79868777Y-116582620D01*
X79868776Y-116582623D01*
X79850395Y-116780999D01*
X79850395Y-116781000D01*
X79868776Y-116979376D01*
X79868777Y-116979378D01*
X79923296Y-117170993D01*
X79923302Y-117171008D01*
X80008893Y-117342896D01*
X80405017Y-116946772D01*
X80417482Y-116993292D01*
X80489890Y-117118708D01*
X80592292Y-117221110D01*
X80717708Y-117293518D01*
X80764226Y-117305982D01*
X80370965Y-117699242D01*
X80448778Y-117747422D01*
X80448782Y-117747424D01*
X80634549Y-117819390D01*
X80634554Y-117819391D01*
X80827344Y-117855430D01*
X80889625Y-117887098D01*
X80924898Y-117947410D01*
X80921964Y-118017218D01*
X80881756Y-118074359D01*
X80817037Y-118100690D01*
X80815368Y-118100847D01*
X80716384Y-118109507D01*
X80716375Y-118109509D01*
X80509260Y-118165005D01*
X80509251Y-118165009D01*
X80314910Y-118255631D01*
X80314908Y-118255632D01*
X80139259Y-118378623D01*
X80139253Y-118378628D01*
X79987628Y-118530253D01*
X79987623Y-118530259D01*
X79864632Y-118705908D01*
X79864631Y-118705910D01*
X79774009Y-118900251D01*
X79774005Y-118900260D01*
X79718509Y-119107375D01*
X79718507Y-119107386D01*
X79699819Y-119320998D01*
X77400500Y-119320998D01*
X77400500Y-114890999D01*
X182578610Y-114890999D01*
X182578610Y-114891000D01*
X183219297Y-114891000D01*
X183184075Y-114952007D01*
X183150000Y-115079174D01*
X183150000Y-115210826D01*
X183184075Y-115337993D01*
X183219297Y-115399000D01*
X182578610Y-115399000D01*
X182619883Y-115544063D01*
X182619886Y-115544069D01*
X182710754Y-115726556D01*
X182833608Y-115889242D01*
X182984260Y-116026578D01*
X183157584Y-116133897D01*
X183347677Y-116207539D01*
X183396000Y-116216572D01*
X183396000Y-115575702D01*
X183457007Y-115610925D01*
X183584174Y-115645000D01*
X183715826Y-115645000D01*
X183842993Y-115610925D01*
X183904000Y-115575702D01*
X183904000Y-116216572D01*
X183952322Y-116207539D01*
X184142415Y-116133897D01*
X184315739Y-116026578D01*
X184466391Y-115889242D01*
X184589245Y-115726556D01*
X184680113Y-115544069D01*
X184680114Y-115544068D01*
X184696233Y-115487413D01*
X184733511Y-115428319D01*
X184796820Y-115398760D01*
X184866060Y-115408121D01*
X184919247Y-115453430D01*
X184939496Y-115520301D01*
X184939500Y-115521345D01*
X184939500Y-116026517D01*
X184950292Y-116094657D01*
X184954354Y-116120304D01*
X185011950Y-116233342D01*
X185011952Y-116233344D01*
X185011954Y-116233347D01*
X185101652Y-116323045D01*
X185101654Y-116323046D01*
X185101658Y-116323050D01*
X185214694Y-116380645D01*
X185214698Y-116380647D01*
X185308475Y-116395499D01*
X185308481Y-116395500D01*
X187071518Y-116395499D01*
X187165304Y-116380646D01*
X187278342Y-116323050D01*
X187368050Y-116233342D01*
X187425646Y-116120304D01*
X187425646Y-116120302D01*
X187425647Y-116120301D01*
X187436282Y-116053147D01*
X187440500Y-116026519D01*
X187440499Y-114263482D01*
X187425646Y-114169696D01*
X187368050Y-114056658D01*
X187368046Y-114056654D01*
X187368045Y-114056652D01*
X187278347Y-113966954D01*
X187278344Y-113966952D01*
X187278342Y-113966950D01*
X187201517Y-113927805D01*
X187165301Y-113909352D01*
X187071524Y-113894500D01*
X185308482Y-113894500D01*
X185227519Y-113907323D01*
X185214696Y-113909354D01*
X185101658Y-113966950D01*
X185101657Y-113966951D01*
X185101652Y-113966954D01*
X185011954Y-114056652D01*
X185011951Y-114056657D01*
X184954352Y-114169698D01*
X184939500Y-114263475D01*
X184939500Y-114768652D01*
X184919815Y-114835691D01*
X184867011Y-114881446D01*
X184797853Y-114891390D01*
X184734297Y-114862365D01*
X184696523Y-114803587D01*
X184696233Y-114802586D01*
X184680112Y-114745928D01*
X184589245Y-114563443D01*
X184466391Y-114400757D01*
X184315739Y-114263421D01*
X184142413Y-114156101D01*
X183952318Y-114082459D01*
X183952308Y-114082456D01*
X183904000Y-114073425D01*
X183904000Y-114714297D01*
X183842993Y-114679075D01*
X183715826Y-114645000D01*
X183584174Y-114645000D01*
X183457007Y-114679075D01*
X183396000Y-114714297D01*
X183396000Y-114073425D01*
X183347691Y-114082456D01*
X183347681Y-114082459D01*
X183157586Y-114156101D01*
X182984260Y-114263421D01*
X182833608Y-114400757D01*
X182710754Y-114563443D01*
X182619886Y-114745930D01*
X182619883Y-114745936D01*
X182578610Y-114890999D01*
X77400500Y-114890999D01*
X77400500Y-106659999D01*
X138897200Y-106659999D01*
X138897200Y-106660000D01*
X138916359Y-106866772D01*
X138973188Y-107066502D01*
X138973193Y-107066515D01*
X139065752Y-107252397D01*
X139190890Y-107418107D01*
X139190892Y-107418110D01*
X139344350Y-107558005D01*
X139344352Y-107558006D01*
X139344355Y-107558009D01*
X139444109Y-107619774D01*
X139520907Y-107667325D01*
X139520909Y-107667326D01*
X139520911Y-107667327D01*
X139714547Y-107742342D01*
X139918670Y-107780500D01*
X139918672Y-107780500D01*
X140126328Y-107780500D01*
X140126330Y-107780500D01*
X140330453Y-107742342D01*
X140524089Y-107667327D01*
X140700645Y-107558009D01*
X140854107Y-107418110D01*
X140979249Y-107252394D01*
X141071811Y-107066505D01*
X141128640Y-106866773D01*
X141147800Y-106660000D01*
X141128640Y-106453227D01*
X141071811Y-106253495D01*
X140979249Y-106067606D01*
X140979248Y-106067605D01*
X140979247Y-106067602D01*
X140854109Y-105901892D01*
X140854107Y-105901889D01*
X140700649Y-105761994D01*
X140700643Y-105761990D01*
X140524092Y-105652674D01*
X140524083Y-105652670D01*
X140433889Y-105617729D01*
X140330453Y-105577658D01*
X140126330Y-105539500D01*
X139918670Y-105539500D01*
X139714547Y-105577658D01*
X139520916Y-105652670D01*
X139520907Y-105652674D01*
X139344356Y-105761990D01*
X139344350Y-105761994D01*
X139190892Y-105901889D01*
X139190890Y-105901892D01*
X139065752Y-106067602D01*
X138973193Y-106253484D01*
X138973188Y-106253497D01*
X138916359Y-106453227D01*
X138897200Y-106659999D01*
X77400500Y-106659999D01*
X77400500Y-103445000D01*
X80064417Y-103445000D01*
X80084699Y-103650932D01*
X80102769Y-103710500D01*
X80144768Y-103848954D01*
X80242315Y-104031450D01*
X80242317Y-104031452D01*
X80373589Y-104191410D01*
X80414237Y-104224768D01*
X80533550Y-104322685D01*
X80716046Y-104420232D01*
X80914066Y-104480300D01*
X80914065Y-104480300D01*
X80932529Y-104482118D01*
X81120000Y-104500583D01*
X81325934Y-104480300D01*
X81523954Y-104420232D01*
X81706450Y-104322685D01*
X81866410Y-104191410D01*
X81997685Y-104031450D01*
X82095232Y-103848954D01*
X82155300Y-103650934D01*
X82175583Y-103445000D01*
X85144417Y-103445000D01*
X85164699Y-103650932D01*
X85182769Y-103710500D01*
X85224768Y-103848954D01*
X85322315Y-104031450D01*
X85322317Y-104031452D01*
X85453589Y-104191410D01*
X85494237Y-104224768D01*
X85613550Y-104322685D01*
X85796046Y-104420232D01*
X85994066Y-104480300D01*
X85994065Y-104480300D01*
X86012529Y-104482118D01*
X86200000Y-104500583D01*
X86405934Y-104480300D01*
X86603954Y-104420232D01*
X86786450Y-104322685D01*
X86946410Y-104191410D01*
X87005015Y-104119999D01*
X136357200Y-104119999D01*
X136357200Y-104120000D01*
X136376359Y-104326772D01*
X136433188Y-104526502D01*
X136433193Y-104526515D01*
X136525752Y-104712397D01*
X136650890Y-104878107D01*
X136650892Y-104878110D01*
X136804350Y-105018005D01*
X136804352Y-105018006D01*
X136804355Y-105018009D01*
X136904109Y-105079774D01*
X136980907Y-105127325D01*
X136980909Y-105127326D01*
X136980911Y-105127327D01*
X137174547Y-105202342D01*
X137378670Y-105240500D01*
X137378672Y-105240500D01*
X137586328Y-105240500D01*
X137586330Y-105240500D01*
X137790453Y-105202342D01*
X137984089Y-105127327D01*
X138160645Y-105018009D01*
X138314107Y-104878110D01*
X138439249Y-104712394D01*
X138531811Y-104526505D01*
X138588640Y-104326773D01*
X138607800Y-104120000D01*
X138607800Y-104119999D01*
X141437200Y-104119999D01*
X141437200Y-104120000D01*
X141456359Y-104326772D01*
X141513188Y-104526502D01*
X141513193Y-104526515D01*
X141605752Y-104712397D01*
X141730890Y-104878107D01*
X141730892Y-104878110D01*
X141884350Y-105018005D01*
X141884352Y-105018006D01*
X141884355Y-105018009D01*
X141984109Y-105079774D01*
X142060907Y-105127325D01*
X142060909Y-105127326D01*
X142060911Y-105127327D01*
X142254547Y-105202342D01*
X142458670Y-105240500D01*
X142458672Y-105240500D01*
X142666328Y-105240500D01*
X142666330Y-105240500D01*
X142870453Y-105202342D01*
X143064089Y-105127327D01*
X143240645Y-105018009D01*
X143394107Y-104878110D01*
X143519249Y-104712394D01*
X143611811Y-104526505D01*
X143668640Y-104326773D01*
X143687800Y-104120000D01*
X143668640Y-103913227D01*
X143611811Y-103713495D01*
X143610319Y-103710499D01*
X143519247Y-103527602D01*
X143394109Y-103361892D01*
X143394107Y-103361889D01*
X143240649Y-103221994D01*
X143240643Y-103221990D01*
X143064092Y-103112674D01*
X143064083Y-103112670D01*
X142973889Y-103077729D01*
X142870453Y-103037658D01*
X142666330Y-102999500D01*
X142458670Y-102999500D01*
X142254547Y-103037658D01*
X142060916Y-103112670D01*
X142060907Y-103112674D01*
X141884356Y-103221990D01*
X141884350Y-103221994D01*
X141730892Y-103361889D01*
X141730890Y-103361892D01*
X141605752Y-103527602D01*
X141513193Y-103713484D01*
X141513188Y-103713497D01*
X141456359Y-103913227D01*
X141437200Y-104119999D01*
X138607800Y-104119999D01*
X138588640Y-103913227D01*
X138531811Y-103713495D01*
X138530319Y-103710499D01*
X138439247Y-103527602D01*
X138314109Y-103361892D01*
X138314107Y-103361889D01*
X138160649Y-103221994D01*
X138160643Y-103221990D01*
X137984092Y-103112674D01*
X137984083Y-103112670D01*
X137893889Y-103077729D01*
X137790453Y-103037658D01*
X137586330Y-102999500D01*
X137378670Y-102999500D01*
X137174547Y-103037658D01*
X136980916Y-103112670D01*
X136980907Y-103112674D01*
X136804356Y-103221990D01*
X136804350Y-103221994D01*
X136650892Y-103361889D01*
X136650890Y-103361892D01*
X136525752Y-103527602D01*
X136433193Y-103713484D01*
X136433188Y-103713497D01*
X136376359Y-103913227D01*
X136357200Y-104119999D01*
X87005015Y-104119999D01*
X87077685Y-104031450D01*
X87175232Y-103848954D01*
X87235300Y-103650934D01*
X87255583Y-103445000D01*
X87235300Y-103239066D01*
X87175232Y-103041046D01*
X87077685Y-102858550D01*
X87025702Y-102795209D01*
X86946410Y-102698589D01*
X86786452Y-102567317D01*
X86786453Y-102567317D01*
X86786450Y-102567315D01*
X86603954Y-102469768D01*
X86405934Y-102409700D01*
X86405932Y-102409699D01*
X86405934Y-102409699D01*
X86200000Y-102389417D01*
X85994067Y-102409699D01*
X85796043Y-102469769D01*
X85685898Y-102528643D01*
X85613550Y-102567315D01*
X85613548Y-102567316D01*
X85613547Y-102567317D01*
X85453589Y-102698589D01*
X85322317Y-102858547D01*
X85224769Y-103041043D01*
X85164699Y-103239067D01*
X85144417Y-103445000D01*
X82175583Y-103445000D01*
X82155300Y-103239066D01*
X82095232Y-103041046D01*
X81997685Y-102858550D01*
X81945702Y-102795209D01*
X81866410Y-102698589D01*
X81706452Y-102567317D01*
X81706453Y-102567317D01*
X81706450Y-102567315D01*
X81523954Y-102469768D01*
X81325934Y-102409700D01*
X81325932Y-102409699D01*
X81325934Y-102409699D01*
X81120000Y-102389417D01*
X80914067Y-102409699D01*
X80716043Y-102469769D01*
X80605898Y-102528643D01*
X80533550Y-102567315D01*
X80533548Y-102567316D01*
X80533547Y-102567317D01*
X80373589Y-102698589D01*
X80242317Y-102858547D01*
X80144769Y-103041043D01*
X80084699Y-103239067D01*
X80064417Y-103445000D01*
X77400500Y-103445000D01*
X77400500Y-100223475D01*
X82609500Y-100223475D01*
X82609500Y-101586517D01*
X82615493Y-101624354D01*
X82624354Y-101680304D01*
X82681950Y-101793342D01*
X82681952Y-101793344D01*
X82681954Y-101793347D01*
X82771652Y-101883045D01*
X82771654Y-101883046D01*
X82771658Y-101883050D01*
X82884694Y-101940645D01*
X82884698Y-101940647D01*
X82978475Y-101955499D01*
X82978481Y-101955500D01*
X84341518Y-101955499D01*
X84435304Y-101940646D01*
X84548342Y-101883050D01*
X84638050Y-101793342D01*
X84695646Y-101680304D01*
X84695646Y-101680302D01*
X84695647Y-101680301D01*
X84710499Y-101586524D01*
X84710500Y-101586519D01*
X84710499Y-100223482D01*
X84695646Y-100129696D01*
X84638050Y-100016658D01*
X84638046Y-100016654D01*
X84638045Y-100016652D01*
X84548347Y-99926954D01*
X84548344Y-99926952D01*
X84548342Y-99926950D01*
X84471517Y-99887805D01*
X84435301Y-99869352D01*
X84341524Y-99854500D01*
X82978482Y-99854500D01*
X82897519Y-99867323D01*
X82884696Y-99869354D01*
X82771658Y-99926950D01*
X82771657Y-99926951D01*
X82771652Y-99926954D01*
X82681954Y-100016652D01*
X82681951Y-100016657D01*
X82624352Y-100129698D01*
X82609500Y-100223475D01*
X77400500Y-100223475D01*
X77400500Y-98365000D01*
X80064417Y-98365000D01*
X80084699Y-98570932D01*
X80096734Y-98610606D01*
X80144768Y-98768954D01*
X80242315Y-98951450D01*
X80242317Y-98951452D01*
X80373589Y-99111410D01*
X80414237Y-99144768D01*
X80533550Y-99242685D01*
X80716046Y-99340232D01*
X80914066Y-99400300D01*
X80914065Y-99400300D01*
X80932529Y-99402118D01*
X81120000Y-99420583D01*
X81325934Y-99400300D01*
X81523954Y-99340232D01*
X81706450Y-99242685D01*
X81866410Y-99111410D01*
X81997685Y-98951450D01*
X82095232Y-98768954D01*
X82155300Y-98570934D01*
X82175583Y-98365000D01*
X85295043Y-98365000D01*
X85314819Y-98553154D01*
X85373279Y-98733076D01*
X85409674Y-98796114D01*
X85800000Y-98405789D01*
X85800000Y-98417661D01*
X85827259Y-98519394D01*
X85879920Y-98610606D01*
X85954394Y-98685080D01*
X86045606Y-98737741D01*
X86147339Y-98765000D01*
X86159210Y-98765000D01*
X85766875Y-99157332D01*
X85920353Y-99225665D01*
X86105406Y-99265000D01*
X86294594Y-99265000D01*
X86479644Y-99225665D01*
X86633123Y-99157332D01*
X86240791Y-98765000D01*
X86252661Y-98765000D01*
X86354394Y-98737741D01*
X86445606Y-98685080D01*
X86520080Y-98610606D01*
X86572741Y-98519394D01*
X86600000Y-98417661D01*
X86600000Y-98405791D01*
X86990324Y-98796115D01*
X87026718Y-98733079D01*
X87026721Y-98733072D01*
X87085180Y-98553154D01*
X87090767Y-98500000D01*
X136626917Y-98500000D01*
X136647199Y-98705932D01*
X136659234Y-98745606D01*
X136707268Y-98903954D01*
X136804815Y-99086450D01*
X136804817Y-99086452D01*
X136936089Y-99246410D01*
X136992046Y-99292332D01*
X137096050Y-99377685D01*
X137278546Y-99475232D01*
X137476566Y-99535300D01*
X137476565Y-99535300D01*
X137495029Y-99537118D01*
X137682500Y-99555583D01*
X137888434Y-99535300D01*
X138086454Y-99475232D01*
X138268950Y-99377685D01*
X138428910Y-99246410D01*
X138560185Y-99086450D01*
X138657732Y-98903954D01*
X138717800Y-98705934D01*
X138738083Y-98500000D01*
X141857543Y-98500000D01*
X141877319Y-98688154D01*
X141935779Y-98868076D01*
X141972174Y-98931114D01*
X142362500Y-98540789D01*
X142362500Y-98552661D01*
X142389759Y-98654394D01*
X142442420Y-98745606D01*
X142516894Y-98820080D01*
X142608106Y-98872741D01*
X142709839Y-98900000D01*
X142721710Y-98900000D01*
X142329375Y-99292332D01*
X142482853Y-99360665D01*
X142667906Y-99400000D01*
X142857094Y-99400000D01*
X143042144Y-99360665D01*
X143195623Y-99292332D01*
X142803291Y-98900000D01*
X142815161Y-98900000D01*
X142916894Y-98872741D01*
X143008106Y-98820080D01*
X143082580Y-98745606D01*
X143135241Y-98654394D01*
X143162500Y-98552661D01*
X143162500Y-98540791D01*
X143552824Y-98931115D01*
X143589218Y-98868079D01*
X143589221Y-98868072D01*
X143647680Y-98688154D01*
X143667456Y-98500000D01*
X143647680Y-98311845D01*
X143589218Y-98131919D01*
X143552825Y-98068884D01*
X143552824Y-98068883D01*
X143162500Y-98459208D01*
X143162500Y-98447339D01*
X143135241Y-98345606D01*
X143082580Y-98254394D01*
X143008106Y-98179920D01*
X142916894Y-98127259D01*
X142815161Y-98100000D01*
X142803291Y-98100000D01*
X143195623Y-97707666D01*
X143042144Y-97639334D01*
X142857094Y-97600000D01*
X142667906Y-97600000D01*
X142482855Y-97639334D01*
X142329375Y-97707666D01*
X142721710Y-98100000D01*
X142709839Y-98100000D01*
X142608106Y-98127259D01*
X142516894Y-98179920D01*
X142442420Y-98254394D01*
X142389759Y-98345606D01*
X142362500Y-98447339D01*
X142362500Y-98459210D01*
X141972173Y-98068883D01*
X141972173Y-98068884D01*
X141935782Y-98131918D01*
X141877319Y-98311846D01*
X141857543Y-98500000D01*
X138738083Y-98500000D01*
X138717800Y-98294066D01*
X138657732Y-98096046D01*
X138560185Y-97913550D01*
X138508202Y-97850209D01*
X138428910Y-97753589D01*
X138268952Y-97622317D01*
X138268953Y-97622317D01*
X138268950Y-97622315D01*
X138086454Y-97524768D01*
X137888434Y-97464700D01*
X137888432Y-97464699D01*
X137888434Y-97464699D01*
X137682500Y-97444417D01*
X137476567Y-97464699D01*
X137278543Y-97524769D01*
X137188936Y-97572666D01*
X137096050Y-97622315D01*
X137096048Y-97622316D01*
X137096047Y-97622317D01*
X136936089Y-97753589D01*
X136804817Y-97913547D01*
X136707269Y-98096043D01*
X136647199Y-98294067D01*
X136626917Y-98500000D01*
X87090767Y-98500000D01*
X87104956Y-98365000D01*
X87085180Y-98176845D01*
X87026718Y-97996919D01*
X86990325Y-97933884D01*
X86990324Y-97933883D01*
X86600000Y-98324208D01*
X86600000Y-98312339D01*
X86572741Y-98210606D01*
X86520080Y-98119394D01*
X86445606Y-98044920D01*
X86354394Y-97992259D01*
X86252661Y-97965000D01*
X86240791Y-97965000D01*
X86633123Y-97572666D01*
X86479644Y-97504334D01*
X86294594Y-97465000D01*
X86105406Y-97465000D01*
X85920355Y-97504334D01*
X85766875Y-97572666D01*
X86159210Y-97965000D01*
X86147339Y-97965000D01*
X86045606Y-97992259D01*
X85954394Y-98044920D01*
X85879920Y-98119394D01*
X85827259Y-98210606D01*
X85800000Y-98312339D01*
X85800000Y-98324210D01*
X85409673Y-97933883D01*
X85409673Y-97933884D01*
X85373282Y-97996918D01*
X85314819Y-98176846D01*
X85295043Y-98365000D01*
X82175583Y-98365000D01*
X82155300Y-98159066D01*
X82095232Y-97961046D01*
X81997685Y-97778550D01*
X81939512Y-97707666D01*
X81866410Y-97618589D01*
X81706452Y-97487317D01*
X81706453Y-97487317D01*
X81706450Y-97487315D01*
X81523954Y-97389768D01*
X81325934Y-97329700D01*
X81325932Y-97329699D01*
X81325934Y-97329699D01*
X81120000Y-97309417D01*
X80914067Y-97329699D01*
X80716043Y-97389769D01*
X80613806Y-97444417D01*
X80533550Y-97487315D01*
X80533548Y-97487316D01*
X80533547Y-97487317D01*
X80373589Y-97618589D01*
X80242317Y-97778547D01*
X80144769Y-97961043D01*
X80084699Y-98159067D01*
X80064417Y-98365000D01*
X77400500Y-98365000D01*
X77400500Y-95278475D01*
X139172000Y-95278475D01*
X139172000Y-96641517D01*
X139182792Y-96709657D01*
X139186854Y-96735304D01*
X139244450Y-96848342D01*
X139244452Y-96848344D01*
X139244454Y-96848347D01*
X139334152Y-96938045D01*
X139334154Y-96938046D01*
X139334158Y-96938050D01*
X139447194Y-96995645D01*
X139447198Y-96995647D01*
X139540975Y-97010499D01*
X139540981Y-97010500D01*
X140904018Y-97010499D01*
X140997804Y-96995646D01*
X141110842Y-96938050D01*
X141200550Y-96848342D01*
X141258146Y-96735304D01*
X141258146Y-96735302D01*
X141258147Y-96735301D01*
X141272999Y-96641524D01*
X141273000Y-96641519D01*
X141272999Y-95278482D01*
X141258146Y-95184696D01*
X141200550Y-95071658D01*
X141200546Y-95071654D01*
X141200545Y-95071652D01*
X141110847Y-94981954D01*
X141110844Y-94981952D01*
X141110842Y-94981950D01*
X141034017Y-94942805D01*
X140997801Y-94924352D01*
X140904024Y-94909500D01*
X139540982Y-94909500D01*
X139460019Y-94922323D01*
X139447196Y-94924354D01*
X139334158Y-94981950D01*
X139334157Y-94981951D01*
X139334152Y-94981954D01*
X139244454Y-95071652D01*
X139244451Y-95071657D01*
X139186852Y-95184698D01*
X139172000Y-95278475D01*
X77400500Y-95278475D01*
X77400500Y-93420000D01*
X136626917Y-93420000D01*
X136647199Y-93625932D01*
X136647200Y-93625934D01*
X136707268Y-93823954D01*
X136804815Y-94006450D01*
X136804817Y-94006452D01*
X136936089Y-94166410D01*
X137032709Y-94245702D01*
X137096050Y-94297685D01*
X137278546Y-94395232D01*
X137476566Y-94455300D01*
X137476565Y-94455300D01*
X137495029Y-94457118D01*
X137682500Y-94475583D01*
X137888434Y-94455300D01*
X138086454Y-94395232D01*
X138268950Y-94297685D01*
X138428910Y-94166410D01*
X138560185Y-94006450D01*
X138657732Y-93823954D01*
X138717800Y-93625934D01*
X138738083Y-93420000D01*
X141706917Y-93420000D01*
X141727199Y-93625932D01*
X141727200Y-93625934D01*
X141787268Y-93823954D01*
X141884815Y-94006450D01*
X141884817Y-94006452D01*
X142016089Y-94166410D01*
X142112709Y-94245702D01*
X142176050Y-94297685D01*
X142358546Y-94395232D01*
X142556566Y-94455300D01*
X142556565Y-94455300D01*
X142575029Y-94457118D01*
X142762500Y-94475583D01*
X142968434Y-94455300D01*
X143166454Y-94395232D01*
X143348950Y-94297685D01*
X143508910Y-94166410D01*
X143640185Y-94006450D01*
X143737732Y-93823954D01*
X143797800Y-93625934D01*
X143818083Y-93420000D01*
X143797800Y-93214066D01*
X143737732Y-93016046D01*
X143640185Y-92833550D01*
X143539106Y-92710384D01*
X143508910Y-92673589D01*
X143416133Y-92597450D01*
X158131512Y-92597450D01*
X158131512Y-109199778D01*
X158135572Y-109272635D01*
X158140489Y-109316601D01*
X158148959Y-109371300D01*
X158148959Y-109371301D01*
X158200876Y-109527180D01*
X158200879Y-109527188D01*
X158200880Y-109527190D01*
X158239176Y-109607046D01*
X158239181Y-109607054D01*
X158239183Y-109607058D01*
X158306276Y-109717502D01*
X158306277Y-109717504D01*
X158420687Y-109835420D01*
X158420702Y-109835433D01*
X158489843Y-109890755D01*
X158489847Y-109890758D01*
X158598219Y-109961155D01*
X158752473Y-110017759D01*
X158814484Y-110032019D01*
X158838783Y-110037607D01*
X158984609Y-110054278D01*
X158984610Y-110054278D01*
X158984619Y-110054279D01*
X161548671Y-110058459D01*
X161586921Y-110058522D01*
X161586921Y-110058521D01*
X161586930Y-110058522D01*
X161639953Y-110055630D01*
X161707964Y-110071634D01*
X161756527Y-110121868D01*
X161770223Y-110190382D01*
X161770177Y-110190886D01*
X161764700Y-110249997D01*
X161764700Y-110250000D01*
X161783859Y-110456772D01*
X161840688Y-110656502D01*
X161840693Y-110656515D01*
X161933252Y-110842397D01*
X162058390Y-111008107D01*
X162058392Y-111008110D01*
X162211850Y-111148005D01*
X162211852Y-111148006D01*
X162211855Y-111148009D01*
X162311609Y-111209774D01*
X162388407Y-111257325D01*
X162388409Y-111257326D01*
X162388411Y-111257327D01*
X162582047Y-111332342D01*
X162786170Y-111370500D01*
X162786172Y-111370500D01*
X162993828Y-111370500D01*
X162993830Y-111370500D01*
X163197953Y-111332342D01*
X163391589Y-111257327D01*
X163568145Y-111148009D01*
X163721607Y-111008110D01*
X163846749Y-110842394D01*
X163939311Y-110656505D01*
X163996140Y-110456773D01*
X164015300Y-110250000D01*
X164015300Y-110249999D01*
X166844700Y-110249999D01*
X166844700Y-110250000D01*
X166863859Y-110456772D01*
X166920688Y-110656502D01*
X166920693Y-110656515D01*
X167013252Y-110842397D01*
X167138390Y-111008107D01*
X167138392Y-111008110D01*
X167291850Y-111148005D01*
X167291852Y-111148006D01*
X167291855Y-111148009D01*
X167391609Y-111209774D01*
X167468407Y-111257325D01*
X167468409Y-111257326D01*
X167468411Y-111257327D01*
X167662047Y-111332342D01*
X167866170Y-111370500D01*
X167866172Y-111370500D01*
X168073828Y-111370500D01*
X168073830Y-111370500D01*
X168277953Y-111332342D01*
X168471589Y-111257327D01*
X168648145Y-111148009D01*
X168801607Y-111008110D01*
X168926749Y-110842394D01*
X169019311Y-110656505D01*
X169076140Y-110456773D01*
X169095300Y-110250000D01*
X169076140Y-110043227D01*
X169019311Y-109843495D01*
X169015290Y-109835420D01*
X168926747Y-109657602D01*
X168801609Y-109491892D01*
X168801607Y-109491889D01*
X168648149Y-109351994D01*
X168648143Y-109351990D01*
X168471592Y-109242674D01*
X168471583Y-109242670D01*
X168360864Y-109199778D01*
X168277953Y-109167658D01*
X168073830Y-109129500D01*
X167866170Y-109129500D01*
X167662047Y-109167658D01*
X167468416Y-109242670D01*
X167468407Y-109242674D01*
X167291856Y-109351990D01*
X167291850Y-109351994D01*
X167138392Y-109491889D01*
X167138390Y-109491892D01*
X167013252Y-109657602D01*
X166920693Y-109843484D01*
X166920688Y-109843497D01*
X166863859Y-110043227D01*
X166844700Y-110249999D01*
X164015300Y-110249999D01*
X163996140Y-110043227D01*
X163939311Y-109843495D01*
X163935290Y-109835420D01*
X163846747Y-109657602D01*
X163721609Y-109491892D01*
X163721607Y-109491889D01*
X163568149Y-109351994D01*
X163568143Y-109351990D01*
X163391592Y-109242674D01*
X163391583Y-109242670D01*
X163280864Y-109199778D01*
X163197953Y-109167658D01*
X162993830Y-109129500D01*
X162786170Y-109129500D01*
X162589857Y-109166197D01*
X162520343Y-109159167D01*
X162465665Y-109115670D01*
X162443182Y-109049516D01*
X162443074Y-109044170D01*
X162445161Y-107709999D01*
X164304700Y-107709999D01*
X164304700Y-107710000D01*
X164323859Y-107916772D01*
X164380688Y-108116502D01*
X164380693Y-108116515D01*
X164473252Y-108302397D01*
X164598390Y-108468107D01*
X164598392Y-108468110D01*
X164751850Y-108608005D01*
X164751852Y-108608006D01*
X164751855Y-108608009D01*
X164851609Y-108669774D01*
X164928407Y-108717325D01*
X164928409Y-108717326D01*
X164928411Y-108717327D01*
X165122047Y-108792342D01*
X165326170Y-108830500D01*
X165326172Y-108830500D01*
X165533828Y-108830500D01*
X165533830Y-108830500D01*
X165737953Y-108792342D01*
X165931589Y-108717327D01*
X166108145Y-108608009D01*
X166261607Y-108468110D01*
X166386749Y-108302394D01*
X166479311Y-108116505D01*
X166536140Y-107916773D01*
X166555300Y-107710000D01*
X166536140Y-107503227D01*
X166479311Y-107303495D01*
X166386749Y-107117606D01*
X166386748Y-107117605D01*
X166386747Y-107117602D01*
X166261609Y-106951892D01*
X166261607Y-106951889D01*
X166108149Y-106811994D01*
X166108143Y-106811990D01*
X165931592Y-106702674D01*
X165931583Y-106702670D01*
X165821437Y-106660000D01*
X165737953Y-106627658D01*
X165533830Y-106589500D01*
X165326170Y-106589500D01*
X165122047Y-106627658D01*
X164928416Y-106702670D01*
X164928407Y-106702674D01*
X164751856Y-106811990D01*
X164751850Y-106811994D01*
X164598392Y-106951889D01*
X164598390Y-106951892D01*
X164473252Y-107117602D01*
X164380693Y-107303484D01*
X164380688Y-107303497D01*
X164323859Y-107503227D01*
X164304700Y-107709999D01*
X162445161Y-107709999D01*
X162449087Y-105200000D01*
X192615043Y-105200000D01*
X192634819Y-105388154D01*
X192693279Y-105568076D01*
X192729674Y-105631114D01*
X193120000Y-105240789D01*
X193120000Y-105252661D01*
X193147259Y-105354394D01*
X193199920Y-105445606D01*
X193274394Y-105520080D01*
X193365606Y-105572741D01*
X193467339Y-105600000D01*
X193479210Y-105600000D01*
X193086875Y-105992332D01*
X193240353Y-106060665D01*
X193425406Y-106100000D01*
X193614594Y-106100000D01*
X193799644Y-106060665D01*
X193953123Y-105992332D01*
X193560791Y-105600000D01*
X193572661Y-105600000D01*
X193674394Y-105572741D01*
X193765606Y-105520080D01*
X193840080Y-105445606D01*
X193892741Y-105354394D01*
X193920000Y-105252661D01*
X193920000Y-105240791D01*
X194310324Y-105631115D01*
X194346718Y-105568079D01*
X194346721Y-105568072D01*
X194405180Y-105388154D01*
X194424956Y-105200000D01*
X197544417Y-105200000D01*
X197564699Y-105405932D01*
X197564700Y-105405934D01*
X197624768Y-105603954D01*
X197722315Y-105786450D01*
X197722317Y-105786452D01*
X197853589Y-105946410D01*
X197909546Y-105992332D01*
X198013550Y-106077685D01*
X198196046Y-106175232D01*
X198394066Y-106235300D01*
X198394065Y-106235300D01*
X198412529Y-106237118D01*
X198600000Y-106255583D01*
X198805934Y-106235300D01*
X199003954Y-106175232D01*
X199186450Y-106077685D01*
X199346410Y-105946410D01*
X199477685Y-105786450D01*
X199575232Y-105603954D01*
X199635300Y-105405934D01*
X199655583Y-105200000D01*
X199635300Y-104994066D01*
X199575232Y-104796046D01*
X199477685Y-104613550D01*
X199406258Y-104526515D01*
X199346410Y-104453589D01*
X199191881Y-104326772D01*
X199186450Y-104322315D01*
X199003954Y-104224768D01*
X198805934Y-104164700D01*
X198805932Y-104164699D01*
X198805934Y-104164699D01*
X198600000Y-104144417D01*
X198394067Y-104164699D01*
X198196043Y-104224769D01*
X198085898Y-104283643D01*
X198013550Y-104322315D01*
X198013548Y-104322316D01*
X198013547Y-104322317D01*
X197853589Y-104453589D01*
X197722317Y-104613547D01*
X197624769Y-104796043D01*
X197564699Y-104994067D01*
X197544417Y-105200000D01*
X194424956Y-105200000D01*
X194405180Y-105011845D01*
X194346718Y-104831919D01*
X194310325Y-104768884D01*
X194310324Y-104768883D01*
X193920000Y-105159208D01*
X193920000Y-105147339D01*
X193892741Y-105045606D01*
X193840080Y-104954394D01*
X193765606Y-104879920D01*
X193674394Y-104827259D01*
X193572661Y-104800000D01*
X193560791Y-104800000D01*
X193953123Y-104407666D01*
X193799644Y-104339334D01*
X193614594Y-104300000D01*
X193425406Y-104300000D01*
X193240355Y-104339334D01*
X193086875Y-104407666D01*
X193479210Y-104800000D01*
X193467339Y-104800000D01*
X193365606Y-104827259D01*
X193274394Y-104879920D01*
X193199920Y-104954394D01*
X193147259Y-105045606D01*
X193120000Y-105147339D01*
X193120000Y-105159210D01*
X192729673Y-104768883D01*
X192729673Y-104768884D01*
X192693282Y-104831918D01*
X192634819Y-105011846D01*
X192615043Y-105200000D01*
X162449087Y-105200000D01*
X162454126Y-101978475D01*
X195009500Y-101978475D01*
X195009500Y-103341517D01*
X195020292Y-103409657D01*
X195024354Y-103435304D01*
X195081950Y-103548342D01*
X195081952Y-103548344D01*
X195081954Y-103548347D01*
X195171652Y-103638045D01*
X195171654Y-103638046D01*
X195171658Y-103638050D01*
X195284694Y-103695645D01*
X195284698Y-103695647D01*
X195378475Y-103710499D01*
X195378481Y-103710500D01*
X196741518Y-103710499D01*
X196835304Y-103695646D01*
X196948342Y-103638050D01*
X197038050Y-103548342D01*
X197095646Y-103435304D01*
X197095646Y-103435302D01*
X197095647Y-103435301D01*
X197110499Y-103341524D01*
X197110500Y-103341519D01*
X197110499Y-101978482D01*
X197095646Y-101884696D01*
X197038050Y-101771658D01*
X197038046Y-101771654D01*
X197038045Y-101771652D01*
X196948347Y-101681954D01*
X196948344Y-101681952D01*
X196948342Y-101681950D01*
X196871517Y-101642805D01*
X196835301Y-101624352D01*
X196741524Y-101609500D01*
X195378482Y-101609500D01*
X195297519Y-101622323D01*
X195284696Y-101624354D01*
X195171658Y-101681950D01*
X195171657Y-101681951D01*
X195171652Y-101681954D01*
X195081954Y-101771652D01*
X195081951Y-101771657D01*
X195081950Y-101771658D01*
X195070899Y-101793347D01*
X195024352Y-101884698D01*
X195009500Y-101978475D01*
X162454126Y-101978475D01*
X162462744Y-96468475D01*
X185574500Y-96468475D01*
X185574500Y-98231517D01*
X185584407Y-98294066D01*
X185589354Y-98325304D01*
X185646950Y-98438342D01*
X185646952Y-98438344D01*
X185646954Y-98438347D01*
X185736652Y-98528045D01*
X185736654Y-98528046D01*
X185736658Y-98528050D01*
X185849694Y-98585645D01*
X185849698Y-98585647D01*
X185943475Y-98600499D01*
X185943481Y-98600500D01*
X186445189Y-98600499D01*
X186512226Y-98620183D01*
X186557981Y-98672987D01*
X186567925Y-98742146D01*
X186538900Y-98805702D01*
X186489981Y-98840125D01*
X186332590Y-98901098D01*
X186332588Y-98901100D01*
X186159260Y-99008421D01*
X186008608Y-99145757D01*
X185885754Y-99308443D01*
X185794886Y-99490930D01*
X185794883Y-99490936D01*
X185753610Y-99635999D01*
X185753610Y-99636000D01*
X186394297Y-99636000D01*
X186359075Y-99697007D01*
X186325000Y-99824174D01*
X186325000Y-99955826D01*
X186359075Y-100082993D01*
X186394297Y-100144000D01*
X185753610Y-100144000D01*
X185794883Y-100289063D01*
X185794886Y-100289069D01*
X185885754Y-100471556D01*
X186008608Y-100634242D01*
X186159260Y-100771578D01*
X186332584Y-100878897D01*
X186522677Y-100952539D01*
X186571000Y-100961572D01*
X186571000Y-100320702D01*
X186632007Y-100355925D01*
X186759174Y-100390000D01*
X186890826Y-100390000D01*
X187017993Y-100355925D01*
X187079000Y-100320702D01*
X187079000Y-100961572D01*
X187127322Y-100952539D01*
X187317415Y-100878897D01*
X187490739Y-100771578D01*
X187641391Y-100634242D01*
X187764245Y-100471556D01*
X187855113Y-100289069D01*
X187855116Y-100289063D01*
X187896389Y-100144000D01*
X187255703Y-100144000D01*
X187269559Y-100120000D01*
X192464417Y-100120000D01*
X192484699Y-100325932D01*
X192504134Y-100390000D01*
X192544768Y-100523954D01*
X192642315Y-100706450D01*
X192642317Y-100706452D01*
X192773589Y-100866410D01*
X192870209Y-100945702D01*
X192933550Y-100997685D01*
X193116046Y-101095232D01*
X193314066Y-101155300D01*
X193314065Y-101155300D01*
X193332529Y-101157118D01*
X193520000Y-101175583D01*
X193725934Y-101155300D01*
X193923954Y-101095232D01*
X194106450Y-100997685D01*
X194266410Y-100866410D01*
X194397685Y-100706450D01*
X194495232Y-100523954D01*
X194555300Y-100325934D01*
X194575583Y-100120000D01*
X197544417Y-100120000D01*
X197564699Y-100325932D01*
X197584134Y-100390000D01*
X197624768Y-100523954D01*
X197722315Y-100706450D01*
X197722317Y-100706452D01*
X197853589Y-100866410D01*
X197950209Y-100945702D01*
X198013550Y-100997685D01*
X198196046Y-101095232D01*
X198394066Y-101155300D01*
X198394065Y-101155300D01*
X198412529Y-101157118D01*
X198600000Y-101175583D01*
X198805934Y-101155300D01*
X199003954Y-101095232D01*
X199186450Y-100997685D01*
X199346410Y-100866410D01*
X199477685Y-100706450D01*
X199575232Y-100523954D01*
X199635300Y-100325934D01*
X199655583Y-100120000D01*
X199635300Y-99914066D01*
X199575232Y-99716046D01*
X199477685Y-99533550D01*
X199384976Y-99420583D01*
X199346410Y-99373589D01*
X199214092Y-99265000D01*
X199186450Y-99242315D01*
X199003954Y-99144768D01*
X198805934Y-99084700D01*
X198805932Y-99084699D01*
X198805934Y-99084699D01*
X198600000Y-99064417D01*
X198394067Y-99084699D01*
X198196043Y-99144769D01*
X198085898Y-99203643D01*
X198013550Y-99242315D01*
X198013548Y-99242316D01*
X198013547Y-99242317D01*
X197853589Y-99373589D01*
X197722317Y-99533547D01*
X197624769Y-99716043D01*
X197564699Y-99914067D01*
X197544417Y-100120000D01*
X194575583Y-100120000D01*
X194555300Y-99914066D01*
X194495232Y-99716046D01*
X194397685Y-99533550D01*
X194304976Y-99420583D01*
X194266410Y-99373589D01*
X194134092Y-99265000D01*
X194106450Y-99242315D01*
X193923954Y-99144768D01*
X193725934Y-99084700D01*
X193725932Y-99084699D01*
X193725934Y-99084699D01*
X193520000Y-99064417D01*
X193314067Y-99084699D01*
X193116043Y-99144769D01*
X193005898Y-99203643D01*
X192933550Y-99242315D01*
X192933548Y-99242316D01*
X192933547Y-99242317D01*
X192773589Y-99373589D01*
X192642317Y-99533547D01*
X192544769Y-99716043D01*
X192484699Y-99914067D01*
X192464417Y-100120000D01*
X187269559Y-100120000D01*
X187290925Y-100082993D01*
X187325000Y-99955826D01*
X187325000Y-99824174D01*
X187290925Y-99697007D01*
X187255703Y-99636000D01*
X187896390Y-99636000D01*
X187896389Y-99635999D01*
X187855116Y-99490936D01*
X187855113Y-99490930D01*
X187764245Y-99308443D01*
X187641391Y-99145757D01*
X187490739Y-99008421D01*
X187317414Y-98901102D01*
X187160017Y-98840126D01*
X187104616Y-98797553D01*
X187081025Y-98731786D01*
X187096736Y-98663706D01*
X187146760Y-98614927D01*
X187204809Y-98600499D01*
X187706518Y-98600499D01*
X187800304Y-98585646D01*
X187913342Y-98528050D01*
X188003050Y-98438342D01*
X188060646Y-98325304D01*
X188060646Y-98325302D01*
X188060647Y-98325301D01*
X188075499Y-98231524D01*
X188075500Y-98231519D01*
X188075499Y-96468482D01*
X188060646Y-96374696D01*
X188003050Y-96261658D01*
X188003046Y-96261654D01*
X188003045Y-96261652D01*
X187913347Y-96171954D01*
X187913344Y-96171952D01*
X187913342Y-96171950D01*
X187836517Y-96132805D01*
X187800301Y-96114352D01*
X187706524Y-96099500D01*
X185943482Y-96099500D01*
X185862519Y-96112323D01*
X185849696Y-96114354D01*
X185736658Y-96171950D01*
X185736657Y-96171951D01*
X185736652Y-96171954D01*
X185646954Y-96261652D01*
X185646951Y-96261657D01*
X185589352Y-96374698D01*
X185574500Y-96468475D01*
X162462744Y-96468475D01*
X162468797Y-92598793D01*
X162464734Y-92524886D01*
X162459745Y-92480293D01*
X162451068Y-92424564D01*
X162398891Y-92268757D01*
X162360464Y-92188965D01*
X162293195Y-92078638D01*
X162178585Y-91960897D01*
X162109344Y-91905678D01*
X162109338Y-91905674D01*
X162000850Y-91835450D01*
X162000848Y-91835449D01*
X161846505Y-91779098D01*
X161846499Y-91779097D01*
X161760162Y-91759391D01*
X161760144Y-91759388D01*
X161614304Y-91742957D01*
X161614298Y-91742957D01*
X158986012Y-91742957D01*
X158912618Y-91747078D01*
X158912607Y-91747079D01*
X158868341Y-91752067D01*
X158813119Y-91760686D01*
X158719547Y-91792022D01*
X158657312Y-91812864D01*
X158577520Y-91851291D01*
X158577512Y-91851295D01*
X158467193Y-91918559D01*
X158349451Y-92033170D01*
X158294234Y-92102409D01*
X158294229Y-92102416D01*
X158224005Y-92210904D01*
X158224004Y-92210906D01*
X158167653Y-92365249D01*
X158167652Y-92365255D01*
X158147946Y-92451592D01*
X158147943Y-92451610D01*
X158131512Y-92597450D01*
X143416133Y-92597450D01*
X143348952Y-92542317D01*
X143348953Y-92542317D01*
X143348950Y-92542315D01*
X143166454Y-92444768D01*
X142968434Y-92384700D01*
X142968432Y-92384699D01*
X142968434Y-92384699D01*
X142762500Y-92364417D01*
X142556567Y-92384699D01*
X142358543Y-92444769D01*
X142292084Y-92480293D01*
X142176050Y-92542315D01*
X142176048Y-92542316D01*
X142176047Y-92542317D01*
X142016089Y-92673589D01*
X141884817Y-92833547D01*
X141787269Y-93016043D01*
X141727199Y-93214067D01*
X141706917Y-93420000D01*
X138738083Y-93420000D01*
X138717800Y-93214066D01*
X138657732Y-93016046D01*
X138560185Y-92833550D01*
X138459106Y-92710384D01*
X138428910Y-92673589D01*
X138268952Y-92542317D01*
X138268953Y-92542317D01*
X138268950Y-92542315D01*
X138086454Y-92444768D01*
X137888434Y-92384700D01*
X137888432Y-92384699D01*
X137888434Y-92384699D01*
X137682500Y-92364417D01*
X137476567Y-92384699D01*
X137278543Y-92444769D01*
X137212084Y-92480293D01*
X137096050Y-92542315D01*
X137096048Y-92542316D01*
X137096047Y-92542317D01*
X136936089Y-92673589D01*
X136804817Y-92833547D01*
X136707269Y-93016043D01*
X136647199Y-93214067D01*
X136626917Y-93420000D01*
X77400500Y-93420000D01*
X77400500Y-86121155D01*
X177424500Y-86121155D01*
X177424500Y-86278848D01*
X177455261Y-86433491D01*
X177455264Y-86433503D01*
X177515602Y-86579174D01*
X177515609Y-86579187D01*
X177603210Y-86710290D01*
X177603213Y-86710294D01*
X177653208Y-86760288D01*
X177653209Y-86760289D01*
X177764706Y-86871786D01*
X177764710Y-86871790D01*
X177895812Y-86959390D01*
X177895825Y-86959397D01*
X178041496Y-87019735D01*
X178041501Y-87019737D01*
X178196151Y-87050499D01*
X178196154Y-87050500D01*
X178196156Y-87050500D01*
X182878844Y-87050500D01*
X182878845Y-87050499D01*
X183033497Y-87019737D01*
X183179179Y-86959394D01*
X183310289Y-86871789D01*
X183421789Y-86760289D01*
X183509394Y-86629179D01*
X183569737Y-86483497D01*
X183600500Y-86328842D01*
X183600500Y-86171158D01*
X183600500Y-86171155D01*
X183600499Y-86171153D01*
X183569738Y-86016510D01*
X183569737Y-86016503D01*
X183549030Y-85966512D01*
X183509397Y-85870827D01*
X183509390Y-85870814D01*
X183421789Y-85739711D01*
X183421786Y-85739707D01*
X183310292Y-85628213D01*
X183310288Y-85628210D01*
X183179185Y-85540609D01*
X183179172Y-85540602D01*
X183033501Y-85480264D01*
X183033489Y-85480261D01*
X182878845Y-85449500D01*
X182878842Y-85449500D01*
X178529599Y-85449500D01*
X178482151Y-85440062D01*
X178458497Y-85430265D01*
X178458490Y-85430263D01*
X178458489Y-85430263D01*
X178458488Y-85430262D01*
X178303845Y-85399502D01*
X178303842Y-85399502D01*
X178146158Y-85399502D01*
X178146155Y-85399502D01*
X177991510Y-85430263D01*
X177991498Y-85430266D01*
X177845827Y-85490604D01*
X177845814Y-85490611D01*
X177714711Y-85578212D01*
X177714707Y-85578215D01*
X177603213Y-85689709D01*
X177603210Y-85689713D01*
X177515609Y-85820816D01*
X177515602Y-85820829D01*
X177455264Y-85966500D01*
X177455261Y-85966512D01*
X177424500Y-86121155D01*
X77400500Y-86121155D01*
X77400500Y-83944995D01*
X99395093Y-83944995D01*
X99395093Y-83945004D01*
X99414692Y-84206545D01*
X99414693Y-84206550D01*
X99473058Y-84462270D01*
X99568883Y-84706426D01*
X99568882Y-84706426D01*
X99700028Y-84933574D01*
X99745364Y-84990424D01*
X100470764Y-84265024D01*
X100485359Y-84300258D01*
X100567437Y-84423097D01*
X100671903Y-84527563D01*
X100794742Y-84609641D01*
X100829974Y-84624234D01*
X100104194Y-85350013D01*
X100272546Y-85464793D01*
X100272550Y-85464795D01*
X100508854Y-85578594D01*
X100508858Y-85578595D01*
X100759494Y-85655907D01*
X100759500Y-85655909D01*
X101018848Y-85694999D01*
X101018857Y-85695000D01*
X101281143Y-85695000D01*
X101281151Y-85694999D01*
X101540499Y-85655909D01*
X101540505Y-85655907D01*
X101791143Y-85578595D01*
X102027445Y-85464798D01*
X102027456Y-85464791D01*
X102195804Y-85350013D01*
X101470025Y-84624235D01*
X101505258Y-84609641D01*
X101628097Y-84527563D01*
X101732563Y-84423097D01*
X101814641Y-84300258D01*
X101829235Y-84265025D01*
X102554635Y-84990425D01*
X102599969Y-84933577D01*
X102731116Y-84706426D01*
X102826941Y-84462270D01*
X102885306Y-84206550D01*
X102885307Y-84206545D01*
X102904907Y-83945004D01*
X102904907Y-83944995D01*
X132995093Y-83944995D01*
X132995093Y-83945004D01*
X133014692Y-84206545D01*
X133014693Y-84206550D01*
X133073058Y-84462270D01*
X133168883Y-84706426D01*
X133168882Y-84706426D01*
X133300028Y-84933574D01*
X133345364Y-84990424D01*
X134070764Y-84265024D01*
X134085359Y-84300258D01*
X134167437Y-84423097D01*
X134271903Y-84527563D01*
X134394742Y-84609641D01*
X134429974Y-84624234D01*
X133704194Y-85350013D01*
X133872546Y-85464793D01*
X133872550Y-85464795D01*
X134108854Y-85578594D01*
X134108858Y-85578595D01*
X134359494Y-85655907D01*
X134359500Y-85655909D01*
X134618848Y-85694999D01*
X134618857Y-85695000D01*
X134881143Y-85695000D01*
X134881151Y-85694999D01*
X135140499Y-85655909D01*
X135140505Y-85655907D01*
X135391143Y-85578595D01*
X135627445Y-85464798D01*
X135627456Y-85464791D01*
X135795804Y-85350013D01*
X135070025Y-84624235D01*
X135105258Y-84609641D01*
X135228097Y-84527563D01*
X135332563Y-84423097D01*
X135414641Y-84300258D01*
X135429235Y-84265025D01*
X136154635Y-84990425D01*
X136199969Y-84933577D01*
X136331116Y-84706426D01*
X136426941Y-84462270D01*
X136485306Y-84206550D01*
X136485307Y-84206545D01*
X136504907Y-83945004D01*
X136504907Y-83944995D01*
X136485307Y-83683454D01*
X136485306Y-83683449D01*
X136426941Y-83427729D01*
X136331116Y-83183573D01*
X136331117Y-83183573D01*
X136199972Y-82956426D01*
X136154634Y-82899574D01*
X135429234Y-83624973D01*
X135414641Y-83589742D01*
X135332563Y-83466903D01*
X135228097Y-83362437D01*
X135105258Y-83280359D01*
X135070025Y-83265765D01*
X135795804Y-82539985D01*
X135627454Y-82425206D01*
X135627445Y-82425201D01*
X135391142Y-82311404D01*
X135391144Y-82311404D01*
X135140505Y-82234092D01*
X135140499Y-82234090D01*
X134881151Y-82195000D01*
X134618848Y-82195000D01*
X134359500Y-82234090D01*
X134359494Y-82234092D01*
X134108858Y-82311404D01*
X134108854Y-82311405D01*
X133872547Y-82425205D01*
X133872539Y-82425210D01*
X133704194Y-82539984D01*
X134429974Y-83265764D01*
X134394742Y-83280359D01*
X134271903Y-83362437D01*
X134167437Y-83466903D01*
X134085359Y-83589742D01*
X134070765Y-83624974D01*
X133345364Y-82899574D01*
X133300027Y-82956426D01*
X133168883Y-83183573D01*
X133073058Y-83427729D01*
X133014693Y-83683449D01*
X133014692Y-83683454D01*
X132995093Y-83944995D01*
X102904907Y-83944995D01*
X102885307Y-83683454D01*
X102885306Y-83683449D01*
X102826941Y-83427729D01*
X102731116Y-83183573D01*
X102731117Y-83183573D01*
X102599972Y-82956426D01*
X102554634Y-82899574D01*
X101829234Y-83624973D01*
X101814641Y-83589742D01*
X101732563Y-83466903D01*
X101628097Y-83362437D01*
X101505258Y-83280359D01*
X101470025Y-83265765D01*
X102195804Y-82539985D01*
X102027454Y-82425206D01*
X102027445Y-82425201D01*
X101791142Y-82311404D01*
X101791144Y-82311404D01*
X101540505Y-82234092D01*
X101540499Y-82234090D01*
X101281151Y-82195000D01*
X101018848Y-82195000D01*
X100759500Y-82234090D01*
X100759494Y-82234092D01*
X100508858Y-82311404D01*
X100508854Y-82311405D01*
X100272547Y-82425205D01*
X100272539Y-82425210D01*
X100104194Y-82539984D01*
X100829974Y-83265764D01*
X100794742Y-83280359D01*
X100671903Y-83362437D01*
X100567437Y-83466903D01*
X100485359Y-83589742D01*
X100470765Y-83624974D01*
X99745365Y-82899574D01*
X99745364Y-82899574D01*
X99700027Y-82956426D01*
X99568883Y-83183573D01*
X99473058Y-83427729D01*
X99414693Y-83683449D01*
X99414692Y-83683454D01*
X99395093Y-83944995D01*
X77400500Y-83944995D01*
X77400500Y-76394999D01*
X138887200Y-76394999D01*
X138887200Y-76395000D01*
X138906359Y-76601772D01*
X138963188Y-76801502D01*
X138963193Y-76801515D01*
X139055752Y-76987397D01*
X139180890Y-77153107D01*
X139180892Y-77153110D01*
X139334350Y-77293005D01*
X139334352Y-77293006D01*
X139334355Y-77293009D01*
X139434109Y-77354774D01*
X139510907Y-77402325D01*
X139510909Y-77402326D01*
X139510911Y-77402327D01*
X139704547Y-77477342D01*
X139908670Y-77515500D01*
X139908672Y-77515500D01*
X140116328Y-77515500D01*
X140116330Y-77515500D01*
X140320453Y-77477342D01*
X140514089Y-77402327D01*
X140690645Y-77293009D01*
X140844107Y-77153110D01*
X140969249Y-76987394D01*
X141061811Y-76801505D01*
X141118640Y-76601773D01*
X141137800Y-76395000D01*
X141118640Y-76188227D01*
X141061811Y-75988495D01*
X140969249Y-75802606D01*
X140969248Y-75802605D01*
X140969247Y-75802602D01*
X140844109Y-75636892D01*
X140844107Y-75636889D01*
X140690649Y-75496994D01*
X140690643Y-75496990D01*
X140514092Y-75387674D01*
X140514083Y-75387670D01*
X140423889Y-75352729D01*
X140320453Y-75312658D01*
X140116330Y-75274500D01*
X139908670Y-75274500D01*
X139704547Y-75312658D01*
X139510916Y-75387670D01*
X139510907Y-75387674D01*
X139334356Y-75496990D01*
X139334350Y-75496994D01*
X139180892Y-75636889D01*
X139180890Y-75636892D01*
X139055752Y-75802602D01*
X138963193Y-75988484D01*
X138963188Y-75988497D01*
X138906359Y-76188227D01*
X138887200Y-76394999D01*
X77400500Y-76394999D01*
X77400500Y-73445000D01*
X80064417Y-73445000D01*
X80084699Y-73650932D01*
X80084700Y-73650934D01*
X80144768Y-73848954D01*
X80242315Y-74031450D01*
X80267200Y-74061773D01*
X80373589Y-74191410D01*
X80459014Y-74261515D01*
X80533550Y-74322685D01*
X80716046Y-74420232D01*
X80914066Y-74480300D01*
X80914065Y-74480300D01*
X80932529Y-74482118D01*
X81120000Y-74500583D01*
X81325934Y-74480300D01*
X81523954Y-74420232D01*
X81706450Y-74322685D01*
X81866410Y-74191410D01*
X81997685Y-74031450D01*
X82095232Y-73848954D01*
X82155300Y-73650934D01*
X82175583Y-73445000D01*
X85144417Y-73445000D01*
X85164699Y-73650932D01*
X85164700Y-73650934D01*
X85224768Y-73848954D01*
X85322315Y-74031450D01*
X85347200Y-74061773D01*
X85453589Y-74191410D01*
X85539014Y-74261515D01*
X85613550Y-74322685D01*
X85796046Y-74420232D01*
X85994066Y-74480300D01*
X85994065Y-74480300D01*
X86012529Y-74482118D01*
X86200000Y-74500583D01*
X86405934Y-74480300D01*
X86603954Y-74420232D01*
X86786450Y-74322685D01*
X86946410Y-74191410D01*
X87077685Y-74031450D01*
X87172001Y-73854999D01*
X136347200Y-73854999D01*
X136347200Y-73855000D01*
X136366359Y-74061772D01*
X136423188Y-74261502D01*
X136423193Y-74261515D01*
X136515752Y-74447397D01*
X136640890Y-74613107D01*
X136640892Y-74613110D01*
X136794350Y-74753005D01*
X136794352Y-74753006D01*
X136794355Y-74753009D01*
X136894109Y-74814774D01*
X136970907Y-74862325D01*
X136970909Y-74862326D01*
X136970911Y-74862327D01*
X137164547Y-74937342D01*
X137368670Y-74975500D01*
X137368672Y-74975500D01*
X137576328Y-74975500D01*
X137576330Y-74975500D01*
X137780453Y-74937342D01*
X137974089Y-74862327D01*
X138150645Y-74753009D01*
X138304107Y-74613110D01*
X138429249Y-74447394D01*
X138521811Y-74261505D01*
X138578640Y-74061773D01*
X138597800Y-73855000D01*
X138597800Y-73854999D01*
X141427200Y-73854999D01*
X141427200Y-73855000D01*
X141446359Y-74061772D01*
X141503188Y-74261502D01*
X141503193Y-74261515D01*
X141595752Y-74447397D01*
X141720890Y-74613107D01*
X141720892Y-74613110D01*
X141874350Y-74753005D01*
X141874352Y-74753006D01*
X141874355Y-74753009D01*
X141974109Y-74814774D01*
X142050907Y-74862325D01*
X142050909Y-74862326D01*
X142050911Y-74862327D01*
X142244547Y-74937342D01*
X142448670Y-74975500D01*
X142448672Y-74975500D01*
X142656328Y-74975500D01*
X142656330Y-74975500D01*
X142860453Y-74937342D01*
X143054089Y-74862327D01*
X143230645Y-74753009D01*
X143384107Y-74613110D01*
X143509249Y-74447394D01*
X143601811Y-74261505D01*
X143658640Y-74061773D01*
X143677800Y-73855000D01*
X143658640Y-73648227D01*
X143601811Y-73448495D01*
X143509249Y-73262606D01*
X143509248Y-73262605D01*
X143509247Y-73262602D01*
X143384109Y-73096892D01*
X143384107Y-73096889D01*
X143230649Y-72956994D01*
X143230643Y-72956990D01*
X143054092Y-72847674D01*
X143054083Y-72847670D01*
X142963889Y-72812729D01*
X142860453Y-72772658D01*
X142656330Y-72734500D01*
X142448670Y-72734500D01*
X142244547Y-72772658D01*
X142050916Y-72847670D01*
X142050907Y-72847674D01*
X141874356Y-72956990D01*
X141874350Y-72956994D01*
X141720892Y-73096889D01*
X141720890Y-73096892D01*
X141595752Y-73262602D01*
X141503193Y-73448484D01*
X141503188Y-73448497D01*
X141446359Y-73648227D01*
X141427200Y-73854999D01*
X138597800Y-73854999D01*
X138578640Y-73648227D01*
X138521811Y-73448495D01*
X138429249Y-73262606D01*
X138429248Y-73262605D01*
X138429247Y-73262602D01*
X138304109Y-73096892D01*
X138304107Y-73096889D01*
X138150649Y-72956994D01*
X138150643Y-72956990D01*
X137974092Y-72847674D01*
X137974083Y-72847670D01*
X137883889Y-72812729D01*
X137780453Y-72772658D01*
X137576330Y-72734500D01*
X137368670Y-72734500D01*
X137164547Y-72772658D01*
X136970916Y-72847670D01*
X136970907Y-72847674D01*
X136794356Y-72956990D01*
X136794350Y-72956994D01*
X136640892Y-73096889D01*
X136640890Y-73096892D01*
X136515752Y-73262602D01*
X136423193Y-73448484D01*
X136423188Y-73448497D01*
X136366359Y-73648227D01*
X136347200Y-73854999D01*
X87172001Y-73854999D01*
X87175232Y-73848954D01*
X87235300Y-73650934D01*
X87255583Y-73445000D01*
X87235300Y-73239066D01*
X87175232Y-73041046D01*
X87077685Y-72858550D01*
X87007196Y-72772658D01*
X86946410Y-72698589D01*
X86786452Y-72567317D01*
X86786453Y-72567317D01*
X86786450Y-72567315D01*
X86603954Y-72469768D01*
X86405934Y-72409700D01*
X86405932Y-72409699D01*
X86405934Y-72409699D01*
X86200000Y-72389417D01*
X85994067Y-72409699D01*
X85796043Y-72469769D01*
X85685898Y-72528643D01*
X85613550Y-72567315D01*
X85613548Y-72567316D01*
X85613547Y-72567317D01*
X85453589Y-72698589D01*
X85322317Y-72858547D01*
X85224769Y-73041043D01*
X85164699Y-73239067D01*
X85144417Y-73445000D01*
X82175583Y-73445000D01*
X82155300Y-73239066D01*
X82095232Y-73041046D01*
X81997685Y-72858550D01*
X81927196Y-72772658D01*
X81866410Y-72698589D01*
X81706452Y-72567317D01*
X81706453Y-72567317D01*
X81706450Y-72567315D01*
X81523954Y-72469768D01*
X81325934Y-72409700D01*
X81325932Y-72409699D01*
X81325934Y-72409699D01*
X81120000Y-72389417D01*
X80914067Y-72409699D01*
X80716043Y-72469769D01*
X80605898Y-72528643D01*
X80533550Y-72567315D01*
X80533548Y-72567316D01*
X80533547Y-72567317D01*
X80373589Y-72698589D01*
X80242317Y-72858547D01*
X80144769Y-73041043D01*
X80084699Y-73239067D01*
X80064417Y-73445000D01*
X77400500Y-73445000D01*
X77400500Y-70223475D01*
X82609500Y-70223475D01*
X82609500Y-71586517D01*
X82620292Y-71654657D01*
X82624354Y-71680304D01*
X82681950Y-71793342D01*
X82681952Y-71793344D01*
X82681954Y-71793347D01*
X82771652Y-71883045D01*
X82771654Y-71883046D01*
X82771658Y-71883050D01*
X82884694Y-71940645D01*
X82884698Y-71940647D01*
X82978475Y-71955499D01*
X82978481Y-71955500D01*
X84341518Y-71955499D01*
X84435304Y-71940646D01*
X84548342Y-71883050D01*
X84638050Y-71793342D01*
X84695646Y-71680304D01*
X84695646Y-71680302D01*
X84695647Y-71680301D01*
X84710499Y-71586524D01*
X84710500Y-71586519D01*
X84710499Y-70223482D01*
X84695646Y-70129696D01*
X84638050Y-70016658D01*
X84638046Y-70016654D01*
X84638045Y-70016652D01*
X84548347Y-69926954D01*
X84548344Y-69926952D01*
X84548342Y-69926950D01*
X84471517Y-69887805D01*
X84435301Y-69869352D01*
X84341524Y-69854500D01*
X82978482Y-69854500D01*
X82897519Y-69867323D01*
X82884696Y-69869354D01*
X82771658Y-69926950D01*
X82771657Y-69926951D01*
X82771652Y-69926954D01*
X82681954Y-70016652D01*
X82681951Y-70016657D01*
X82681950Y-70016658D01*
X82662751Y-70054337D01*
X82624352Y-70129698D01*
X82609500Y-70223475D01*
X77400500Y-70223475D01*
X77400500Y-68365000D01*
X80064417Y-68365000D01*
X80084699Y-68570932D01*
X80084700Y-68570934D01*
X80144768Y-68768954D01*
X80242315Y-68951450D01*
X80242317Y-68951452D01*
X80373589Y-69111410D01*
X80429546Y-69157332D01*
X80533550Y-69242685D01*
X80716046Y-69340232D01*
X80914066Y-69400300D01*
X80914065Y-69400300D01*
X80932529Y-69402118D01*
X81120000Y-69420583D01*
X81325934Y-69400300D01*
X81523954Y-69340232D01*
X81706450Y-69242685D01*
X81866410Y-69111410D01*
X81997685Y-68951450D01*
X82095232Y-68768954D01*
X82155300Y-68570934D01*
X82175583Y-68365000D01*
X85295043Y-68365000D01*
X85314819Y-68553154D01*
X85373279Y-68733076D01*
X85409674Y-68796114D01*
X85800000Y-68405789D01*
X85800000Y-68417661D01*
X85827259Y-68519394D01*
X85879920Y-68610606D01*
X85954394Y-68685080D01*
X86045606Y-68737741D01*
X86147339Y-68765000D01*
X86159210Y-68765000D01*
X85766875Y-69157332D01*
X85920353Y-69225665D01*
X86105406Y-69265000D01*
X86294594Y-69265000D01*
X86479644Y-69225665D01*
X86633123Y-69157332D01*
X86240791Y-68765000D01*
X86252661Y-68765000D01*
X86354394Y-68737741D01*
X86445606Y-68685080D01*
X86520080Y-68610606D01*
X86572741Y-68519394D01*
X86600000Y-68417661D01*
X86600000Y-68405791D01*
X86990324Y-68796115D01*
X87026718Y-68733079D01*
X87026721Y-68733072D01*
X87085180Y-68553154D01*
X87104956Y-68365000D01*
X87085180Y-68176845D01*
X87026718Y-67996919D01*
X86990325Y-67933884D01*
X86990324Y-67933883D01*
X86600000Y-68324208D01*
X86600000Y-68312339D01*
X86572741Y-68210606D01*
X86520080Y-68119394D01*
X86445606Y-68044920D01*
X86354394Y-67992259D01*
X86252661Y-67965000D01*
X86240791Y-67965000D01*
X86633123Y-67572666D01*
X86479644Y-67504334D01*
X86294594Y-67465000D01*
X86105406Y-67465000D01*
X85920355Y-67504334D01*
X85766875Y-67572666D01*
X86159210Y-67965000D01*
X86147339Y-67965000D01*
X86045606Y-67992259D01*
X85954394Y-68044920D01*
X85879920Y-68119394D01*
X85827259Y-68210606D01*
X85800000Y-68312339D01*
X85800000Y-68324210D01*
X85409673Y-67933883D01*
X85409673Y-67933884D01*
X85373282Y-67996918D01*
X85314819Y-68176846D01*
X85295043Y-68365000D01*
X82175583Y-68365000D01*
X82155300Y-68159066D01*
X82095232Y-67961046D01*
X81997685Y-67778550D01*
X81917052Y-67680298D01*
X81866410Y-67618589D01*
X81706452Y-67487317D01*
X81706453Y-67487317D01*
X81706450Y-67487315D01*
X81523954Y-67389768D01*
X81325934Y-67329700D01*
X81325932Y-67329699D01*
X81325934Y-67329699D01*
X81120000Y-67309417D01*
X80914067Y-67329699D01*
X80716043Y-67389769D01*
X80605898Y-67448643D01*
X80533550Y-67487315D01*
X80533548Y-67487316D01*
X80533547Y-67487317D01*
X80373589Y-67618589D01*
X80242317Y-67778547D01*
X80144769Y-67961043D01*
X80084699Y-68159067D01*
X80064417Y-68365000D01*
X77400500Y-68365000D01*
X77400500Y-66644998D01*
X136290743Y-66644998D01*
X136310519Y-66833152D01*
X136368979Y-67013074D01*
X136405374Y-67076112D01*
X136795700Y-66685787D01*
X136795700Y-66697659D01*
X136822959Y-66799392D01*
X136875620Y-66890604D01*
X136950094Y-66965078D01*
X137041306Y-67017739D01*
X137143039Y-67044998D01*
X137154910Y-67044998D01*
X136762575Y-67437330D01*
X136916053Y-67505663D01*
X137101106Y-67544998D01*
X137290294Y-67544998D01*
X137475344Y-67505663D01*
X137628823Y-67437330D01*
X137236491Y-67044998D01*
X137248361Y-67044998D01*
X137350094Y-67017739D01*
X137441306Y-66965078D01*
X137515780Y-66890604D01*
X137568441Y-66799392D01*
X137595700Y-66697659D01*
X137595700Y-66685788D01*
X137986024Y-67076113D01*
X138022418Y-67013077D01*
X138022421Y-67013070D01*
X138080880Y-66833152D01*
X138100656Y-66644998D01*
X141220117Y-66644998D01*
X141240399Y-66850930D01*
X141240400Y-66850932D01*
X141300468Y-67048952D01*
X141398015Y-67231448D01*
X141398017Y-67231450D01*
X141529289Y-67391408D01*
X141585246Y-67437330D01*
X141689250Y-67522683D01*
X141871746Y-67620230D01*
X142069766Y-67680298D01*
X142069765Y-67680298D01*
X142088229Y-67682116D01*
X142275700Y-67700581D01*
X142481634Y-67680298D01*
X142679654Y-67620230D01*
X142862150Y-67522683D01*
X143022110Y-67391408D01*
X143153385Y-67231448D01*
X143250932Y-67048952D01*
X143311000Y-66850932D01*
X143331283Y-66644998D01*
X143311000Y-66439064D01*
X143250932Y-66241044D01*
X143153385Y-66058548D01*
X143066214Y-65952329D01*
X143022110Y-65898587D01*
X142862152Y-65767315D01*
X142862153Y-65767315D01*
X142862150Y-65767313D01*
X142679654Y-65669766D01*
X142481634Y-65609698D01*
X142481632Y-65609697D01*
X142481634Y-65609697D01*
X142275700Y-65589415D01*
X142069767Y-65609697D01*
X141871743Y-65669767D01*
X141809364Y-65703110D01*
X141689250Y-65767313D01*
X141689248Y-65767314D01*
X141689247Y-65767315D01*
X141529289Y-65898587D01*
X141398017Y-66058545D01*
X141300469Y-66241041D01*
X141240399Y-66439065D01*
X141220117Y-66644998D01*
X138100656Y-66644998D01*
X138080880Y-66456843D01*
X138022418Y-66276917D01*
X137986025Y-66213882D01*
X137986024Y-66213881D01*
X137595700Y-66604206D01*
X137595700Y-66592337D01*
X137568441Y-66490604D01*
X137515780Y-66399392D01*
X137441306Y-66324918D01*
X137350094Y-66272257D01*
X137248361Y-66244998D01*
X137236491Y-66244998D01*
X137628823Y-65852664D01*
X137475344Y-65784332D01*
X137290294Y-65744998D01*
X137101106Y-65744998D01*
X136916055Y-65784332D01*
X136762575Y-65852664D01*
X137154910Y-66244998D01*
X137143039Y-66244998D01*
X137041306Y-66272257D01*
X136950094Y-66324918D01*
X136875620Y-66399392D01*
X136822959Y-66490604D01*
X136795700Y-66592337D01*
X136795700Y-66604208D01*
X136405373Y-66213881D01*
X136405373Y-66213882D01*
X136368982Y-66276916D01*
X136310519Y-66456844D01*
X136290743Y-66644998D01*
X77400500Y-66644998D01*
X77400500Y-63423473D01*
X138685200Y-63423473D01*
X138685200Y-64786515D01*
X138692509Y-64832661D01*
X138700054Y-64880302D01*
X138757650Y-64993340D01*
X138757652Y-64993342D01*
X138757654Y-64993345D01*
X138847352Y-65083043D01*
X138847354Y-65083044D01*
X138847358Y-65083048D01*
X138957582Y-65139210D01*
X138960398Y-65140645D01*
X139054175Y-65155497D01*
X139054181Y-65155498D01*
X140417218Y-65155497D01*
X140511004Y-65140644D01*
X140624042Y-65083048D01*
X140713750Y-64993340D01*
X140771346Y-64880302D01*
X140771346Y-64880300D01*
X140771347Y-64880299D01*
X140786199Y-64786522D01*
X140786200Y-64786517D01*
X140786199Y-63423480D01*
X140771346Y-63329694D01*
X140713750Y-63216656D01*
X140713746Y-63216652D01*
X140713745Y-63216650D01*
X140624047Y-63126952D01*
X140624044Y-63126950D01*
X140624042Y-63126948D01*
X140547217Y-63087803D01*
X140511001Y-63069350D01*
X140417224Y-63054498D01*
X139054182Y-63054498D01*
X138973219Y-63067321D01*
X138960396Y-63069352D01*
X138847358Y-63126948D01*
X138847357Y-63126949D01*
X138847352Y-63126952D01*
X138757654Y-63216650D01*
X138757651Y-63216655D01*
X138757650Y-63216656D01*
X138756941Y-63218048D01*
X138700052Y-63329696D01*
X138685200Y-63423473D01*
X77400500Y-63423473D01*
X77400500Y-61564998D01*
X136140117Y-61564998D01*
X136160399Y-61770930D01*
X136178510Y-61830633D01*
X136220468Y-61968952D01*
X136318015Y-62151448D01*
X136318017Y-62151450D01*
X136449289Y-62311408D01*
X136545909Y-62390700D01*
X136609250Y-62442683D01*
X136791746Y-62540230D01*
X136989766Y-62600298D01*
X136989765Y-62600298D01*
X137008229Y-62602116D01*
X137195700Y-62620581D01*
X137401634Y-62600298D01*
X137599654Y-62540230D01*
X137782150Y-62442683D01*
X137942110Y-62311408D01*
X138073385Y-62151448D01*
X138170932Y-61968952D01*
X138231000Y-61770932D01*
X138251283Y-61564998D01*
X141220117Y-61564998D01*
X141240399Y-61770930D01*
X141258510Y-61830633D01*
X141300468Y-61968952D01*
X141398015Y-62151448D01*
X141398017Y-62151450D01*
X141529289Y-62311408D01*
X141625909Y-62390700D01*
X141689250Y-62442683D01*
X141871746Y-62540230D01*
X142069766Y-62600298D01*
X142069765Y-62600298D01*
X142088229Y-62602116D01*
X142275700Y-62620581D01*
X142481634Y-62600298D01*
X142679654Y-62540230D01*
X142862150Y-62442683D01*
X143022110Y-62311408D01*
X143153385Y-62151448D01*
X143250932Y-61968952D01*
X143311000Y-61770932D01*
X143331283Y-61564998D01*
X143311000Y-61359064D01*
X143250932Y-61161044D01*
X143217765Y-61098993D01*
X158094500Y-61098993D01*
X158094500Y-61099000D01*
X158094500Y-83300312D01*
X158097535Y-83353536D01*
X158098749Y-83374830D01*
X158098751Y-83374849D01*
X158103889Y-83419761D01*
X158112829Y-83476079D01*
X158112830Y-83476082D01*
X158165540Y-83631702D01*
X158165542Y-83631706D01*
X158204243Y-83711366D01*
X158238072Y-83766422D01*
X158271899Y-83821476D01*
X158271901Y-83821478D01*
X158386919Y-83938821D01*
X158456351Y-83993800D01*
X158456354Y-83993802D01*
X158565073Y-84063644D01*
X158565077Y-84063646D01*
X158656037Y-84096500D01*
X158719613Y-84119464D01*
X158780024Y-84133033D01*
X158806013Y-84138872D01*
X158806017Y-84138872D01*
X158806023Y-84138874D01*
X158806028Y-84138874D01*
X158806037Y-84138876D01*
X158872917Y-84146178D01*
X158951946Y-84154807D01*
X161453946Y-84146179D01*
X161526198Y-84141934D01*
X161569794Y-84136946D01*
X161623893Y-84128454D01*
X161779700Y-84076277D01*
X161859492Y-84037850D01*
X161969819Y-83970581D01*
X162087560Y-83855971D01*
X162096313Y-83844995D01*
X168895093Y-83844995D01*
X168895093Y-83845004D01*
X168914692Y-84106545D01*
X168914693Y-84106550D01*
X168973058Y-84362270D01*
X169068883Y-84606426D01*
X169068882Y-84606426D01*
X169200028Y-84833574D01*
X169245364Y-84890424D01*
X169970764Y-84165024D01*
X169985359Y-84200258D01*
X170067437Y-84323097D01*
X170171903Y-84427563D01*
X170294742Y-84509641D01*
X170329974Y-84524234D01*
X169604194Y-85250013D01*
X169772546Y-85364793D01*
X169772550Y-85364795D01*
X170008854Y-85478594D01*
X170008858Y-85478595D01*
X170259494Y-85555907D01*
X170259500Y-85555909D01*
X170518848Y-85594999D01*
X170518857Y-85595000D01*
X170781143Y-85595000D01*
X170781151Y-85594999D01*
X171040499Y-85555909D01*
X171040505Y-85555907D01*
X171291143Y-85478595D01*
X171527445Y-85364798D01*
X171527456Y-85364791D01*
X171695804Y-85250013D01*
X170970025Y-84524235D01*
X171005258Y-84509641D01*
X171128097Y-84427563D01*
X171232563Y-84323097D01*
X171314641Y-84200258D01*
X171329235Y-84165025D01*
X172054635Y-84890425D01*
X172099969Y-84833577D01*
X172231116Y-84606426D01*
X172326941Y-84362270D01*
X172385306Y-84106550D01*
X172385307Y-84106545D01*
X172404907Y-83845004D01*
X172404907Y-83844995D01*
X172385307Y-83583454D01*
X172385306Y-83583449D01*
X172326941Y-83327729D01*
X172231116Y-83083573D01*
X172231117Y-83083573D01*
X172099972Y-82856426D01*
X172054634Y-82799574D01*
X171329234Y-83524973D01*
X171314641Y-83489742D01*
X171232563Y-83366903D01*
X171128097Y-83262437D01*
X171005258Y-83180359D01*
X170970025Y-83165765D01*
X171695804Y-82439985D01*
X171527454Y-82325206D01*
X171527445Y-82325201D01*
X171291142Y-82211404D01*
X171291144Y-82211404D01*
X171040505Y-82134092D01*
X171040499Y-82134090D01*
X170781151Y-82095000D01*
X170518848Y-82095000D01*
X170259500Y-82134090D01*
X170259494Y-82134092D01*
X170008858Y-82211404D01*
X170008854Y-82211405D01*
X169772547Y-82325205D01*
X169772539Y-82325210D01*
X169604194Y-82439984D01*
X170329974Y-83165764D01*
X170294742Y-83180359D01*
X170171903Y-83262437D01*
X170067437Y-83366903D01*
X169985359Y-83489742D01*
X169970765Y-83524974D01*
X169245364Y-82799574D01*
X169200027Y-82856426D01*
X169068883Y-83083573D01*
X168973058Y-83327729D01*
X168914693Y-83583449D01*
X168914692Y-83583454D01*
X168895093Y-83844995D01*
X162096313Y-83844995D01*
X162142779Y-83786730D01*
X162213007Y-83678235D01*
X162269359Y-83523888D01*
X162289066Y-83437545D01*
X162296133Y-83374826D01*
X162305499Y-83291690D01*
X162305500Y-83291686D01*
X162305500Y-68474500D01*
X162325185Y-68407461D01*
X162377989Y-68361706D01*
X162429500Y-68350500D01*
X169313662Y-68350500D01*
X169313678Y-68350501D01*
X169321274Y-68350501D01*
X169479385Y-68350501D01*
X169479388Y-68350501D01*
X169632116Y-68309577D01*
X169682235Y-68280639D01*
X169769047Y-68230520D01*
X169880851Y-68118716D01*
X169880851Y-68118714D01*
X169891059Y-68108507D01*
X169891061Y-68108504D01*
X170950443Y-67049121D01*
X171008445Y-67016408D01*
X171055546Y-67004800D01*
X171206173Y-66925744D01*
X171333504Y-66812939D01*
X171430139Y-66672940D01*
X171490461Y-66513882D01*
X171510966Y-66345010D01*
X171490461Y-66176138D01*
X171430139Y-66017080D01*
X171333504Y-65877081D01*
X171228812Y-65784332D01*
X171206170Y-65764273D01*
X171055547Y-65685220D01*
X170890377Y-65644510D01*
X170720265Y-65644510D01*
X170555094Y-65685220D01*
X170404471Y-65764273D01*
X170277137Y-65877082D01*
X170180503Y-66017078D01*
X170180503Y-66017079D01*
X170126701Y-66158944D01*
X170098440Y-66202654D01*
X169187915Y-67113181D01*
X169126592Y-67146666D01*
X169100234Y-67149500D01*
X162429500Y-67149500D01*
X162362461Y-67129815D01*
X162316706Y-67077011D01*
X162305500Y-67025500D01*
X162305500Y-64944999D01*
X164924700Y-64944999D01*
X164924700Y-64945000D01*
X164943859Y-65151772D01*
X165000688Y-65351502D01*
X165000693Y-65351515D01*
X165093252Y-65537397D01*
X165218390Y-65703107D01*
X165218392Y-65703110D01*
X165371850Y-65843005D01*
X165371852Y-65843006D01*
X165371855Y-65843009D01*
X165461617Y-65898587D01*
X165548407Y-65952325D01*
X165548409Y-65952326D01*
X165548411Y-65952327D01*
X165742047Y-66027342D01*
X165946170Y-66065500D01*
X165946172Y-66065500D01*
X166153828Y-66065500D01*
X166153830Y-66065500D01*
X166357953Y-66027342D01*
X166551589Y-65952327D01*
X166728145Y-65843009D01*
X166881607Y-65703110D01*
X167006749Y-65537394D01*
X167099311Y-65351505D01*
X167156140Y-65151773D01*
X167175300Y-64945000D01*
X167160011Y-64780000D01*
X192464417Y-64780000D01*
X192484699Y-64985932D01*
X192486948Y-64993345D01*
X192544768Y-65183954D01*
X192642315Y-65366450D01*
X192642317Y-65366452D01*
X192773589Y-65526410D01*
X192829546Y-65572332D01*
X192933550Y-65657685D01*
X193116046Y-65755232D01*
X193314066Y-65815300D01*
X193314065Y-65815300D01*
X193332529Y-65817118D01*
X193520000Y-65835583D01*
X193725934Y-65815300D01*
X193923954Y-65755232D01*
X194106450Y-65657685D01*
X194266410Y-65526410D01*
X194397685Y-65366450D01*
X194495232Y-65183954D01*
X194555300Y-64985934D01*
X194575583Y-64780000D01*
X197695043Y-64780000D01*
X197714819Y-64968154D01*
X197773279Y-65148076D01*
X197809674Y-65211114D01*
X198200000Y-64820789D01*
X198200000Y-64832661D01*
X198227259Y-64934394D01*
X198279920Y-65025606D01*
X198354394Y-65100080D01*
X198445606Y-65152741D01*
X198547339Y-65180000D01*
X198559210Y-65180000D01*
X198166875Y-65572332D01*
X198320353Y-65640665D01*
X198505406Y-65680000D01*
X198694594Y-65680000D01*
X198879644Y-65640665D01*
X199033123Y-65572332D01*
X198640791Y-65180000D01*
X198652661Y-65180000D01*
X198754394Y-65152741D01*
X198845606Y-65100080D01*
X198920080Y-65025606D01*
X198972741Y-64934394D01*
X199000000Y-64832661D01*
X199000000Y-64820791D01*
X199390324Y-65211115D01*
X199426718Y-65148079D01*
X199426721Y-65148072D01*
X199485180Y-64968154D01*
X199504956Y-64780000D01*
X199485180Y-64591845D01*
X199426718Y-64411919D01*
X199390325Y-64348884D01*
X199390324Y-64348883D01*
X199000000Y-64739208D01*
X199000000Y-64727339D01*
X198972741Y-64625606D01*
X198920080Y-64534394D01*
X198845606Y-64459920D01*
X198754394Y-64407259D01*
X198652661Y-64380000D01*
X198640791Y-64380000D01*
X199033123Y-63987666D01*
X198879644Y-63919334D01*
X198694594Y-63880000D01*
X198505406Y-63880000D01*
X198320355Y-63919334D01*
X198166875Y-63987666D01*
X198559210Y-64380000D01*
X198547339Y-64380000D01*
X198445606Y-64407259D01*
X198354394Y-64459920D01*
X198279920Y-64534394D01*
X198227259Y-64625606D01*
X198200000Y-64727339D01*
X198200000Y-64739210D01*
X197809673Y-64348883D01*
X197809673Y-64348884D01*
X197773282Y-64411918D01*
X197714819Y-64591846D01*
X197695043Y-64780000D01*
X194575583Y-64780000D01*
X194555300Y-64574066D01*
X194495232Y-64376046D01*
X194397685Y-64193550D01*
X194345702Y-64130209D01*
X194266410Y-64033589D01*
X194106452Y-63902317D01*
X194106453Y-63902317D01*
X194106450Y-63902315D01*
X193923954Y-63804768D01*
X193725934Y-63744700D01*
X193725932Y-63744699D01*
X193725934Y-63744699D01*
X193520000Y-63724417D01*
X193314067Y-63744699D01*
X193116043Y-63804769D01*
X193079130Y-63824500D01*
X192933550Y-63902315D01*
X192933548Y-63902316D01*
X192933547Y-63902317D01*
X192773589Y-64033589D01*
X192642317Y-64193547D01*
X192544769Y-64376043D01*
X192484699Y-64574067D01*
X192464417Y-64780000D01*
X167160011Y-64780000D01*
X167156140Y-64738227D01*
X167099311Y-64538495D01*
X167036283Y-64411919D01*
X167006747Y-64352602D01*
X166881609Y-64186892D01*
X166881607Y-64186889D01*
X166728149Y-64046994D01*
X166728143Y-64046990D01*
X166551592Y-63937674D01*
X166551583Y-63937670D01*
X166460319Y-63902315D01*
X166357953Y-63862658D01*
X166153830Y-63824500D01*
X165946170Y-63824500D01*
X165742047Y-63862658D01*
X165548416Y-63937670D01*
X165548407Y-63937674D01*
X165371856Y-64046990D01*
X165371850Y-64046994D01*
X165218392Y-64186889D01*
X165218390Y-64186892D01*
X165093252Y-64352602D01*
X165000693Y-64538484D01*
X165000688Y-64538497D01*
X164943859Y-64738227D01*
X164924700Y-64944999D01*
X162305500Y-64944999D01*
X162305500Y-63027058D01*
X162325185Y-62960019D01*
X162377989Y-62914264D01*
X162447147Y-62904320D01*
X162510703Y-62933345D01*
X162540498Y-62971784D01*
X162553251Y-62997394D01*
X162553252Y-62997395D01*
X162553254Y-62997399D01*
X162678390Y-63163107D01*
X162678392Y-63163110D01*
X162831850Y-63303005D01*
X162831852Y-63303006D01*
X162831855Y-63303009D01*
X162931609Y-63364774D01*
X163008407Y-63412325D01*
X163008409Y-63412326D01*
X163008411Y-63412327D01*
X163202047Y-63487342D01*
X163406170Y-63525500D01*
X163406172Y-63525500D01*
X163613828Y-63525500D01*
X163613830Y-63525500D01*
X163817953Y-63487342D01*
X164011589Y-63412327D01*
X164188145Y-63303009D01*
X164341607Y-63163110D01*
X164453226Y-63015302D01*
X164466747Y-62997397D01*
X164466747Y-62997395D01*
X164466749Y-62997394D01*
X164559311Y-62811505D01*
X164616140Y-62611773D01*
X164635300Y-62405000D01*
X164635300Y-62404999D01*
X167464700Y-62404999D01*
X167464700Y-62405000D01*
X167483859Y-62611772D01*
X167540688Y-62811502D01*
X167540693Y-62811515D01*
X167633252Y-62997397D01*
X167758390Y-63163107D01*
X167758392Y-63163110D01*
X167911850Y-63303005D01*
X167911852Y-63303006D01*
X167911855Y-63303009D01*
X168011609Y-63364774D01*
X168088407Y-63412325D01*
X168088409Y-63412326D01*
X168088411Y-63412327D01*
X168282047Y-63487342D01*
X168486170Y-63525500D01*
X168486172Y-63525500D01*
X168693828Y-63525500D01*
X168693830Y-63525500D01*
X168897953Y-63487342D01*
X169091589Y-63412327D01*
X169268145Y-63303009D01*
X169421607Y-63163110D01*
X169533226Y-63015302D01*
X169546747Y-62997397D01*
X169546747Y-62997395D01*
X169546749Y-62997394D01*
X169639311Y-62811505D01*
X169696140Y-62611773D01*
X169715300Y-62405000D01*
X169696140Y-62198227D01*
X169639311Y-61998495D01*
X169624601Y-61968954D01*
X169546747Y-61812602D01*
X169421609Y-61646892D01*
X169421607Y-61646889D01*
X169324621Y-61558475D01*
X195009500Y-61558475D01*
X195009500Y-62921517D01*
X195015598Y-62960019D01*
X195024354Y-63015304D01*
X195081950Y-63128342D01*
X195081952Y-63128344D01*
X195081954Y-63128347D01*
X195171652Y-63218045D01*
X195171654Y-63218046D01*
X195171658Y-63218050D01*
X195284694Y-63275645D01*
X195284698Y-63275647D01*
X195378475Y-63290499D01*
X195378481Y-63290500D01*
X196741518Y-63290499D01*
X196835304Y-63275646D01*
X196948342Y-63218050D01*
X197038050Y-63128342D01*
X197095646Y-63015304D01*
X197095646Y-63015302D01*
X197095647Y-63015301D01*
X197110499Y-62921524D01*
X197110500Y-62921519D01*
X197110499Y-61558482D01*
X197095646Y-61464696D01*
X197038050Y-61351658D01*
X197038046Y-61351654D01*
X197038045Y-61351652D01*
X196948347Y-61261954D01*
X196948344Y-61261952D01*
X196948342Y-61261950D01*
X196871517Y-61222805D01*
X196835301Y-61204352D01*
X196741524Y-61189500D01*
X195378482Y-61189500D01*
X195297519Y-61202323D01*
X195284696Y-61204354D01*
X195171658Y-61261950D01*
X195171657Y-61261951D01*
X195171652Y-61261954D01*
X195081954Y-61351652D01*
X195081951Y-61351657D01*
X195081950Y-61351658D01*
X195078176Y-61359065D01*
X195024352Y-61464698D01*
X195009500Y-61558475D01*
X169324621Y-61558475D01*
X169268149Y-61506994D01*
X169268143Y-61506990D01*
X169091592Y-61397674D01*
X169091583Y-61397670D01*
X168991928Y-61359064D01*
X168897953Y-61322658D01*
X168693830Y-61284500D01*
X168486170Y-61284500D01*
X168282047Y-61322658D01*
X168088416Y-61397670D01*
X168088407Y-61397674D01*
X167911856Y-61506990D01*
X167911850Y-61506994D01*
X167758392Y-61646889D01*
X167758390Y-61646892D01*
X167633252Y-61812602D01*
X167540693Y-61998484D01*
X167540688Y-61998497D01*
X167483859Y-62198227D01*
X167464700Y-62404999D01*
X164635300Y-62404999D01*
X164616140Y-62198227D01*
X164559311Y-61998495D01*
X164544601Y-61968954D01*
X164466747Y-61812602D01*
X164341609Y-61646892D01*
X164341607Y-61646889D01*
X164188149Y-61506994D01*
X164188143Y-61506990D01*
X164011592Y-61397674D01*
X164011583Y-61397670D01*
X163911928Y-61359064D01*
X163817953Y-61322658D01*
X163613830Y-61284500D01*
X163406170Y-61284500D01*
X163202047Y-61322658D01*
X163008416Y-61397670D01*
X163008407Y-61397674D01*
X162831856Y-61506990D01*
X162831850Y-61506994D01*
X162678392Y-61646889D01*
X162678390Y-61646892D01*
X162553252Y-61812602D01*
X162540500Y-61838213D01*
X162492996Y-61889450D01*
X162425333Y-61906871D01*
X162358993Y-61884945D01*
X162315038Y-61830633D01*
X162305500Y-61782941D01*
X162305500Y-61099016D01*
X162305500Y-61099000D01*
X162301379Y-61025613D01*
X162296390Y-60981331D01*
X162287770Y-60926107D01*
X162235593Y-60770300D01*
X162197166Y-60690508D01*
X162129897Y-60580181D01*
X162015287Y-60462440D01*
X161995186Y-60446410D01*
X161946047Y-60407222D01*
X161946040Y-60407217D01*
X161837552Y-60336993D01*
X161837550Y-60336992D01*
X161683207Y-60280641D01*
X161683201Y-60280640D01*
X161596864Y-60260934D01*
X161596846Y-60260931D01*
X161451006Y-60244500D01*
X161451000Y-60244500D01*
X158949000Y-60244500D01*
X158875606Y-60248621D01*
X158875595Y-60248622D01*
X158831329Y-60253610D01*
X158776107Y-60262229D01*
X158682535Y-60293565D01*
X158620300Y-60314407D01*
X158540508Y-60352834D01*
X158540500Y-60352838D01*
X158430181Y-60420102D01*
X158312439Y-60534713D01*
X158257222Y-60603952D01*
X158257217Y-60603959D01*
X158186993Y-60712447D01*
X158186992Y-60712449D01*
X158130641Y-60866792D01*
X158130640Y-60866798D01*
X158110934Y-60953135D01*
X158110931Y-60953153D01*
X158094500Y-61098993D01*
X143217765Y-61098993D01*
X143153385Y-60978548D01*
X143061670Y-60866792D01*
X143022110Y-60818587D01*
X142862152Y-60687315D01*
X142862153Y-60687315D01*
X142862150Y-60687313D01*
X142679654Y-60589766D01*
X142481634Y-60529698D01*
X142481632Y-60529697D01*
X142481634Y-60529697D01*
X142275700Y-60509415D01*
X142069767Y-60529697D01*
X141871743Y-60589767D01*
X141761598Y-60648641D01*
X141689250Y-60687313D01*
X141689248Y-60687314D01*
X141689247Y-60687315D01*
X141529289Y-60818587D01*
X141398017Y-60978545D01*
X141398015Y-60978548D01*
X141372868Y-61025595D01*
X141300469Y-61161041D01*
X141240399Y-61359065D01*
X141220117Y-61564998D01*
X138251283Y-61564998D01*
X138231000Y-61359064D01*
X138170932Y-61161044D01*
X138073385Y-60978548D01*
X137981670Y-60866792D01*
X137942110Y-60818587D01*
X137782152Y-60687315D01*
X137782153Y-60687315D01*
X137782150Y-60687313D01*
X137599654Y-60589766D01*
X137401634Y-60529698D01*
X137401632Y-60529697D01*
X137401634Y-60529697D01*
X137195700Y-60509415D01*
X136989767Y-60529697D01*
X136791743Y-60589767D01*
X136681598Y-60648641D01*
X136609250Y-60687313D01*
X136609248Y-60687314D01*
X136609247Y-60687315D01*
X136449289Y-60818587D01*
X136318017Y-60978545D01*
X136318015Y-60978548D01*
X136292868Y-61025595D01*
X136220469Y-61161041D01*
X136160399Y-61359065D01*
X136140117Y-61564998D01*
X77400500Y-61564998D01*
X77400500Y-57718475D01*
X182149500Y-57718475D01*
X182149500Y-59481517D01*
X182151488Y-59494066D01*
X182164354Y-59575304D01*
X182221950Y-59688342D01*
X182221952Y-59688344D01*
X182221954Y-59688347D01*
X182311652Y-59778045D01*
X182311654Y-59778046D01*
X182311658Y-59778050D01*
X182424694Y-59835645D01*
X182424698Y-59835647D01*
X182518475Y-59850499D01*
X182518481Y-59850500D01*
X184281518Y-59850499D01*
X184375304Y-59835646D01*
X184488342Y-59778050D01*
X184566392Y-59700000D01*
X192464417Y-59700000D01*
X192484699Y-59905932D01*
X192484700Y-59905934D01*
X192544768Y-60103954D01*
X192642315Y-60286450D01*
X192676969Y-60328677D01*
X192773589Y-60446410D01*
X192850362Y-60509415D01*
X192933550Y-60577685D01*
X193116046Y-60675232D01*
X193314066Y-60735300D01*
X193314065Y-60735300D01*
X193332529Y-60737118D01*
X193520000Y-60755583D01*
X193725934Y-60735300D01*
X193923954Y-60675232D01*
X194106450Y-60577685D01*
X194266410Y-60446410D01*
X194397685Y-60286450D01*
X194495232Y-60103954D01*
X194555300Y-59905934D01*
X194575583Y-59700000D01*
X197544417Y-59700000D01*
X197564699Y-59905932D01*
X197564700Y-59905934D01*
X197624768Y-60103954D01*
X197722315Y-60286450D01*
X197756969Y-60328677D01*
X197853589Y-60446410D01*
X197930362Y-60509415D01*
X198013550Y-60577685D01*
X198196046Y-60675232D01*
X198394066Y-60735300D01*
X198394065Y-60735300D01*
X198412529Y-60737118D01*
X198600000Y-60755583D01*
X198805934Y-60735300D01*
X199003954Y-60675232D01*
X199186450Y-60577685D01*
X199346410Y-60446410D01*
X199477685Y-60286450D01*
X199575232Y-60103954D01*
X199635300Y-59905934D01*
X199655583Y-59700000D01*
X199635300Y-59494066D01*
X199575232Y-59296046D01*
X199477685Y-59113550D01*
X199425702Y-59050209D01*
X199346410Y-58953589D01*
X199186452Y-58822317D01*
X199186453Y-58822317D01*
X199186450Y-58822315D01*
X199003954Y-58724768D01*
X198805934Y-58664700D01*
X198805932Y-58664699D01*
X198805934Y-58664699D01*
X198600000Y-58644417D01*
X198394067Y-58664699D01*
X198196043Y-58724769D01*
X198085898Y-58783643D01*
X198013550Y-58822315D01*
X198013548Y-58822316D01*
X198013547Y-58822317D01*
X197853589Y-58953589D01*
X197722317Y-59113547D01*
X197624769Y-59296043D01*
X197564699Y-59494067D01*
X197544417Y-59700000D01*
X194575583Y-59700000D01*
X194555300Y-59494066D01*
X194495232Y-59296046D01*
X194397685Y-59113550D01*
X194345702Y-59050209D01*
X194266410Y-58953589D01*
X194106452Y-58822317D01*
X194106453Y-58822317D01*
X194106450Y-58822315D01*
X193923954Y-58724768D01*
X193725934Y-58664700D01*
X193725932Y-58664699D01*
X193725934Y-58664699D01*
X193520000Y-58644417D01*
X193314067Y-58664699D01*
X193116043Y-58724769D01*
X193005898Y-58783643D01*
X192933550Y-58822315D01*
X192933548Y-58822316D01*
X192933547Y-58822317D01*
X192773589Y-58953589D01*
X192642317Y-59113547D01*
X192544769Y-59296043D01*
X192484699Y-59494067D01*
X192464417Y-59700000D01*
X184566392Y-59700000D01*
X184578050Y-59688342D01*
X184635646Y-59575304D01*
X184635646Y-59575302D01*
X184635647Y-59575301D01*
X184646282Y-59508147D01*
X184650500Y-59481519D01*
X184650499Y-57718482D01*
X184635646Y-57624696D01*
X184578050Y-57511658D01*
X184578046Y-57511654D01*
X184578045Y-57511652D01*
X184488347Y-57421954D01*
X184488344Y-57421952D01*
X184488342Y-57421950D01*
X184411517Y-57382805D01*
X184375301Y-57364352D01*
X184281524Y-57349500D01*
X183779812Y-57349500D01*
X183712773Y-57329815D01*
X183667018Y-57277011D01*
X183657074Y-57207853D01*
X183686099Y-57144297D01*
X183735019Y-57109873D01*
X183892413Y-57048898D01*
X184065739Y-56941578D01*
X184216391Y-56804242D01*
X184339245Y-56641556D01*
X184430113Y-56459069D01*
X184430116Y-56459063D01*
X184471389Y-56314000D01*
X183830703Y-56314000D01*
X183865925Y-56252993D01*
X183900000Y-56125826D01*
X183900000Y-55994174D01*
X183865925Y-55867007D01*
X183830703Y-55806000D01*
X184471390Y-55806000D01*
X184471389Y-55805999D01*
X184430116Y-55660936D01*
X184430113Y-55660930D01*
X184339245Y-55478443D01*
X184216391Y-55315757D01*
X184065739Y-55178421D01*
X183892413Y-55071101D01*
X183702318Y-54997459D01*
X183702308Y-54997456D01*
X183654000Y-54988425D01*
X183654000Y-55629297D01*
X183592993Y-55594075D01*
X183465826Y-55560000D01*
X183334174Y-55560000D01*
X183207007Y-55594075D01*
X183146000Y-55629297D01*
X183146000Y-54988425D01*
X183097691Y-54997456D01*
X183097681Y-54997459D01*
X182907586Y-55071101D01*
X182734260Y-55178421D01*
X182583608Y-55315757D01*
X182460754Y-55478443D01*
X182369886Y-55660930D01*
X182369883Y-55660936D01*
X182328610Y-55805999D01*
X182328610Y-55806000D01*
X182969297Y-55806000D01*
X182934075Y-55867007D01*
X182900000Y-55994174D01*
X182900000Y-56125826D01*
X182934075Y-56252993D01*
X182969297Y-56314000D01*
X182328610Y-56314000D01*
X182369883Y-56459063D01*
X182369886Y-56459069D01*
X182460754Y-56641556D01*
X182583608Y-56804242D01*
X182734260Y-56941578D01*
X182907586Y-57048898D01*
X183064981Y-57109873D01*
X183120383Y-57152446D01*
X183143974Y-57218212D01*
X183128263Y-57286293D01*
X183078239Y-57335072D01*
X183020188Y-57349500D01*
X182518482Y-57349500D01*
X182437519Y-57362323D01*
X182424696Y-57364354D01*
X182311658Y-57421950D01*
X182311657Y-57421951D01*
X182311652Y-57421954D01*
X182221954Y-57511652D01*
X182221951Y-57511657D01*
X182164352Y-57624698D01*
X182149500Y-57718475D01*
X77400500Y-57718475D01*
X77400500Y-54081902D01*
X81099500Y-54081902D01*
X81099500Y-54318097D01*
X81136446Y-54551368D01*
X81209433Y-54775996D01*
X81316657Y-54986433D01*
X81455483Y-55177510D01*
X81622490Y-55344517D01*
X81813567Y-55483343D01*
X81912991Y-55534002D01*
X82024003Y-55590566D01*
X82024005Y-55590566D01*
X82024008Y-55590568D01*
X82144412Y-55629689D01*
X82248631Y-55663553D01*
X82481903Y-55700500D01*
X82481908Y-55700500D01*
X82718097Y-55700500D01*
X82951368Y-55663553D01*
X82962608Y-55659901D01*
X83175992Y-55590568D01*
X83386433Y-55483343D01*
X83577510Y-55344517D01*
X83744517Y-55177510D01*
X83883343Y-54986433D01*
X83990568Y-54775992D01*
X84063553Y-54551368D01*
X84100500Y-54318097D01*
X84100500Y-54081902D01*
X196099500Y-54081902D01*
X196099500Y-54318097D01*
X196136446Y-54551368D01*
X196209433Y-54775996D01*
X196316657Y-54986433D01*
X196455483Y-55177510D01*
X196622490Y-55344517D01*
X196813567Y-55483343D01*
X196912991Y-55534002D01*
X197024003Y-55590566D01*
X197024005Y-55590566D01*
X197024008Y-55590568D01*
X197144412Y-55629689D01*
X197248631Y-55663553D01*
X197481903Y-55700500D01*
X197481908Y-55700500D01*
X197718097Y-55700500D01*
X197951368Y-55663553D01*
X197962608Y-55659901D01*
X198175992Y-55590568D01*
X198386433Y-55483343D01*
X198577510Y-55344517D01*
X198744517Y-55177510D01*
X198883343Y-54986433D01*
X198990568Y-54775992D01*
X199063553Y-54551368D01*
X199100500Y-54318097D01*
X199100500Y-54081902D01*
X199063553Y-53848631D01*
X198990566Y-53624003D01*
X198883342Y-53413566D01*
X198744517Y-53222490D01*
X198577510Y-53055483D01*
X198386433Y-52916657D01*
X198175996Y-52809433D01*
X197951368Y-52736446D01*
X197718097Y-52699500D01*
X197718092Y-52699500D01*
X197481908Y-52699500D01*
X197481903Y-52699500D01*
X197248631Y-52736446D01*
X197024003Y-52809433D01*
X196813566Y-52916657D01*
X196704550Y-52995862D01*
X196622490Y-53055483D01*
X196622488Y-53055485D01*
X196622487Y-53055485D01*
X196455485Y-53222487D01*
X196455485Y-53222488D01*
X196455483Y-53222490D01*
X196395862Y-53304550D01*
X196316657Y-53413566D01*
X196209433Y-53624003D01*
X196136446Y-53848631D01*
X196099500Y-54081902D01*
X84100500Y-54081902D01*
X84063553Y-53848631D01*
X83990566Y-53624003D01*
X83883342Y-53413566D01*
X83744517Y-53222490D01*
X83577510Y-53055483D01*
X83386433Y-52916657D01*
X83175996Y-52809433D01*
X82951368Y-52736446D01*
X82718097Y-52699500D01*
X82718092Y-52699500D01*
X82481908Y-52699500D01*
X82481903Y-52699500D01*
X82248631Y-52736446D01*
X82024003Y-52809433D01*
X81813566Y-52916657D01*
X81704550Y-52995862D01*
X81622490Y-53055483D01*
X81622488Y-53055485D01*
X81622487Y-53055485D01*
X81455485Y-53222487D01*
X81455485Y-53222488D01*
X81455483Y-53222490D01*
X81395862Y-53304550D01*
X81316657Y-53413566D01*
X81209433Y-53624003D01*
X81136446Y-53848631D01*
X81099500Y-54081902D01*
X77400500Y-54081902D01*
X77400500Y-49824500D01*
X77420185Y-49757461D01*
X77472989Y-49711706D01*
X77524500Y-49700500D01*
X201275500Y-49700500D01*
X201342539Y-49720185D01*
G37*
%TD.AperFunction*%
%TD*%
%TA.AperFunction,Conductor*%
%TO.N,Net-(C61-Pad2)*%
G36*
X201286843Y-70619707D02*
G01*
X201356084Y-70674926D01*
X201394511Y-70754718D01*
X201399500Y-70799000D01*
X201399500Y-91792747D01*
X201379793Y-91879090D01*
X201324574Y-91948331D01*
X201244782Y-91986758D01*
X201198449Y-91991736D01*
X183079632Y-91804944D01*
X182993496Y-91784348D01*
X182924828Y-91728419D01*
X182887226Y-91648234D01*
X182888139Y-91559676D01*
X182927386Y-91480283D01*
X182942257Y-91463965D01*
X185019593Y-89424399D01*
X187486429Y-89424399D01*
X187486430Y-89424400D01*
X188125271Y-89424400D01*
X188074018Y-89475653D01*
X188030547Y-89550948D01*
X188008044Y-89634928D01*
X188008044Y-89721872D01*
X188030547Y-89805852D01*
X188074018Y-89881147D01*
X188125271Y-89932400D01*
X187486430Y-89932400D01*
X187487252Y-89936536D01*
X187487256Y-89936550D01*
X187553964Y-90097600D01*
X187553968Y-90097607D01*
X187650817Y-90242550D01*
X187650823Y-90242558D01*
X187774085Y-90365820D01*
X187774093Y-90365826D01*
X187919036Y-90462675D01*
X187919043Y-90462679D01*
X188080095Y-90529388D01*
X188080100Y-90529390D01*
X188251076Y-90563400D01*
X188909744Y-90563400D01*
X188909744Y-90008600D01*
X189417744Y-90008600D01*
X189417744Y-90563400D01*
X190076412Y-90563400D01*
X190247387Y-90529390D01*
X190247392Y-90529388D01*
X190408444Y-90462679D01*
X190408451Y-90462675D01*
X190553394Y-90365826D01*
X190553402Y-90365820D01*
X190676664Y-90242558D01*
X190676670Y-90242550D01*
X190773519Y-90097607D01*
X190773523Y-90097600D01*
X190840231Y-89936550D01*
X190840235Y-89936536D01*
X190841058Y-89932400D01*
X190202217Y-89932400D01*
X190253470Y-89881147D01*
X190296941Y-89805852D01*
X190319444Y-89721872D01*
X190319444Y-89634928D01*
X190296941Y-89550948D01*
X190253470Y-89475653D01*
X190202217Y-89424400D01*
X190841058Y-89424400D01*
X190841058Y-89424399D01*
X194520487Y-89424399D01*
X194520488Y-89424400D01*
X195159329Y-89424400D01*
X195108076Y-89475653D01*
X195064605Y-89550948D01*
X195042102Y-89634928D01*
X195042102Y-89721872D01*
X195064605Y-89805852D01*
X195108076Y-89881147D01*
X195159329Y-89932400D01*
X194520488Y-89932400D01*
X194521310Y-89936536D01*
X194521314Y-89936550D01*
X194588022Y-90097600D01*
X194588026Y-90097607D01*
X194684875Y-90242550D01*
X194684881Y-90242558D01*
X194808143Y-90365820D01*
X194808151Y-90365826D01*
X194953094Y-90462675D01*
X194953101Y-90462679D01*
X195114153Y-90529388D01*
X195114158Y-90529390D01*
X195285134Y-90563400D01*
X195689802Y-90563400D01*
X195689802Y-90008600D01*
X196197802Y-90008600D01*
X196197802Y-90563400D01*
X196602470Y-90563400D01*
X196773445Y-90529390D01*
X196773450Y-90529388D01*
X196934502Y-90462679D01*
X196934509Y-90462675D01*
X197079452Y-90365826D01*
X197079460Y-90365820D01*
X197202722Y-90242558D01*
X197202728Y-90242550D01*
X197299577Y-90097607D01*
X197299581Y-90097600D01*
X197366289Y-89936550D01*
X197366293Y-89936536D01*
X197367116Y-89932400D01*
X196728275Y-89932400D01*
X196779528Y-89881147D01*
X196822999Y-89805852D01*
X196845502Y-89721872D01*
X196845502Y-89634928D01*
X196822999Y-89550948D01*
X196779528Y-89475653D01*
X196728275Y-89424400D01*
X197367116Y-89424400D01*
X197367116Y-89424399D01*
X197366293Y-89420263D01*
X197366289Y-89420249D01*
X197299581Y-89259199D01*
X197299577Y-89259192D01*
X197202728Y-89114249D01*
X197202722Y-89114241D01*
X197079460Y-88990979D01*
X197079452Y-88990973D01*
X196934509Y-88894124D01*
X196934502Y-88894120D01*
X196773450Y-88827411D01*
X196773445Y-88827409D01*
X196602470Y-88793400D01*
X196197802Y-88793400D01*
X196197802Y-89348200D01*
X195689802Y-89348200D01*
X195689802Y-88793400D01*
X195285134Y-88793400D01*
X195114158Y-88827409D01*
X195114153Y-88827411D01*
X194953101Y-88894120D01*
X194953094Y-88894124D01*
X194808151Y-88990973D01*
X194808143Y-88990979D01*
X194684881Y-89114241D01*
X194684875Y-89114249D01*
X194588026Y-89259192D01*
X194588022Y-89259199D01*
X194521314Y-89420249D01*
X194521310Y-89420263D01*
X194520487Y-89424399D01*
X190841058Y-89424399D01*
X190840235Y-89420263D01*
X190840231Y-89420249D01*
X190773523Y-89259199D01*
X190773519Y-89259192D01*
X190676670Y-89114249D01*
X190676664Y-89114241D01*
X190553402Y-88990979D01*
X190553394Y-88990973D01*
X190408451Y-88894124D01*
X190408444Y-88894120D01*
X190247392Y-88827411D01*
X190247387Y-88827409D01*
X190076412Y-88793400D01*
X189417744Y-88793400D01*
X189417744Y-89348200D01*
X188909744Y-89348200D01*
X188909744Y-88793400D01*
X188251076Y-88793400D01*
X188080100Y-88827409D01*
X188080095Y-88827411D01*
X187919043Y-88894120D01*
X187919036Y-88894124D01*
X187774093Y-88990973D01*
X187774085Y-88990979D01*
X187650823Y-89114241D01*
X187650817Y-89114249D01*
X187553968Y-89259192D01*
X187553964Y-89259199D01*
X187487256Y-89420249D01*
X187487252Y-89420263D01*
X187486429Y-89424399D01*
X185019593Y-89424399D01*
X193261418Y-81332426D01*
X195869400Y-81332426D01*
X195869400Y-81524373D01*
X195906844Y-81712618D01*
X195906845Y-81712621D01*
X195980297Y-81889950D01*
X195980299Y-81889954D01*
X196033257Y-81969212D01*
X196086934Y-82049544D01*
X196222656Y-82185266D01*
X196382248Y-82291902D01*
X196559578Y-82365355D01*
X196653704Y-82384077D01*
X196747827Y-82402800D01*
X196747830Y-82402800D01*
X196939773Y-82402800D01*
X197020449Y-82386752D01*
X197128022Y-82365355D01*
X197305352Y-82291902D01*
X197464944Y-82185266D01*
X197600666Y-82049544D01*
X197707302Y-81889952D01*
X197780755Y-81712622D01*
X197810991Y-81560615D01*
X197818200Y-81524373D01*
X197818200Y-81332426D01*
X197795171Y-81216655D01*
X197780755Y-81144178D01*
X197707302Y-80966848D01*
X197600666Y-80807256D01*
X197464944Y-80671534D01*
X197384612Y-80617857D01*
X197305354Y-80564899D01*
X197305350Y-80564897D01*
X197139460Y-80496183D01*
X197128022Y-80491445D01*
X197128019Y-80491444D01*
X197128018Y-80491444D01*
X196939773Y-80454000D01*
X196939770Y-80454000D01*
X196747830Y-80454000D01*
X196747827Y-80454000D01*
X196559581Y-80491444D01*
X196559578Y-80491445D01*
X196382249Y-80564897D01*
X196382245Y-80564899D01*
X196222660Y-80671531D01*
X196222652Y-80671537D01*
X196086937Y-80807252D01*
X196086931Y-80807260D01*
X195980299Y-80966845D01*
X195980297Y-80966849D01*
X195906845Y-81144178D01*
X195906844Y-81144181D01*
X195869400Y-81332426D01*
X193261418Y-81332426D01*
X193600000Y-81000000D01*
X186145599Y-72924399D01*
X187486429Y-72924399D01*
X187486430Y-72924400D01*
X188125271Y-72924400D01*
X188074018Y-72975653D01*
X188030547Y-73050948D01*
X188008044Y-73134928D01*
X188008044Y-73221872D01*
X188030547Y-73305852D01*
X188074018Y-73381147D01*
X188125271Y-73432400D01*
X187486430Y-73432400D01*
X187487252Y-73436536D01*
X187487256Y-73436550D01*
X187553964Y-73597600D01*
X187553968Y-73597607D01*
X187650817Y-73742550D01*
X187650823Y-73742558D01*
X187774085Y-73865820D01*
X187774093Y-73865826D01*
X187919036Y-73962675D01*
X187919043Y-73962679D01*
X188080095Y-74029388D01*
X188080100Y-74029390D01*
X188251076Y-74063400D01*
X188909744Y-74063400D01*
X188909744Y-73508600D01*
X189417744Y-73508600D01*
X189417744Y-74063400D01*
X190076412Y-74063400D01*
X190247387Y-74029390D01*
X190247392Y-74029388D01*
X190408444Y-73962679D01*
X190408451Y-73962675D01*
X190553394Y-73865826D01*
X190553402Y-73865820D01*
X190676664Y-73742558D01*
X190676670Y-73742550D01*
X190773519Y-73597607D01*
X190773523Y-73597600D01*
X190840231Y-73436550D01*
X190840235Y-73436536D01*
X190841058Y-73432400D01*
X190202217Y-73432400D01*
X190253470Y-73381147D01*
X190296941Y-73305852D01*
X190319444Y-73221872D01*
X190319444Y-73134928D01*
X190296941Y-73050948D01*
X190253470Y-72975653D01*
X190202217Y-72924400D01*
X190841058Y-72924400D01*
X190841058Y-72924399D01*
X194520487Y-72924399D01*
X194520488Y-72924400D01*
X195159329Y-72924400D01*
X195108076Y-72975653D01*
X195064605Y-73050948D01*
X195042102Y-73134928D01*
X195042102Y-73221872D01*
X195064605Y-73305852D01*
X195108076Y-73381147D01*
X195159329Y-73432400D01*
X194520488Y-73432400D01*
X194521310Y-73436536D01*
X194521314Y-73436550D01*
X194588022Y-73597600D01*
X194588026Y-73597607D01*
X194684875Y-73742550D01*
X194684881Y-73742558D01*
X194808143Y-73865820D01*
X194808151Y-73865826D01*
X194953094Y-73962675D01*
X194953101Y-73962679D01*
X195114153Y-74029388D01*
X195114158Y-74029390D01*
X195285134Y-74063400D01*
X195689802Y-74063400D01*
X195689802Y-73508600D01*
X196197802Y-73508600D01*
X196197802Y-74063400D01*
X196602470Y-74063400D01*
X196773445Y-74029390D01*
X196773450Y-74029388D01*
X196934502Y-73962679D01*
X196934509Y-73962675D01*
X197079452Y-73865826D01*
X197079460Y-73865820D01*
X197202722Y-73742558D01*
X197202728Y-73742550D01*
X197299577Y-73597607D01*
X197299581Y-73597600D01*
X197366289Y-73436550D01*
X197366293Y-73436536D01*
X197367116Y-73432400D01*
X196728275Y-73432400D01*
X196779528Y-73381147D01*
X196822999Y-73305852D01*
X196845502Y-73221872D01*
X196845502Y-73134928D01*
X196822999Y-73050948D01*
X196779528Y-72975653D01*
X196728275Y-72924400D01*
X197367116Y-72924400D01*
X197367116Y-72924399D01*
X197366293Y-72920263D01*
X197366289Y-72920249D01*
X197299581Y-72759199D01*
X197299577Y-72759192D01*
X197202728Y-72614249D01*
X197202722Y-72614241D01*
X197079460Y-72490979D01*
X197079452Y-72490973D01*
X196934509Y-72394124D01*
X196934502Y-72394120D01*
X196773450Y-72327411D01*
X196773445Y-72327409D01*
X196602470Y-72293400D01*
X196197802Y-72293400D01*
X196197802Y-72848200D01*
X195689802Y-72848200D01*
X195689802Y-72293400D01*
X195285134Y-72293400D01*
X195114158Y-72327409D01*
X195114153Y-72327411D01*
X194953101Y-72394120D01*
X194953094Y-72394124D01*
X194808151Y-72490973D01*
X194808143Y-72490979D01*
X194684881Y-72614241D01*
X194684875Y-72614249D01*
X194588026Y-72759192D01*
X194588022Y-72759199D01*
X194521314Y-72920249D01*
X194521310Y-72920263D01*
X194520487Y-72924399D01*
X190841058Y-72924399D01*
X190840235Y-72920263D01*
X190840231Y-72920249D01*
X190773523Y-72759199D01*
X190773519Y-72759192D01*
X190676670Y-72614249D01*
X190676664Y-72614241D01*
X190553402Y-72490979D01*
X190553394Y-72490973D01*
X190408451Y-72394124D01*
X190408444Y-72394120D01*
X190247392Y-72327411D01*
X190247387Y-72327409D01*
X190076412Y-72293400D01*
X189417744Y-72293400D01*
X189417744Y-72848200D01*
X188909744Y-72848200D01*
X188909744Y-72293400D01*
X188251076Y-72293400D01*
X188080100Y-72327409D01*
X188080095Y-72327411D01*
X187919043Y-72394120D01*
X187919036Y-72394124D01*
X187774093Y-72490973D01*
X187774085Y-72490979D01*
X187650823Y-72614241D01*
X187650817Y-72614249D01*
X187553968Y-72759192D01*
X187553964Y-72759199D01*
X187487256Y-72920249D01*
X187487252Y-72920263D01*
X187486429Y-72924399D01*
X186145599Y-72924399D01*
X184308286Y-70933976D01*
X184264203Y-70857166D01*
X184257813Y-70768833D01*
X184290381Y-70686476D01*
X184355458Y-70626405D01*
X184440153Y-70600519D01*
X184454513Y-70600000D01*
X201200500Y-70600000D01*
X201286843Y-70619707D01*
G37*
%TD.AperFunction*%
%TD*%
%TA.AperFunction,Conductor*%
%TO.N,/power2/GND_RAW*%
G36*
X171816834Y-128419664D02*
G01*
X171854523Y-128443194D01*
X175495776Y-131327851D01*
X175551217Y-131396914D01*
X175571202Y-131483193D01*
X175564422Y-131535338D01*
X175532884Y-131653040D01*
X175513027Y-131880000D01*
X175532884Y-132106959D01*
X175591844Y-132327004D01*
X175591845Y-132327006D01*
X175688128Y-132533487D01*
X175688133Y-132533495D01*
X175818803Y-132720109D01*
X175979890Y-132881196D01*
X176130977Y-132986990D01*
X176190401Y-133052658D01*
X176215448Y-133137605D01*
X176201157Y-133225008D01*
X176150358Y-133297554D01*
X176130976Y-133313011D01*
X175979892Y-133418801D01*
X175818802Y-133579891D01*
X175688129Y-133766510D01*
X175688127Y-133766514D01*
X175591845Y-133972991D01*
X175591845Y-133972992D01*
X175532884Y-134193040D01*
X175513027Y-134420000D01*
X175532884Y-134646959D01*
X175591844Y-134867004D01*
X175591845Y-134867006D01*
X175591846Y-134867009D01*
X175591847Y-134867011D01*
X175634725Y-134958964D01*
X175688128Y-135073487D01*
X175688133Y-135073495D01*
X175818803Y-135260109D01*
X175979890Y-135421196D01*
X175979893Y-135421198D01*
X175979894Y-135421199D01*
X176166513Y-135551872D01*
X176372989Y-135648153D01*
X176372993Y-135648154D01*
X176372995Y-135648155D01*
X176540074Y-135692923D01*
X176593047Y-135707117D01*
X176820000Y-135726973D01*
X177046953Y-135707117D01*
X177214038Y-135662346D01*
X177267004Y-135648155D01*
X177267004Y-135648154D01*
X177267011Y-135648153D01*
X177473487Y-135551872D01*
X177660106Y-135421199D01*
X177821199Y-135260106D01*
X177951872Y-135073487D01*
X178048153Y-134867011D01*
X178107117Y-134646953D01*
X178126973Y-134420000D01*
X178107117Y-134193047D01*
X178048153Y-133972989D01*
X178013646Y-133898989D01*
X177951872Y-133766513D01*
X177948682Y-133760988D01*
X177922580Y-133676358D01*
X177935782Y-133588784D01*
X177985674Y-133515612D01*
X178062374Y-133471332D01*
X178150689Y-133464717D01*
X178233130Y-133497075D01*
X178244595Y-133505509D01*
X180194113Y-135049947D01*
X192997113Y-135049947D01*
X193083456Y-135069654D01*
X193152697Y-135124873D01*
X193191124Y-135204665D01*
X193196102Y-135246935D01*
X193200156Y-135648155D01*
X193265110Y-142078747D01*
X193246276Y-142165285D01*
X193191760Y-142235080D01*
X193112359Y-142274310D01*
X193023800Y-142275205D01*
X192943623Y-142237587D01*
X192896445Y-142184734D01*
X192769333Y-141977307D01*
X192611957Y-141793042D01*
X192427692Y-141635666D01*
X192221082Y-141509055D01*
X191997208Y-141416323D01*
X191997207Y-141416322D01*
X191997203Y-141416321D01*
X191803228Y-141369752D01*
X191761576Y-141359752D01*
X191520000Y-141340740D01*
X191278423Y-141359752D01*
X191169602Y-141385877D01*
X191042797Y-141416321D01*
X191042793Y-141416322D01*
X191042791Y-141416323D01*
X190818917Y-141509055D01*
X190612307Y-141635666D01*
X190428042Y-141793042D01*
X190401321Y-141824330D01*
X190330260Y-141877187D01*
X190243303Y-141893977D01*
X190157672Y-141871375D01*
X190098679Y-141824330D01*
X190071957Y-141793042D01*
X189887692Y-141635666D01*
X189681082Y-141509055D01*
X189457208Y-141416323D01*
X189457207Y-141416322D01*
X189457203Y-141416321D01*
X189263228Y-141369752D01*
X189221576Y-141359752D01*
X188980000Y-141340740D01*
X188738423Y-141359752D01*
X188629602Y-141385877D01*
X188502797Y-141416321D01*
X188502793Y-141416322D01*
X188502791Y-141416323D01*
X188278917Y-141509055D01*
X188072307Y-141635666D01*
X187888042Y-141793042D01*
X187861321Y-141824330D01*
X187790260Y-141877187D01*
X187703303Y-141893977D01*
X187617672Y-141871375D01*
X187558679Y-141824330D01*
X187531957Y-141793042D01*
X187347692Y-141635666D01*
X187141082Y-141509055D01*
X186917208Y-141416323D01*
X186917207Y-141416322D01*
X186917203Y-141416321D01*
X186723228Y-141369752D01*
X186681576Y-141359752D01*
X186440000Y-141340740D01*
X186198423Y-141359752D01*
X186089602Y-141385877D01*
X185962797Y-141416321D01*
X185962793Y-141416322D01*
X185962791Y-141416323D01*
X185738917Y-141509055D01*
X185532307Y-141635666D01*
X185348042Y-141793042D01*
X185190666Y-141977307D01*
X185064055Y-142183917D01*
X184971323Y-142407791D01*
X184971321Y-142407797D01*
X184940877Y-142534602D01*
X184914752Y-142643423D01*
X184906454Y-142748858D01*
X184895740Y-142885000D01*
X184914752Y-143126575D01*
X184971321Y-143362203D01*
X184971322Y-143362207D01*
X184971323Y-143362208D01*
X185064055Y-143586082D01*
X185190666Y-143792692D01*
X185348042Y-143976957D01*
X185532307Y-144134333D01*
X185738917Y-144260944D01*
X185738919Y-144260944D01*
X185738921Y-144260946D01*
X185962797Y-144353679D01*
X186198425Y-144410248D01*
X186440000Y-144429260D01*
X186681575Y-144410248D01*
X186917203Y-144353679D01*
X187141079Y-144260946D01*
X187347693Y-144134333D01*
X187531957Y-143976957D01*
X187558678Y-143945671D01*
X187629738Y-143892813D01*
X187716694Y-143876022D01*
X187802325Y-143898622D01*
X187861322Y-143945671D01*
X187888040Y-143976955D01*
X188072307Y-144134333D01*
X188278917Y-144260944D01*
X188278919Y-144260944D01*
X188278921Y-144260946D01*
X188502797Y-144353679D01*
X188738425Y-144410248D01*
X188980000Y-144429260D01*
X189221575Y-144410248D01*
X189457203Y-144353679D01*
X189681079Y-144260946D01*
X189887693Y-144134333D01*
X190071957Y-143976957D01*
X190098678Y-143945671D01*
X190169738Y-143892813D01*
X190256694Y-143876022D01*
X190342325Y-143898622D01*
X190401322Y-143945671D01*
X190428040Y-143976955D01*
X190612307Y-144134333D01*
X190818917Y-144260944D01*
X190818919Y-144260944D01*
X190818921Y-144260946D01*
X191042797Y-144353679D01*
X191278425Y-144410248D01*
X191520000Y-144429260D01*
X191761575Y-144410248D01*
X191997203Y-144353679D01*
X192221079Y-144260946D01*
X192427693Y-144134333D01*
X192611957Y-143976957D01*
X192769333Y-143792693D01*
X192895946Y-143586079D01*
X192898185Y-143580673D01*
X192949429Y-143508444D01*
X193026939Y-143465600D01*
X193115363Y-143460629D01*
X193197186Y-143494516D01*
X193256204Y-143560549D01*
X193280726Y-143645650D01*
X193281030Y-143654809D01*
X193343942Y-149883051D01*
X193325108Y-149969589D01*
X193270592Y-150039384D01*
X193191191Y-150078614D01*
X193102632Y-150079509D01*
X193022455Y-150041891D01*
X192966540Y-149973210D01*
X192961100Y-149961215D01*
X192900088Y-149813921D01*
X192895946Y-149803921D01*
X192875159Y-149770000D01*
X192769333Y-149597307D01*
X192611957Y-149413042D01*
X192427692Y-149255666D01*
X192221082Y-149129055D01*
X191997208Y-149036323D01*
X191997207Y-149036322D01*
X191997203Y-149036321D01*
X191803228Y-148989752D01*
X191761576Y-148979752D01*
X191520000Y-148960740D01*
X191278423Y-148979752D01*
X191169602Y-149005877D01*
X191042797Y-149036321D01*
X191042793Y-149036322D01*
X191042791Y-149036323D01*
X190818917Y-149129055D01*
X190612307Y-149255666D01*
X190428042Y-149413042D01*
X190270666Y-149597307D01*
X190144055Y-149803917D01*
X190055170Y-150018504D01*
X190051321Y-150027797D01*
X190039121Y-150078614D01*
X189994752Y-150263423D01*
X189975740Y-150505000D01*
X189994752Y-150746576D01*
X190007814Y-150800986D01*
X190051321Y-150982203D01*
X190051322Y-150982207D01*
X190051323Y-150982208D01*
X190144055Y-151206082D01*
X190270666Y-151412692D01*
X190428042Y-151596957D01*
X190612307Y-151754333D01*
X190818917Y-151880944D01*
X190818919Y-151880944D01*
X190818921Y-151880946D01*
X191042797Y-151973679D01*
X191278425Y-152030248D01*
X191520000Y-152049260D01*
X191761575Y-152030248D01*
X191997203Y-151973679D01*
X192221079Y-151880946D01*
X192427693Y-151754333D01*
X192611957Y-151596957D01*
X192769333Y-151412693D01*
X192895945Y-151206081D01*
X192895946Y-151206080D01*
X192957684Y-151057030D01*
X192973326Y-151019266D01*
X193024573Y-150947040D01*
X193102086Y-150904200D01*
X193190510Y-150899234D01*
X193272332Y-150933125D01*
X193331346Y-150999161D01*
X193355864Y-151084263D01*
X193356167Y-151093412D01*
X193380462Y-153498490D01*
X193361628Y-153585027D01*
X193307112Y-153654823D01*
X193227711Y-153694053D01*
X193181472Y-153699500D01*
X100612531Y-153699500D01*
X100526188Y-153679793D01*
X100456947Y-153624574D01*
X100418520Y-153544782D01*
X100413572Y-153496440D01*
X100435673Y-152413522D01*
X100474418Y-150515000D01*
X104785740Y-150515000D01*
X104804752Y-150756576D01*
X104810358Y-150779925D01*
X104861321Y-150992203D01*
X104861322Y-150992207D01*
X104861323Y-150992208D01*
X104954055Y-151216082D01*
X105080666Y-151422692D01*
X105238042Y-151606957D01*
X105422307Y-151764333D01*
X105628917Y-151890944D01*
X105628919Y-151890944D01*
X105628921Y-151890946D01*
X105852797Y-151983679D01*
X106088425Y-152040248D01*
X106330000Y-152059260D01*
X106571575Y-152040248D01*
X106807203Y-151983679D01*
X107031079Y-151890946D01*
X107237693Y-151764333D01*
X107421957Y-151606957D01*
X107579333Y-151422693D01*
X107705946Y-151216079D01*
X107798679Y-150992203D01*
X107855248Y-150756575D01*
X107874260Y-150515000D01*
X109865740Y-150515000D01*
X109884752Y-150756576D01*
X109890358Y-150779925D01*
X109941321Y-150992203D01*
X109941322Y-150992207D01*
X109941323Y-150992208D01*
X110034055Y-151216082D01*
X110160666Y-151422692D01*
X110318042Y-151606957D01*
X110502307Y-151764333D01*
X110708917Y-151890944D01*
X110708919Y-151890944D01*
X110708921Y-151890946D01*
X110932797Y-151983679D01*
X111168425Y-152040248D01*
X111410000Y-152059260D01*
X111651575Y-152040248D01*
X111887203Y-151983679D01*
X112111079Y-151890946D01*
X112317693Y-151764333D01*
X112501957Y-151606957D01*
X112659333Y-151422693D01*
X112785946Y-151216079D01*
X112878679Y-150992203D01*
X112929642Y-150779925D01*
X147595093Y-150779925D01*
X147614694Y-151041482D01*
X147673058Y-151297189D01*
X147673060Y-151297196D01*
X147768880Y-151541345D01*
X147768880Y-151541346D01*
X147900030Y-151768502D01*
X147945364Y-151825349D01*
X148521208Y-151249505D01*
X148612087Y-151385515D01*
X148744410Y-151517838D01*
X148880418Y-151608715D01*
X148304195Y-152184938D01*
X148472551Y-152299721D01*
X148708860Y-152413521D01*
X148959500Y-152490834D01*
X149218854Y-152529925D01*
X149481146Y-152529925D01*
X149740499Y-152490834D01*
X149991136Y-152413522D01*
X150227453Y-152299718D01*
X150227461Y-152299714D01*
X150395803Y-152184939D01*
X150395804Y-152184938D01*
X149819581Y-151608715D01*
X149955590Y-151517838D01*
X150087913Y-151385515D01*
X150178791Y-151249506D01*
X150754634Y-151825350D01*
X150799971Y-151768499D01*
X150931119Y-151541346D01*
X150931119Y-151541345D01*
X151026939Y-151297196D01*
X151026941Y-151297189D01*
X151085305Y-151041482D01*
X151104906Y-150779925D01*
X151085305Y-150518367D01*
X151082254Y-150505000D01*
X184895740Y-150505000D01*
X184914752Y-150746576D01*
X184927814Y-150800986D01*
X184971321Y-150982203D01*
X184971322Y-150982207D01*
X184971323Y-150982208D01*
X185064055Y-151206082D01*
X185190666Y-151412692D01*
X185348042Y-151596957D01*
X185532307Y-151754333D01*
X185738917Y-151880944D01*
X185738919Y-151880944D01*
X185738921Y-151880946D01*
X185962797Y-151973679D01*
X186198425Y-152030248D01*
X186440000Y-152049260D01*
X186681575Y-152030248D01*
X186917203Y-151973679D01*
X187141079Y-151880946D01*
X187347693Y-151754333D01*
X187531957Y-151596957D01*
X187689333Y-151412693D01*
X187815946Y-151206079D01*
X187908679Y-150982203D01*
X187965248Y-150746575D01*
X187984260Y-150505000D01*
X187965248Y-150263425D01*
X187908679Y-150027797D01*
X187815946Y-149803921D01*
X187795159Y-149770000D01*
X187689333Y-149597307D01*
X187531957Y-149413042D01*
X187347692Y-149255666D01*
X187141082Y-149129055D01*
X186917208Y-149036323D01*
X186917207Y-149036322D01*
X186917203Y-149036321D01*
X186723228Y-148989752D01*
X186681576Y-148979752D01*
X186440000Y-148960740D01*
X186198423Y-148979752D01*
X186089602Y-149005877D01*
X185962797Y-149036321D01*
X185962793Y-149036322D01*
X185962791Y-149036323D01*
X185738917Y-149129055D01*
X185532307Y-149255666D01*
X185348042Y-149413042D01*
X185190666Y-149597307D01*
X185064055Y-149803917D01*
X184975170Y-150018504D01*
X184971321Y-150027797D01*
X184959121Y-150078614D01*
X184914752Y-150263423D01*
X184895740Y-150505000D01*
X151082254Y-150505000D01*
X151026941Y-150262660D01*
X151026939Y-150262653D01*
X150931119Y-150018504D01*
X150931119Y-150018503D01*
X150799969Y-149791347D01*
X150754634Y-149734499D01*
X150178790Y-150310342D01*
X150087913Y-150174335D01*
X149955590Y-150042012D01*
X149819581Y-149951133D01*
X150395803Y-149374910D01*
X150227449Y-149260128D01*
X149991136Y-149146327D01*
X149740499Y-149069015D01*
X149481146Y-149029925D01*
X149218854Y-149029925D01*
X148959500Y-149069015D01*
X148708860Y-149146328D01*
X148472547Y-149260130D01*
X148304195Y-149374909D01*
X148304195Y-149374910D01*
X148880418Y-149951133D01*
X148744410Y-150042012D01*
X148612087Y-150174335D01*
X148521209Y-150310343D01*
X147945364Y-149734498D01*
X147945363Y-149734499D01*
X147900031Y-149791346D01*
X147768880Y-150018503D01*
X147768880Y-150018504D01*
X147673060Y-150262653D01*
X147673058Y-150262660D01*
X147614694Y-150518367D01*
X147595093Y-150779925D01*
X112929642Y-150779925D01*
X112935248Y-150756575D01*
X112954260Y-150515000D01*
X112935248Y-150273425D01*
X112878679Y-150037797D01*
X112785946Y-149813921D01*
X112784151Y-149810992D01*
X112659333Y-149607307D01*
X112501957Y-149423042D01*
X112317692Y-149265666D01*
X112111082Y-149139055D01*
X111887208Y-149046323D01*
X111887207Y-149046322D01*
X111887203Y-149046321D01*
X111705986Y-149002814D01*
X111651576Y-148989752D01*
X111410000Y-148970740D01*
X111168423Y-148989752D01*
X111059602Y-149015877D01*
X110932797Y-149046321D01*
X110932793Y-149046322D01*
X110932791Y-149046323D01*
X110708917Y-149139055D01*
X110502307Y-149265666D01*
X110318042Y-149423042D01*
X110160666Y-149607307D01*
X110034055Y-149813917D01*
X109945463Y-150027797D01*
X109941321Y-150037797D01*
X109931522Y-150078614D01*
X109884752Y-150273423D01*
X109865740Y-150515000D01*
X107874260Y-150515000D01*
X107855248Y-150273425D01*
X107798679Y-150037797D01*
X107705946Y-149813921D01*
X107704151Y-149810992D01*
X107579333Y-149607307D01*
X107421957Y-149423042D01*
X107237692Y-149265666D01*
X107031082Y-149139055D01*
X106807208Y-149046323D01*
X106807207Y-149046322D01*
X106807203Y-149046321D01*
X106625986Y-149002814D01*
X106571576Y-148989752D01*
X106330000Y-148970740D01*
X106088423Y-148989752D01*
X105979602Y-149015877D01*
X105852797Y-149046321D01*
X105852793Y-149046322D01*
X105852791Y-149046323D01*
X105628917Y-149139055D01*
X105422307Y-149265666D01*
X105238042Y-149423042D01*
X105080666Y-149607307D01*
X104954055Y-149813917D01*
X104865463Y-150027797D01*
X104861321Y-150037797D01*
X104851522Y-150078614D01*
X104804752Y-150273423D01*
X104785740Y-150515000D01*
X100474418Y-150515000D01*
X100520234Y-148269995D01*
X136419859Y-148269995D01*
X136419859Y-148270004D01*
X136440385Y-148517730D01*
X136501412Y-148758720D01*
X136601265Y-148986362D01*
X136601273Y-148986377D01*
X136699328Y-149136461D01*
X137359192Y-148476597D01*
X137365889Y-148501591D01*
X137444881Y-148638408D01*
X137556592Y-148750119D01*
X137693409Y-148829111D01*
X137718401Y-148835807D01*
X137058124Y-149496084D01*
X137058124Y-149496085D01*
X137101769Y-149530056D01*
X137101773Y-149530059D01*
X137320384Y-149648365D01*
X137555511Y-149729083D01*
X137800702Y-149769999D01*
X137800708Y-149770000D01*
X138049292Y-149770000D01*
X138049297Y-149769999D01*
X138294488Y-149729083D01*
X138529612Y-149648366D01*
X138748231Y-149530055D01*
X138791874Y-149496084D01*
X138131598Y-148835807D01*
X138156591Y-148829111D01*
X138293408Y-148750119D01*
X138405119Y-148638408D01*
X138484111Y-148501591D01*
X138490807Y-148476597D01*
X139150671Y-149136461D01*
X139248732Y-148986366D01*
X139248734Y-148986364D01*
X139348586Y-148758720D01*
X139409614Y-148517730D01*
X139430141Y-148270004D01*
X139430141Y-148269995D01*
X139409614Y-148022269D01*
X139348586Y-147781279D01*
X139347992Y-147779924D01*
X151894475Y-147779924D01*
X151894475Y-147779925D01*
X151914552Y-148073435D01*
X151974408Y-148361480D01*
X152072929Y-148638692D01*
X152122363Y-148734095D01*
X152208278Y-148899901D01*
X152269319Y-148986377D01*
X152377929Y-149140243D01*
X152377938Y-149140255D01*
X152578740Y-149355260D01*
X152793596Y-149530059D01*
X152806949Y-149540922D01*
X152806949Y-149540923D01*
X153058319Y-149693785D01*
X153217393Y-149762879D01*
X153328159Y-149810992D01*
X153526031Y-149866433D01*
X153611430Y-149890361D01*
X153611434Y-149890361D01*
X153611445Y-149890365D01*
X153902902Y-149930425D01*
X153902906Y-149930425D01*
X154197094Y-149930425D01*
X154197098Y-149930425D01*
X154488555Y-149890365D01*
X154771841Y-149810992D01*
X155041680Y-149693785D01*
X155041681Y-149693785D01*
X155200331Y-149597307D01*
X155293049Y-149540924D01*
X155521260Y-149355260D01*
X155722065Y-149140251D01*
X155891722Y-148899901D01*
X156027072Y-148638689D01*
X156125592Y-148361479D01*
X156185448Y-148073436D01*
X156205525Y-147779925D01*
X156185448Y-147486414D01*
X156125592Y-147198371D01*
X156027072Y-146921161D01*
X155891722Y-146659949D01*
X155722065Y-146419599D01*
X155722063Y-146419597D01*
X155722061Y-146419594D01*
X155521259Y-146204589D01*
X155293050Y-146018927D01*
X155293050Y-146018926D01*
X155041680Y-145866064D01*
X154771846Y-145748860D01*
X154771844Y-145748859D01*
X154771841Y-145748858D01*
X154771834Y-145748856D01*
X154488569Y-145669488D01*
X154488556Y-145669485D01*
X154430263Y-145661473D01*
X154197098Y-145629425D01*
X153902902Y-145629425D01*
X153708597Y-145656131D01*
X153611443Y-145669485D01*
X153611430Y-145669488D01*
X153328165Y-145748856D01*
X153328153Y-145748860D01*
X153058319Y-145866064D01*
X153058318Y-145866064D01*
X152806949Y-146018926D01*
X152806949Y-146018927D01*
X152578740Y-146204589D01*
X152377938Y-146419594D01*
X152377929Y-146419606D01*
X152208280Y-146659946D01*
X152208278Y-146659949D01*
X152168560Y-146736600D01*
X152072929Y-146921157D01*
X151974408Y-147198369D01*
X151914552Y-147486414D01*
X151894475Y-147779924D01*
X139347992Y-147779924D01*
X139248734Y-147553635D01*
X139248729Y-147553627D01*
X139150670Y-147403537D01*
X138490807Y-148063400D01*
X138484111Y-148038409D01*
X138405119Y-147901592D01*
X138293408Y-147789881D01*
X138156591Y-147710889D01*
X138131598Y-147704192D01*
X138791875Y-147043915D01*
X138791875Y-147043914D01*
X138748229Y-147009942D01*
X138748226Y-147009940D01*
X138529615Y-146891634D01*
X138294488Y-146810916D01*
X138049297Y-146770000D01*
X137800702Y-146770000D01*
X137555511Y-146810916D01*
X137320387Y-146891633D01*
X137101768Y-147009944D01*
X137101765Y-147009946D01*
X137058124Y-147043913D01*
X137058124Y-147043914D01*
X137718402Y-147704192D01*
X137693409Y-147710889D01*
X137556592Y-147789881D01*
X137444881Y-147901592D01*
X137365889Y-148038409D01*
X137359192Y-148063401D01*
X136699328Y-147403537D01*
X136601268Y-147553631D01*
X136601265Y-147553636D01*
X136501412Y-147781279D01*
X136440385Y-148022269D01*
X136419859Y-148269995D01*
X100520234Y-148269995D01*
X100618870Y-143436837D01*
X100629928Y-142895000D01*
X104785740Y-142895000D01*
X104804752Y-143136576D01*
X104813226Y-143171871D01*
X104861321Y-143372203D01*
X104861322Y-143372207D01*
X104861323Y-143372208D01*
X104954055Y-143596082D01*
X105080666Y-143802692D01*
X105238042Y-143986957D01*
X105422307Y-144144333D01*
X105628917Y-144270944D01*
X105628919Y-144270944D01*
X105628921Y-144270946D01*
X105852797Y-144363679D01*
X106088425Y-144420248D01*
X106330000Y-144439260D01*
X106571575Y-144420248D01*
X106807203Y-144363679D01*
X107031079Y-144270946D01*
X107237693Y-144144333D01*
X107421957Y-143986957D01*
X107430500Y-143976955D01*
X107448678Y-143955671D01*
X107519738Y-143902813D01*
X107606694Y-143886022D01*
X107692325Y-143908622D01*
X107751322Y-143955671D01*
X107778040Y-143986955D01*
X107962307Y-144144333D01*
X108168917Y-144270944D01*
X108168919Y-144270944D01*
X108168921Y-144270946D01*
X108392797Y-144363679D01*
X108628425Y-144420248D01*
X108870000Y-144439260D01*
X109111575Y-144420248D01*
X109347203Y-144363679D01*
X109571079Y-144270946D01*
X109777693Y-144144333D01*
X109961957Y-143986957D01*
X109970500Y-143976955D01*
X109988678Y-143955671D01*
X110059738Y-143902813D01*
X110146694Y-143886022D01*
X110232325Y-143908622D01*
X110291322Y-143955671D01*
X110318040Y-143986955D01*
X110502307Y-144144333D01*
X110708917Y-144270944D01*
X110708919Y-144270944D01*
X110708921Y-144270946D01*
X110932797Y-144363679D01*
X111168425Y-144420248D01*
X111410000Y-144439260D01*
X111651575Y-144420248D01*
X111887203Y-144363679D01*
X112111079Y-144270946D01*
X112317693Y-144144333D01*
X112501957Y-143986957D01*
X112659333Y-143802693D01*
X112785946Y-143596079D01*
X112878679Y-143372203D01*
X112935248Y-143136575D01*
X112954260Y-142895000D01*
X112935248Y-142653425D01*
X112878679Y-142417797D01*
X112785946Y-142193921D01*
X112785356Y-142192959D01*
X112659333Y-141987307D01*
X112501957Y-141803042D01*
X112317692Y-141645666D01*
X112111082Y-141519055D01*
X111887208Y-141426323D01*
X111887207Y-141426322D01*
X111887203Y-141426321D01*
X111705986Y-141382814D01*
X111651576Y-141369752D01*
X111410000Y-141350740D01*
X111168423Y-141369752D01*
X111059602Y-141395877D01*
X110932797Y-141426321D01*
X110932793Y-141426322D01*
X110932791Y-141426323D01*
X110708917Y-141519055D01*
X110502307Y-141645666D01*
X110318042Y-141803042D01*
X110291321Y-141834330D01*
X110220260Y-141887187D01*
X110133303Y-141903977D01*
X110047672Y-141881375D01*
X109988679Y-141834330D01*
X109961957Y-141803042D01*
X109777692Y-141645666D01*
X109571082Y-141519055D01*
X109347208Y-141426323D01*
X109347207Y-141426322D01*
X109347203Y-141426321D01*
X109165986Y-141382814D01*
X109111576Y-141369752D01*
X108870000Y-141350740D01*
X108628423Y-141369752D01*
X108519602Y-141395877D01*
X108392797Y-141426321D01*
X108392793Y-141426322D01*
X108392791Y-141426323D01*
X108168917Y-141519055D01*
X107962307Y-141645666D01*
X107778042Y-141803042D01*
X107751321Y-141834330D01*
X107680260Y-141887187D01*
X107593303Y-141903977D01*
X107507672Y-141881375D01*
X107448679Y-141834330D01*
X107421957Y-141803042D01*
X107237692Y-141645666D01*
X107031082Y-141519055D01*
X106807208Y-141426323D01*
X106807207Y-141426322D01*
X106807203Y-141426321D01*
X106625986Y-141382814D01*
X106571576Y-141369752D01*
X106330000Y-141350740D01*
X106088423Y-141369752D01*
X105979602Y-141395877D01*
X105852797Y-141426321D01*
X105852793Y-141426322D01*
X105852791Y-141426323D01*
X105628917Y-141519055D01*
X105422307Y-141645666D01*
X105238042Y-141803042D01*
X105080666Y-141987307D01*
X104954055Y-142193917D01*
X104863303Y-142413011D01*
X104861321Y-142417797D01*
X104830877Y-142544602D01*
X104804752Y-142653423D01*
X104785740Y-142895000D01*
X100629928Y-142895000D01*
X100700724Y-139426000D01*
X120133027Y-139426000D01*
X120152884Y-139652959D01*
X120211844Y-139873004D01*
X120211845Y-139873006D01*
X120211846Y-139873009D01*
X120211847Y-139873011D01*
X120246354Y-139947011D01*
X120308128Y-140079487D01*
X120308133Y-140079495D01*
X120438803Y-140266109D01*
X120599890Y-140427196D01*
X120750977Y-140532990D01*
X120810401Y-140598658D01*
X120835448Y-140683605D01*
X120821157Y-140771008D01*
X120770358Y-140843554D01*
X120750976Y-140859011D01*
X120599892Y-140964801D01*
X120438802Y-141125891D01*
X120308129Y-141312510D01*
X120308127Y-141312514D01*
X120211845Y-141518991D01*
X120211845Y-141518992D01*
X120152884Y-141739040D01*
X120152883Y-141739044D01*
X120152883Y-141739047D01*
X120133027Y-141966000D01*
X120152092Y-142183917D01*
X120152884Y-142192959D01*
X120211844Y-142413004D01*
X120211845Y-142413006D01*
X120211846Y-142413009D01*
X120211847Y-142413011D01*
X120246354Y-142487011D01*
X120308128Y-142619487D01*
X120308133Y-142619495D01*
X120438803Y-142806109D01*
X120599890Y-142967196D01*
X120599893Y-142967198D01*
X120599894Y-142967199D01*
X120786513Y-143097872D01*
X120992989Y-143194153D01*
X121202158Y-143250199D01*
X121280454Y-143291580D01*
X121333045Y-143362837D01*
X121349511Y-143449857D01*
X121326590Y-143535402D01*
X121268821Y-143602531D01*
X121192028Y-143637068D01*
X121159883Y-143643901D01*
X121005739Y-143712528D01*
X121005739Y-143712529D01*
X121419210Y-144126000D01*
X121389972Y-144126000D01*
X121293325Y-144151896D01*
X121206675Y-144201924D01*
X121135924Y-144272675D01*
X121085896Y-144359325D01*
X121060000Y-144455972D01*
X121060000Y-144485209D01*
X120648576Y-144073785D01*
X120611902Y-144137306D01*
X120611901Y-144137309D01*
X120553341Y-144317535D01*
X120533534Y-144505999D01*
X120533534Y-144506000D01*
X120553341Y-144694464D01*
X120611901Y-144874691D01*
X120611903Y-144874696D01*
X120648575Y-144938212D01*
X120648576Y-144938213D01*
X121060000Y-144526789D01*
X121060000Y-144556028D01*
X121085896Y-144652675D01*
X121135924Y-144739325D01*
X121206675Y-144810076D01*
X121293325Y-144860104D01*
X121389972Y-144886000D01*
X121419210Y-144886000D01*
X121005739Y-145299468D01*
X121005739Y-145299470D01*
X121159885Y-145368099D01*
X121345246Y-145407499D01*
X121345247Y-145407500D01*
X121534753Y-145407500D01*
X121534753Y-145407499D01*
X121720113Y-145368100D01*
X121874259Y-145299470D01*
X121874260Y-145299469D01*
X121460791Y-144886000D01*
X121490028Y-144886000D01*
X121586675Y-144860104D01*
X121673325Y-144810076D01*
X121744076Y-144739325D01*
X121794104Y-144652675D01*
X121820000Y-144556028D01*
X121820000Y-144526791D01*
X122231422Y-144938213D01*
X122231423Y-144938213D01*
X122268094Y-144874699D01*
X122268099Y-144874687D01*
X122298890Y-144779924D01*
X147194475Y-144779924D01*
X147194475Y-144779925D01*
X147214552Y-145073435D01*
X147274408Y-145361480D01*
X147372929Y-145638692D01*
X147422363Y-145734095D01*
X147508278Y-145899901D01*
X147614304Y-146050107D01*
X147677929Y-146140243D01*
X147677938Y-146140255D01*
X147878740Y-146355260D01*
X148106949Y-146540922D01*
X148106949Y-146540923D01*
X148358319Y-146693785D01*
X148517393Y-146762879D01*
X148628159Y-146810992D01*
X148846439Y-146872151D01*
X148911430Y-146890361D01*
X148911434Y-146890361D01*
X148911445Y-146890365D01*
X149202902Y-146930425D01*
X149202906Y-146930425D01*
X149497094Y-146930425D01*
X149497098Y-146930425D01*
X149788555Y-146890365D01*
X150071841Y-146810992D01*
X150341680Y-146693785D01*
X150341681Y-146693785D01*
X150467365Y-146617354D01*
X150593049Y-146540924D01*
X150821260Y-146355260D01*
X151022065Y-146140251D01*
X151191722Y-145899901D01*
X151327072Y-145638689D01*
X151425592Y-145361479D01*
X151485448Y-145073436D01*
X151505525Y-144779925D01*
X151485448Y-144486414D01*
X151425592Y-144198371D01*
X151327072Y-143921161D01*
X151191722Y-143659949D01*
X151022065Y-143419599D01*
X151022063Y-143419597D01*
X151022061Y-143419594D01*
X150821259Y-143204589D01*
X150593050Y-143018927D01*
X150593050Y-143018926D01*
X150341680Y-142866064D01*
X150071846Y-142748860D01*
X150071844Y-142748859D01*
X150071841Y-142748858D01*
X150071834Y-142748856D01*
X149788569Y-142669488D01*
X149788556Y-142669485D01*
X149730263Y-142661473D01*
X149497098Y-142629425D01*
X149202902Y-142629425D01*
X149028290Y-142653425D01*
X148911443Y-142669485D01*
X148911430Y-142669488D01*
X148628165Y-142748856D01*
X148628153Y-142748860D01*
X148358319Y-142866064D01*
X148358318Y-142866064D01*
X148106949Y-143018926D01*
X148106949Y-143018927D01*
X147878740Y-143204589D01*
X147677938Y-143419594D01*
X147677929Y-143419606D01*
X147508280Y-143659946D01*
X147372929Y-143921157D01*
X147274408Y-144198369D01*
X147214552Y-144486414D01*
X147194475Y-144779924D01*
X122298890Y-144779924D01*
X122326658Y-144694464D01*
X122346466Y-144506000D01*
X122346466Y-144505999D01*
X122326658Y-144317535D01*
X122268098Y-144137308D01*
X122231422Y-144073786D01*
X121820000Y-144485208D01*
X121820000Y-144455972D01*
X121794104Y-144359325D01*
X121744076Y-144272675D01*
X121673325Y-144201924D01*
X121586675Y-144151896D01*
X121490028Y-144126000D01*
X121460791Y-144126000D01*
X121874259Y-143712529D01*
X121874259Y-143712528D01*
X121720115Y-143643900D01*
X121687972Y-143637068D01*
X121607614Y-143599839D01*
X121551367Y-143531430D01*
X121530371Y-143445391D01*
X121548786Y-143358764D01*
X121602963Y-143288704D01*
X121677838Y-143250200D01*
X121887011Y-143194153D01*
X122093487Y-143097872D01*
X122280106Y-142967199D01*
X122441199Y-142806106D01*
X122571872Y-142619487D01*
X122668153Y-142413011D01*
X122727117Y-142192953D01*
X122746973Y-141966000D01*
X122727117Y-141739047D01*
X122668171Y-141519055D01*
X122668154Y-141518992D01*
X122668154Y-141518991D01*
X122571872Y-141312514D01*
X122571870Y-141312510D01*
X122441197Y-141125891D01*
X122280113Y-140964807D01*
X122280109Y-140964804D01*
X122280106Y-140964801D01*
X122129019Y-140859008D01*
X122069598Y-140793343D01*
X122044551Y-140708395D01*
X122058842Y-140620993D01*
X122109640Y-140548446D01*
X122129012Y-140532996D01*
X122280106Y-140427199D01*
X122441199Y-140266106D01*
X122571872Y-140079487D01*
X122668153Y-139873011D01*
X122727117Y-139652953D01*
X122740499Y-139500000D01*
X175513027Y-139500000D01*
X175526409Y-139652959D01*
X175532884Y-139726959D01*
X175591844Y-139947004D01*
X175591845Y-139947006D01*
X175688128Y-140153487D01*
X175688133Y-140153495D01*
X175818803Y-140340109D01*
X175979890Y-140501196D01*
X176130977Y-140606990D01*
X176190401Y-140672658D01*
X176215448Y-140757605D01*
X176201157Y-140845008D01*
X176150358Y-140917554D01*
X176130976Y-140933011D01*
X175979892Y-141038801D01*
X175818802Y-141199891D01*
X175688129Y-141386510D01*
X175688127Y-141386514D01*
X175591845Y-141592991D01*
X175591845Y-141592992D01*
X175532884Y-141813040D01*
X175532883Y-141813044D01*
X175532883Y-141813047D01*
X175513027Y-142040000D01*
X175530094Y-142235080D01*
X175532884Y-142266959D01*
X175591844Y-142487004D01*
X175591845Y-142487006D01*
X175688128Y-142693487D01*
X175688133Y-142693495D01*
X175818803Y-142880109D01*
X175979890Y-143041196D01*
X176101822Y-143126575D01*
X176166513Y-143171872D01*
X176372989Y-143268153D01*
X176582158Y-143324199D01*
X176660454Y-143365580D01*
X176713045Y-143436837D01*
X176729511Y-143523857D01*
X176706590Y-143609402D01*
X176648821Y-143676531D01*
X176572028Y-143711068D01*
X176539883Y-143717901D01*
X176385739Y-143786528D01*
X176385739Y-143786529D01*
X176799210Y-144200000D01*
X176769972Y-144200000D01*
X176673325Y-144225896D01*
X176586675Y-144275924D01*
X176515924Y-144346675D01*
X176465896Y-144433325D01*
X176440000Y-144529972D01*
X176440000Y-144559209D01*
X176028576Y-144147785D01*
X175991902Y-144211306D01*
X175991901Y-144211309D01*
X175933341Y-144391535D01*
X175913534Y-144579999D01*
X175913534Y-144580000D01*
X175933341Y-144768464D01*
X175991901Y-144948691D01*
X175991903Y-144948696D01*
X176028575Y-145012212D01*
X176028576Y-145012213D01*
X176440000Y-144600789D01*
X176440000Y-144630028D01*
X176465896Y-144726675D01*
X176515924Y-144813325D01*
X176586675Y-144884076D01*
X176673325Y-144934104D01*
X176769972Y-144960000D01*
X176799210Y-144960000D01*
X176385739Y-145373468D01*
X176385739Y-145373470D01*
X176539885Y-145442099D01*
X176725246Y-145481499D01*
X176725247Y-145481500D01*
X176914753Y-145481500D01*
X176914753Y-145481499D01*
X177100113Y-145442100D01*
X177254259Y-145373470D01*
X177254260Y-145373469D01*
X176840791Y-144960000D01*
X176870028Y-144960000D01*
X176966675Y-144934104D01*
X177053325Y-144884076D01*
X177124076Y-144813325D01*
X177174104Y-144726675D01*
X177200000Y-144630028D01*
X177200000Y-144600791D01*
X177611422Y-145012213D01*
X177611423Y-145012213D01*
X177648094Y-144948699D01*
X177648099Y-144948687D01*
X177706658Y-144768464D01*
X177726466Y-144580000D01*
X177726466Y-144579999D01*
X177706658Y-144391535D01*
X177648098Y-144211308D01*
X177611422Y-144147786D01*
X177200000Y-144559208D01*
X177200000Y-144529972D01*
X177174104Y-144433325D01*
X177124076Y-144346675D01*
X177053325Y-144275924D01*
X176966675Y-144225896D01*
X176870028Y-144200000D01*
X176840791Y-144200000D01*
X177254259Y-143786529D01*
X177254259Y-143786528D01*
X177100115Y-143717900D01*
X177067972Y-143711068D01*
X176987614Y-143673839D01*
X176931367Y-143605430D01*
X176910371Y-143519391D01*
X176928786Y-143432764D01*
X176982963Y-143362704D01*
X177057838Y-143324200D01*
X177267011Y-143268153D01*
X177473487Y-143171872D01*
X177660106Y-143041199D01*
X177821199Y-142880106D01*
X177951872Y-142693487D01*
X178048153Y-142487011D01*
X178107117Y-142266953D01*
X178126973Y-142040000D01*
X178107117Y-141813047D01*
X178062268Y-141645666D01*
X178048154Y-141592992D01*
X178048154Y-141592991D01*
X177951872Y-141386514D01*
X177951870Y-141386510D01*
X177821197Y-141199891D01*
X177660113Y-141038807D01*
X177660109Y-141038804D01*
X177660106Y-141038801D01*
X177509019Y-140933008D01*
X177449598Y-140867343D01*
X177424551Y-140782395D01*
X177438842Y-140694993D01*
X177489640Y-140622446D01*
X177509012Y-140606996D01*
X177660106Y-140501199D01*
X177821199Y-140340106D01*
X177951872Y-140153487D01*
X178048153Y-139947011D01*
X178107117Y-139726953D01*
X178126973Y-139500000D01*
X178107117Y-139273047D01*
X178048153Y-139052989D01*
X177951872Y-138846514D01*
X177951870Y-138846510D01*
X177821197Y-138659891D01*
X177660109Y-138498803D01*
X177473495Y-138368133D01*
X177473487Y-138368128D01*
X177473485Y-138368127D01*
X177267011Y-138271847D01*
X177267009Y-138271846D01*
X177267006Y-138271845D01*
X177267004Y-138271844D01*
X177046959Y-138212884D01*
X177046955Y-138212883D01*
X177046953Y-138212883D01*
X176820000Y-138193027D01*
X176593047Y-138212883D01*
X176593044Y-138212883D01*
X176593040Y-138212884D01*
X176372992Y-138271845D01*
X176372991Y-138271845D01*
X176166514Y-138368127D01*
X176166510Y-138368129D01*
X175979891Y-138498802D01*
X175818802Y-138659891D01*
X175688129Y-138846510D01*
X175688127Y-138846514D01*
X175591845Y-139052991D01*
X175591845Y-139052992D01*
X175532884Y-139273040D01*
X175532883Y-139273044D01*
X175532883Y-139273047D01*
X175513027Y-139500000D01*
X122740499Y-139500000D01*
X122746973Y-139426000D01*
X122727117Y-139199047D01*
X122668153Y-138978989D01*
X122571872Y-138772514D01*
X122571870Y-138772510D01*
X122441197Y-138585891D01*
X122280109Y-138424803D01*
X122093495Y-138294133D01*
X122093487Y-138294128D01*
X122045701Y-138271845D01*
X121887011Y-138197847D01*
X121887009Y-138197846D01*
X121887006Y-138197845D01*
X121887004Y-138197844D01*
X121666959Y-138138884D01*
X121666955Y-138138883D01*
X121666953Y-138138883D01*
X121440000Y-138119027D01*
X121213047Y-138138883D01*
X121213044Y-138138883D01*
X121213040Y-138138884D01*
X120992992Y-138197845D01*
X120992991Y-138197845D01*
X120786514Y-138294127D01*
X120786510Y-138294129D01*
X120599891Y-138424802D01*
X120438802Y-138585891D01*
X120308129Y-138772510D01*
X120308127Y-138772514D01*
X120211845Y-138978991D01*
X120211845Y-138978992D01*
X120152884Y-139199040D01*
X120152883Y-139199044D01*
X120152883Y-139199047D01*
X120146409Y-139273047D01*
X120133027Y-139426000D01*
X100700724Y-139426000D01*
X100790135Y-135044887D01*
X100811600Y-134958964D01*
X100868220Y-134890863D01*
X100948780Y-134854073D01*
X100989094Y-134849947D01*
X120111620Y-134849947D01*
X120197963Y-134869654D01*
X120267204Y-134924873D01*
X120291975Y-134964846D01*
X120308128Y-134999487D01*
X120308133Y-134999495D01*
X120438803Y-135186109D01*
X120599890Y-135347196D01*
X120599893Y-135347198D01*
X120599894Y-135347199D01*
X120786513Y-135477872D01*
X120992989Y-135574153D01*
X120992993Y-135574154D01*
X120992995Y-135574155D01*
X121160074Y-135618923D01*
X121213047Y-135633117D01*
X121440000Y-135652973D01*
X121666953Y-135633117D01*
X121887011Y-135574153D01*
X122093487Y-135477872D01*
X122280106Y-135347199D01*
X122441199Y-135186106D01*
X122571872Y-134999487D01*
X122588025Y-134964845D01*
X122642375Y-134894922D01*
X122721683Y-134855504D01*
X122768380Y-134849947D01*
X126194113Y-134849947D01*
X132696460Y-128555753D01*
X132772202Y-128509863D01*
X132834351Y-128499741D01*
X171730441Y-128400178D01*
X171816834Y-128419664D01*
G37*
%TD.AperFunction*%
%TD*%
%TA.AperFunction,Conductor*%
%TO.N,+5V*%
G36*
X161537343Y-60919707D02*
G01*
X161606584Y-60974926D01*
X161645011Y-61054718D01*
X161650000Y-61099000D01*
X161650000Y-83291684D01*
X161630293Y-83378027D01*
X161575074Y-83447268D01*
X161495282Y-83485695D01*
X161451686Y-83490683D01*
X158949686Y-83499311D01*
X158863276Y-83479901D01*
X158793844Y-83424922D01*
X158755143Y-83345262D01*
X158750000Y-83300312D01*
X158750000Y-61099000D01*
X158769707Y-61012657D01*
X158824926Y-60943416D01*
X158904718Y-60904989D01*
X158949000Y-60900000D01*
X161451000Y-60900000D01*
X161537343Y-60919707D01*
G37*
%TD.AperFunction*%
%TD*%
M02*
